M48
; DRILL file {KiCad 9.0.1} date 2026-07-20T21:59:39-0300
; FORMAT={-:-/ absolute / metric / decimal}
; #@! TF.CreationDate,2026-07-20T21:59:39-03:00
; #@! TF.GenerationSoftware,Kicad,Pcbnew,9.0.1
; #@! TF.FileFunction,Plated,1,2,PTH
FMAT,2
METRIC
; #@! TA.AperFunction,Plated,PTH,ComponentDrill
T1C0.600
; #@! TA.AperFunction,Plated,PTH,ComponentDrill
T2C0.750
; #@! TA.AperFunction,Plated,PTH,ComponentDrill
T3C0.800
; #@! TA.AperFunction,Plated,PTH,ComponentDrill
T4C0.900
; #@! TA.AperFunction,Plated,PTH,ComponentDrill
T5C1.000
; #@! TA.AperFunction,Plated,PTH,ComponentDrill
T6C1.100
; #@! TA.AperFunction,Plated,PTH,ComponentDrill
T7C1.190
; #@! TA.AperFunction,Plated,PTH,ComponentDrill
T8C1.200
; #@! TA.AperFunction,Plated,PTH,ComponentDrill
T9C1.300
; #@! TA.AperFunction,Plated,PTH,ComponentDrill
T10C1.500
%
G90
G05
T1
X104.115Y-57.099
X106.115Y-57.099
X125.298Y-84.194
X125.298Y-86.194
X164.813Y-90.856
X166.813Y-90.856
X170.8Y-81.984
X170.8Y-83.984
T2
X108.407Y-110.49
X109.677Y-111.76
X110.947Y-110.49
X114.3Y-110.49
X115.57Y-111.76
X116.84Y-110.49
T3
X93.34Y-122.25
X99.0Y-109.42
X99.0Y-119.58
X102.0Y-106.69
X102.0Y-116.85
X102.692Y-66.878
X102.692Y-69.418
X103.5Y-122.25
X103.926Y-61.036
X105.0Y-106.69
X105.0Y-116.85
X105.004Y-52.807
X105.872Y-64.211
X105.872Y-66.751
X105.872Y-69.291
X105.872Y-71.831
X108.926Y-61.036
X109.17Y-106.5
X110.947Y-114.656
X110.947Y-124.816
X113.492Y-64.211
X113.492Y-66.751
X113.492Y-69.291
X113.492Y-71.831
X114.5Y-56.5
X114.5Y-61.5
X115.164Y-52.807
X117.21Y-30.861
X118.048Y-65.325
X118.048Y-75.485
X119.2Y-54.115
X119.2Y-61.735
X119.304Y-34.487
X119.304Y-39.487
X119.33Y-106.5
X121.048Y-65.325
X121.048Y-75.485
X121.615Y-106.731
X121.74Y-54.115
X121.74Y-61.735
X122.21Y-30.861
X124.048Y-65.405
X124.048Y-75.565
X124.28Y-54.115
X124.28Y-61.735
X125.516Y-92.099
X125.567Y-97.384
X126.82Y-54.115
X126.82Y-61.735
X127.048Y-65.405
X127.048Y-75.565
X129.286Y-82.666
X129.286Y-87.666
X129.36Y-54.115
X129.36Y-61.735
X130.048Y-65.405
X130.048Y-75.565
X130.516Y-92.099
X130.567Y-97.384
X131.775Y-106.731
X132.509Y-82.717
X132.509Y-87.717
X135.509Y-82.717
X135.509Y-87.717
X135.7Y-52.2
X139.065Y-60.325
X139.065Y-62.865
X139.065Y-65.405
X139.065Y-67.945
X139.065Y-70.485
X139.065Y-73.025
X139.065Y-75.565
X139.065Y-78.105
X139.065Y-80.645
X139.065Y-83.185
X139.065Y-85.725
X139.065Y-88.265
X139.065Y-90.805
X139.065Y-93.345
X139.065Y-95.885
X139.065Y-98.425
X139.065Y-100.965
X139.065Y-103.505
X139.065Y-106.045
X139.065Y-108.585
X140.7Y-52.2
X145.009Y-44.374
X145.009Y-54.534
X146.369Y-41.656
X146.66Y-35.233
X146.66Y-37.733
X147.701Y-113.919
X147.726Y-54.483
X151.369Y-41.656
X154.305Y-60.325
X154.305Y-62.865
X154.305Y-65.405
X154.305Y-67.945
X154.305Y-70.485
X154.305Y-73.025
X154.305Y-75.565
X154.305Y-78.105
X154.305Y-80.645
X154.305Y-83.185
X154.305Y-85.725
X154.305Y-88.265
X154.305Y-90.805
X154.305Y-93.345
X154.305Y-95.885
X154.305Y-98.425
X154.305Y-100.965
X154.305Y-103.505
X154.305Y-106.045
X154.305Y-108.585
X157.861Y-113.919
X157.886Y-54.483
X158.928Y-96.52
X158.928Y-99.06
X158.928Y-101.6
X158.928Y-104.14
X159.969Y-80.99
X159.969Y-85.99
X160.528Y-111.88
X160.528Y-122.04
X160.92Y-37.8
X160.92Y-40.848
X160.92Y-43.896
X160.92Y-46.965
X161.62Y-88.584
X161.62Y-93.584
X163.43Y-80.99
X163.43Y-85.99
X163.576Y-111.887
X163.576Y-122.047
X166.548Y-96.52
X166.548Y-99.06
X166.548Y-101.6
X166.548Y-104.14
X166.624Y-111.88
X166.624Y-122.04
X167.03Y-80.99
X167.03Y-85.99
X169.253Y-69.931
X169.443Y-66.431
X169.443Y-73.431
X169.6Y-90.92
X169.6Y-101.08
X169.753Y-76.931
X171.08Y-37.8
X171.08Y-40.848
X171.08Y-43.896
X171.08Y-46.965
X173.344Y-120.015
X173.482Y-142.89
X173.482Y-147.89
X174.0Y-85.72
X174.0Y-95.88
X174.015Y-56.078
X174.015Y-58.618
X174.02Y-39.06
X174.02Y-41.6
X174.02Y-44.648
X174.02Y-47.188
X174.02Y-50.363
X174.02Y-52.903
X174.253Y-69.931
X174.753Y-76.931
X177.4Y-93.92
X177.4Y-104.08
X178.344Y-120.015
X179.603Y-66.431
X179.603Y-73.431
X181.185Y-112.19
X181.185Y-114.73
X181.185Y-117.27
X181.185Y-119.81
X181.635Y-56.078
X181.635Y-58.618
X181.64Y-39.06
X181.64Y-41.6
X181.64Y-44.648
X181.64Y-47.188
X181.64Y-50.363
X181.64Y-52.903
X185.75Y-61.92
X185.75Y-72.08
X185.826Y-38.278
X185.826Y-48.438
X188.75Y-61.92
X188.75Y-72.08
X188.805Y-112.19
X188.805Y-114.73
X188.805Y-117.27
X188.805Y-119.81
X188.969Y-38.387
X188.969Y-48.547
T4
X159.0Y-138.96
X159.0Y-141.5
X164.0Y-138.92
X164.0Y-141.46
X169.0Y-138.96
X169.0Y-141.5
T5
X118.95Y-118.75
X130.95Y-118.75
X136.45Y-118.95
X148.45Y-118.95
X174.0Y-101.235
X174.0Y-103.775
X178.308Y-125.73
X178.308Y-146.05
X180.848Y-125.73
X180.848Y-146.05
X183.388Y-125.73
X183.388Y-146.05
X185.928Y-125.73
X185.928Y-146.05
X188.468Y-125.73
X188.468Y-146.05
X191.008Y-125.73
X191.008Y-146.05
T6
X98.75Y-128.67
X98.75Y-131.21
X98.75Y-133.75
X101.12Y-43.2
X104.0Y-125.42
X104.0Y-135.58
X107.5Y-125.42
X107.5Y-135.58
X111.28Y-43.2
X111.505Y-128.61
X111.505Y-131.15
X111.505Y-133.69
X119.92Y-113.19
X129.0Y-40.8
X129.0Y-44.61
X130.08Y-113.19
X133.985Y-113.284
X144.145Y-113.284
X150.09Y-45.273
X150.09Y-49.773
X156.59Y-45.273
X156.59Y-49.773
T7
X162.916Y-54.585
X162.916Y-57.125
X162.916Y-59.665
X162.916Y-62.205
X162.916Y-64.745
T8
X112.801Y-27.051
X112.801Y-39.751
X125.527Y-35.912
X127.227Y-37.972
X128.927Y-35.912
X130.627Y-37.972
X132.327Y-35.912
X181.0Y-95.76
X181.0Y-100.84
T9
X101.78Y-143.5
X106.86Y-143.5
X111.94Y-143.5
X117.02Y-143.5
X118.95Y-130.95
X122.1Y-143.5
X125.0Y-116.8
X127.18Y-143.5
X131.0Y-131.0
X132.26Y-143.5
X135.909Y-39.395
X136.45Y-131.15
X137.34Y-143.5
X141.509Y-39.395
X142.42Y-143.5
X142.5Y-117.0
X147.5Y-143.5
X148.5Y-131.2
X153.42Y-30.5
X158.5Y-30.5
X163.58Y-30.5
X168.66Y-30.5
X173.74Y-30.5
X178.82Y-30.5
X183.9Y-30.5
X188.98Y-30.5
X189.0Y-95.925
X189.0Y-101.005
X189.0Y-106.085
T10
X108.788Y-78.449
X108.788Y-99.249
X134.722Y-92.405
X134.722Y-97.305
T5
G00X102.4Y-32.7
M15
G01X102.4Y-34.9
M16
G05
G00X106.9Y-38.6
M15
G01X104.7Y-38.6
M16
G05
G00X108.7Y-32.5
M15
G01X108.7Y-35.1
M16
G05
M30
