%TF.GenerationSoftware,KiCad,Pcbnew,9.0.1*%
%TF.CreationDate,2026-07-20T21:59:43-03:00*%
%TF.ProjectId,basix-board,62617369-782d-4626-9f61-72642e6b6963,rev?*%
%TF.SameCoordinates,Original*%
%TF.FileFunction,Copper,L2,Bot*%
%TF.FilePolarity,Positive*%
%FSLAX46Y46*%
G04 Gerber Fmt 4.6, Leading zero omitted, Abs format (unit mm)*
G04 Created by KiCad (PCBNEW 9.0.1) date 2026-07-20 21:59:43*
%MOMM*%
%LPD*%
G01*
G04 APERTURE LIST*
G04 Aperture macros list*
%AMRoundRect*
0 Rectangle with rounded corners*
0 $1 Rounding radius*
0 $2 $3 $4 $5 $6 $7 $8 $9 X,Y pos of 4 corners*
0 Add a 4 corners polygon primitive as box body*
4,1,4,$2,$3,$4,$5,$6,$7,$8,$9,$2,$3,0*
0 Add four circle primitives for the rounded corners*
1,1,$1+$1,$2,$3*
1,1,$1+$1,$4,$5*
1,1,$1+$1,$6,$7*
1,1,$1+$1,$8,$9*
0 Add four rect primitives between the rounded corners*
20,1,$1+$1,$2,$3,$4,$5,0*
20,1,$1+$1,$4,$5,$6,$7,0*
20,1,$1+$1,$6,$7,$8,$9,0*
20,1,$1+$1,$8,$9,$2,$3,0*%
G04 Aperture macros list end*
%TA.AperFunction,ComponentPad*%
%ADD10C,1.600000*%
%TD*%
%TA.AperFunction,ComponentPad*%
%ADD11O,1.600000X1.600000*%
%TD*%
%TA.AperFunction,ComponentPad*%
%ADD12R,2.000000X1.905000*%
%TD*%
%TA.AperFunction,ComponentPad*%
%ADD13O,2.000000X1.905000*%
%TD*%
%TA.AperFunction,ComponentPad*%
%ADD14RoundRect,0.250000X-0.550000X-0.550000X0.550000X-0.550000X0.550000X0.550000X-0.550000X0.550000X0*%
%TD*%
%TA.AperFunction,ComponentPad*%
%ADD15R,1.800000X1.800000*%
%TD*%
%TA.AperFunction,ComponentPad*%
%ADD16C,1.800000*%
%TD*%
%TA.AperFunction,ComponentPad*%
%ADD17RoundRect,0.250000X0.550000X0.550000X-0.550000X0.550000X-0.550000X-0.550000X0.550000X-0.550000X0*%
%TD*%
%TA.AperFunction,ComponentPad*%
%ADD18R,2.200000X2.200000*%
%TD*%
%TA.AperFunction,ComponentPad*%
%ADD19O,2.200000X2.200000*%
%TD*%
%TA.AperFunction,ComponentPad*%
%ADD20C,2.000000*%
%TD*%
%TA.AperFunction,ComponentPad*%
%ADD21RoundRect,0.250000X-0.550000X0.550000X-0.550000X-0.550000X0.550000X-0.550000X0.550000X0.550000X0*%
%TD*%
%TA.AperFunction,ComponentPad*%
%ADD22RoundRect,0.250000X1.050000X-1.050000X1.050000X1.050000X-1.050000X1.050000X-1.050000X-1.050000X0*%
%TD*%
%TA.AperFunction,ComponentPad*%
%ADD23C,2.600000*%
%TD*%
%TA.AperFunction,ComponentPad*%
%ADD24R,1.200000X1.200000*%
%TD*%
%TA.AperFunction,ComponentPad*%
%ADD25C,1.200000*%
%TD*%
%TA.AperFunction,ComponentPad*%
%ADD26C,3.000000*%
%TD*%
%TA.AperFunction,ComponentPad*%
%ADD27C,2.500000*%
%TD*%
%TA.AperFunction,ComponentPad*%
%ADD28R,1.100000X1.800000*%
%TD*%
%TA.AperFunction,ComponentPad*%
%ADD29RoundRect,0.275000X0.275000X0.625000X-0.275000X0.625000X-0.275000X-0.625000X0.275000X-0.625000X0*%
%TD*%
%TA.AperFunction,ComponentPad*%
%ADD30RoundRect,0.250000X-0.845000X0.620000X-0.845000X-0.620000X0.845000X-0.620000X0.845000X0.620000X0*%
%TD*%
%TA.AperFunction,ComponentPad*%
%ADD31O,2.190000X1.740000*%
%TD*%
%TA.AperFunction,ComponentPad*%
%ADD32R,2.400000X2.400000*%
%TD*%
%TA.AperFunction,ComponentPad*%
%ADD33O,2.400000X2.400000*%
%TD*%
%TA.AperFunction,ComponentPad*%
%ADD34R,1.600000X1.600000*%
%TD*%
%TA.AperFunction,ComponentPad*%
%ADD35RoundRect,0.250000X-1.050000X-1.050000X1.050000X-1.050000X1.050000X1.050000X-1.050000X1.050000X0*%
%TD*%
%TA.AperFunction,ComponentPad*%
%ADD36RoundRect,0.250000X1.050000X1.050000X-1.050000X1.050000X-1.050000X-1.050000X1.050000X-1.050000X0*%
%TD*%
%TA.AperFunction,ComponentPad*%
%ADD37R,1.600000X1.700000*%
%TD*%
%TA.AperFunction,ComponentPad*%
%ADD38C,1.700000*%
%TD*%
%TA.AperFunction,ComponentPad*%
%ADD39C,2.300000*%
%TD*%
%TA.AperFunction,ComponentPad*%
%ADD40R,2.000000X4.600000*%
%TD*%
%TA.AperFunction,ComponentPad*%
%ADD41O,2.000000X4.200000*%
%TD*%
%TA.AperFunction,ComponentPad*%
%ADD42O,4.200000X2.000000*%
%TD*%
%TA.AperFunction,ComponentPad*%
%ADD43R,2.000000X2.000000*%
%TD*%
%TA.AperFunction,ComponentPad*%
%ADD44R,1.700000X1.700000*%
%TD*%
%TA.AperFunction,Conductor*%
%ADD45C,1.000000*%
%TD*%
%TA.AperFunction,Conductor*%
%ADD46C,0.800000*%
%TD*%
%TA.AperFunction,Conductor*%
%ADD47C,2.000000*%
%TD*%
%TA.AperFunction,Conductor*%
%ADD48C,0.300000*%
%TD*%
%TA.AperFunction,Conductor*%
%ADD49C,0.500000*%
%TD*%
%TA.AperFunction,Conductor*%
%ADD50C,0.200000*%
%TD*%
G04 APERTURE END LIST*
D10*
%TO.P,R10,1*%
%TO.N,DIP1*%
X130048000Y-65405000D03*
D11*
%TO.P,R10,2*%
%TO.N,GND*%
X130048000Y-75565000D03*
%TD*%
D12*
%TO.P,Q2,1,G*%
%TO.N,Net-(Q2-G)*%
X111505000Y-128610000D03*
D13*
%TO.P,Q2,2,D*%
%TO.N,LOAD2*%
X111505000Y-131150000D03*
%TO.P,Q2,3,S*%
%TO.N,GND*%
X111505000Y-133690000D03*
%TD*%
D14*
%TO.P,U3,1*%
%TO.N,Net-(R7-Pad2)*%
X174020400Y-44648200D03*
D10*
%TO.P,U3,2*%
%TO.N,GND*%
X174020400Y-47188200D03*
%TO.P,U3,3*%
X181640400Y-47188200D03*
%TO.P,U3,4*%
%TO.N,IN2*%
X181640400Y-44648200D03*
%TD*%
%TO.P,C22,1*%
%TO.N,3.3V*%
X163430400Y-80989800D03*
%TO.P,C22,2*%
%TO.N,GND*%
X163430400Y-85989800D03*
%TD*%
%TO.P,C12,1*%
%TO.N,Net-(U9-VCC2)*%
X103926000Y-61036200D03*
%TO.P,C12,2*%
%TO.N,GND*%
X108926000Y-61036200D03*
%TD*%
%TO.P,R30,1*%
%TO.N,3.3V*%
X115163600Y-52806600D03*
D11*
%TO.P,R30,2*%
%TO.N,Net-(U9-VCC2)*%
X105003600Y-52806600D03*
%TD*%
D15*
%TO.P,U1,1,VIN*%
%TO.N,12VDC*%
X125527200Y-35911800D03*
D16*
%TO.P,U1,2,OUT*%
%TO.N,Net-(D6-K)*%
X127227200Y-37971800D03*
%TO.P,U1,3,GND*%
%TO.N,GND*%
X128927200Y-35911800D03*
%TO.P,U1,4,FB*%
%TO.N,Net-(U1-FB)*%
X130627200Y-37971800D03*
%TO.P,U1,5,~{ON}/OFF*%
%TO.N,GND*%
X132327200Y-35911800D03*
%TD*%
D10*
%TO.P,C5,1*%
%TO.N,IN5*%
X169753400Y-76931400D03*
%TO.P,C5,2*%
%TO.N,GND*%
X174753400Y-76931400D03*
%TD*%
D17*
%TO.P,U7,1,~{CS}*%
%TO.N,CS_MEM1*%
X188805000Y-119810000D03*
D10*
%TO.P,U7,2,MISO*%
%TO.N,MISO*%
X188805000Y-117270000D03*
%TO.P,U7,3,~{WP}*%
%TO.N,3.3V*%
X188805000Y-114730000D03*
%TO.P,U7,4,GND*%
%TO.N,GND*%
X188805000Y-112190000D03*
%TO.P,U7,5,MOSI*%
%TO.N,MOSI*%
X181185000Y-112190000D03*
%TO.P,U7,6,SCK*%
%TO.N,SCLK*%
X181185000Y-114730000D03*
%TO.P,U7,7,~{HOLD}*%
%TO.N,3.3V*%
X181185000Y-117270000D03*
%TO.P,U7,8,VCC*%
X181185000Y-119810000D03*
%TD*%
%TO.P,R28,1*%
%TO.N,485_B*%
X177400000Y-93920000D03*
D11*
%TO.P,R28,2*%
%TO.N,Net-(J7-Pin_1)*%
X177400000Y-104080000D03*
%TD*%
D18*
%TO.P,D6,1,K*%
%TO.N,Net-(D6-K)*%
X129000000Y-44610000D03*
D19*
%TO.P,D6,2,A*%
%TO.N,GND*%
X129000000Y-40800000D03*
%TD*%
D20*
%TO.P,SW2,1,1*%
%TO.N,GND*%
X150089800Y-45273400D03*
X156589800Y-45273400D03*
%TO.P,SW2,2,2*%
%TO.N,MCLR*%
X150089800Y-49773400D03*
X156589800Y-49773400D03*
%TD*%
D10*
%TO.P,C4,1*%
%TO.N,Net-(U1-FB)*%
X146369400Y-41656000D03*
%TO.P,C4,2*%
%TO.N,GND*%
X151369400Y-41656000D03*
%TD*%
D18*
%TO.P,D7,1,K*%
%TO.N,12VDC_OUTs*%
X104000000Y-125420000D03*
D19*
%TO.P,D7,2,A*%
%TO.N,LOAD1*%
X104000000Y-135580000D03*
%TD*%
D10*
%TO.P,R20,1*%
%TO.N,IN6*%
X169443400Y-66431400D03*
D11*
%TO.P,R20,2*%
%TO.N,Net-(R18-Pad1)*%
X179603400Y-66431400D03*
%TD*%
D14*
%TO.P,U4,1*%
%TO.N,Net-(R8-Pad2)*%
X174020400Y-50363200D03*
D10*
%TO.P,U4,2*%
%TO.N,GND*%
X174020400Y-52903200D03*
%TO.P,U4,3*%
X181640400Y-52903200D03*
%TO.P,U4,4*%
%TO.N,IN3*%
X181640400Y-50363200D03*
%TD*%
%TO.P,R15,1*%
%TO.N,DIP3*%
X124048000Y-65405000D03*
D11*
%TO.P,R15,2*%
%TO.N,GND*%
X124048000Y-75565000D03*
%TD*%
D21*
%TO.P,SW1,1*%
%TO.N,3.3V*%
X129360000Y-54115000D03*
D10*
%TO.P,SW1,2*%
X126820000Y-54115000D03*
%TO.P,SW1,3*%
X124280000Y-54115000D03*
%TO.P,SW1,4*%
X121740000Y-54115000D03*
%TO.P,SW1,5*%
X119200000Y-54115000D03*
%TO.P,SW1,6*%
%TO.N,DIP5*%
X119200000Y-61735000D03*
%TO.P,SW1,7*%
%TO.N,DIP4*%
X121740000Y-61735000D03*
%TO.P,SW1,8*%
%TO.N,DIP3*%
X124280000Y-61735000D03*
%TO.P,SW1,9*%
%TO.N,DIP2*%
X126820000Y-61735000D03*
%TO.P,SW1,10*%
%TO.N,DIP1*%
X129360000Y-61735000D03*
%TD*%
D15*
%TO.P,D1,1,K*%
%TO.N,GND*%
X159000000Y-141500000D03*
D16*
%TO.P,D1,2,A*%
%TO.N,Net-(D1-A)*%
X159000000Y-138960000D03*
%TD*%
D22*
%TO.P,J3,1,Pin_1*%
%TO.N,GND*%
X189000000Y-106085000D03*
D23*
%TO.P,J3,2,Pin_2*%
%TO.N,485_A*%
X189000000Y-101005000D03*
%TO.P,J3,3,Pin_3*%
%TO.N,485_B*%
X189000000Y-95925000D03*
%TD*%
D24*
%TO.P,C20,1*%
%TO.N,3.3V*%
X125298200Y-84193601D03*
D25*
%TO.P,C20,2*%
%TO.N,GND*%
X125298200Y-86193601D03*
%TD*%
D10*
%TO.P,C10,1*%
%TO.N,3.3V*%
X173482000Y-147889600D03*
%TO.P,C10,2*%
%TO.N,GND*%
X173482000Y-142889600D03*
%TD*%
%TO.P,Y1,1,1*%
%TO.N,Net-(U9-X1)*%
X102692200Y-66878200D03*
%TO.P,Y1,2,2*%
%TO.N,Net-(U9-X2)*%
X102692200Y-69418200D03*
%TD*%
D26*
%TO.P,K1,1*%
%TO.N,LOAD4_C*%
X142500000Y-117000000D03*
D27*
%TO.P,K1,2*%
%TO.N,Net-(D9-A)*%
X136450000Y-118950000D03*
D26*
%TO.P,K1,3*%
%TO.N,LOAD4_NA*%
X136450000Y-131150000D03*
%TO.P,K1,4*%
%TO.N,LOAD4_NF*%
X148500000Y-131200000D03*
D27*
%TO.P,K1,5*%
%TO.N,12VDC_OUTs*%
X148450000Y-118950000D03*
%TD*%
D28*
%TO.P,Q4,1,C*%
%TO.N,Net-(D10-A)*%
X110947200Y-110090000D03*
D29*
%TO.P,Q4,2,B*%
%TO.N,Net-(Q4-B)*%
X109677200Y-112160000D03*
%TO.P,Q4,3,E*%
%TO.N,GND*%
X108407200Y-110090000D03*
%TD*%
D10*
%TO.P,C9,1*%
%TO.N,3.3V*%
X178344200Y-120015000D03*
%TO.P,C9,2*%
%TO.N,GND*%
X173344200Y-120015000D03*
%TD*%
%TO.P,R12,1*%
%TO.N,GND*%
X188750000Y-72080000D03*
D11*
%TO.P,R12,2*%
%TO.N,Net-(R11-Pad1)*%
X188750000Y-61920000D03*
%TD*%
D10*
%TO.P,R32,1*%
%TO.N,Net-(U10-RC3)*%
X147701000Y-113919000D03*
D11*
%TO.P,R32,2*%
%TO.N,SCLK*%
X157861000Y-113919000D03*
%TD*%
D10*
%TO.P,R3,1*%
%TO.N,Net-(D4-A)*%
X166624000Y-122040000D03*
D11*
%TO.P,R3,2*%
%TO.N,LED3*%
X166624000Y-111880000D03*
%TD*%
D18*
%TO.P,D3,1,K*%
%TO.N,12VDC*%
X111280000Y-43200000D03*
D19*
%TO.P,D3,2,A*%
%TO.N,12VDC_IN*%
X101120000Y-43200000D03*
%TD*%
D26*
%TO.P,K2,1*%
%TO.N,LOAD3_C*%
X125000000Y-116800000D03*
D27*
%TO.P,K2,2*%
%TO.N,Net-(D10-A)*%
X118950000Y-118750000D03*
D26*
%TO.P,K2,3*%
%TO.N,LOAD3_NA*%
X118950000Y-130950000D03*
%TO.P,K2,4*%
%TO.N,LOAD3_NF*%
X131000000Y-131000000D03*
D27*
%TO.P,K2,5*%
%TO.N,12VDC_OUTs*%
X130950000Y-118750000D03*
%TD*%
D10*
%TO.P,R8,1*%
%TO.N,DIG_IN3*%
X160920000Y-43896000D03*
D11*
%TO.P,R8,2*%
%TO.N,Net-(R8-Pad2)*%
X171080000Y-43896000D03*
%TD*%
D10*
%TO.P,R19,1*%
%TO.N,GND*%
X185750000Y-72080000D03*
D11*
%TO.P,R19,2*%
%TO.N,Net-(R18-Pad1)*%
X185750000Y-61920000D03*
%TD*%
D10*
%TO.P,R6,1*%
%TO.N,DIG_IN1*%
X160920000Y-37800000D03*
D11*
%TO.P,R6,2*%
%TO.N,Net-(R6-Pad2)*%
X171080000Y-37800000D03*
%TD*%
D10*
%TO.P,C15,1*%
%TO.N,MCLR*%
X140700000Y-52200000D03*
%TO.P,C15,2*%
%TO.N,GND*%
X135700000Y-52200000D03*
%TD*%
%TO.P,R9,1*%
%TO.N,DIG_IN4*%
X160920000Y-46965000D03*
D11*
%TO.P,R9,2*%
%TO.N,Net-(R9-Pad2)*%
X171080000Y-46965000D03*
%TD*%
D15*
%TO.P,D2,1,K*%
%TO.N,GND*%
X164000000Y-141460000D03*
D16*
%TO.P,D2,2,A*%
%TO.N,Net-(D2-A)*%
X164000000Y-138920000D03*
%TD*%
D10*
%TO.P,R24,1*%
%TO.N,GND*%
X110947200Y-114655600D03*
D11*
%TO.P,R24,2*%
%TO.N,Net-(Q2-G)*%
X110947200Y-124815600D03*
%TD*%
D10*
%TO.P,R1,1*%
%TO.N,Net-(D1-A)*%
X160528000Y-122040000D03*
D11*
%TO.P,R1,2*%
%TO.N,LED1*%
X160528000Y-111880000D03*
%TD*%
D30*
%TO.P,J5,1,Pin_1*%
%TO.N,MCLR*%
X162915600Y-54584600D03*
D31*
%TO.P,J5,2,Pin_2*%
%TO.N,3.3V*%
X162915600Y-57124600D03*
%TO.P,J5,3,Pin_3*%
%TO.N,GND*%
X162915600Y-59664600D03*
%TO.P,J5,4,Pin_4*%
%TO.N,PGD*%
X162915600Y-62204600D03*
%TO.P,J5,5,Pin_5*%
%TO.N,PGC*%
X162915600Y-64744600D03*
%TD*%
D10*
%TO.P,C17,1*%
%TO.N,3.3V*%
X135509000Y-82717000D03*
%TO.P,C17,2*%
%TO.N,GND*%
X135509000Y-87717000D03*
%TD*%
D32*
%TO.P,D5,1,A1*%
%TO.N,12VDC*%
X112801400Y-39751000D03*
D33*
%TO.P,D5,2,A2*%
%TO.N,GND*%
X112801400Y-27051000D03*
%TD*%
D18*
%TO.P,D10,1,K*%
%TO.N,12VDC_OUTs*%
X130080000Y-113190000D03*
D19*
%TO.P,D10,2,A*%
%TO.N,Net-(D10-A)*%
X119920000Y-113190000D03*
%TD*%
D10*
%TO.P,R26,1*%
%TO.N,OUT3*%
X119330000Y-106500000D03*
D11*
%TO.P,R26,2*%
%TO.N,Net-(Q4-B)*%
X109170000Y-106500000D03*
%TD*%
D10*
%TO.P,R31,1*%
%TO.N,MCLR*%
X157886400Y-54483000D03*
D11*
%TO.P,R31,2*%
%TO.N,3.3V*%
X147726400Y-54483000D03*
%TD*%
D14*
%TO.P,U9,1,VCC2*%
%TO.N,Net-(U9-VCC2)*%
X105872200Y-64211200D03*
D10*
%TO.P,U9,2,X1*%
%TO.N,Net-(U9-X1)*%
X105872200Y-66751200D03*
%TO.P,U9,3,X2*%
%TO.N,Net-(U9-X2)*%
X105872200Y-69291200D03*
%TO.P,U9,4,GND*%
%TO.N,GND*%
X105872200Y-71831200D03*
%TO.P,U9,5,CE*%
%TO.N,RTC_CE*%
X113492200Y-71831200D03*
%TO.P,U9,6,I/O*%
%TO.N,RTC_DAT*%
X113492200Y-69291200D03*
%TO.P,U9,7,SCLK*%
%TO.N,RTC_CLK*%
X113492200Y-66751200D03*
%TO.P,U9,8,VCC1*%
%TO.N,RTC_BAT*%
X113492200Y-64211200D03*
%TD*%
D24*
%TO.P,C7,1*%
%TO.N,3.3V*%
X164813201Y-90855800D03*
D25*
%TO.P,C7,2*%
%TO.N,GND*%
X166813201Y-90855800D03*
%TD*%
D14*
%TO.P,U5,1*%
%TO.N,Net-(R9-Pad2)*%
X174015400Y-56078200D03*
D10*
%TO.P,U5,2*%
%TO.N,GND*%
X174015400Y-58618200D03*
%TO.P,U5,3*%
X181635400Y-58618200D03*
%TO.P,U5,4*%
%TO.N,IN4*%
X181635400Y-56078200D03*
%TD*%
D18*
%TO.P,D8,1,K*%
%TO.N,12VDC_OUTs*%
X107500000Y-125420000D03*
D19*
%TO.P,D8,2,A*%
%TO.N,LOAD2*%
X107500000Y-135580000D03*
%TD*%
D10*
%TO.P,R11,1*%
%TO.N,Net-(R11-Pad1)*%
X188969000Y-48546600D03*
D11*
%TO.P,R11,2*%
%TO.N,AN_IN1*%
X188969000Y-38386600D03*
%TD*%
D10*
%TO.P,C8,1*%
%TO.N,3.3V*%
X161620200Y-93584400D03*
%TO.P,C8,2*%
%TO.N,GND*%
X161620200Y-88584400D03*
%TD*%
%TO.P,R29,1*%
%TO.N,GND*%
X174000000Y-85720000D03*
D11*
%TO.P,R29,2*%
%TO.N,485_B*%
X174000000Y-95880000D03*
%TD*%
D10*
%TO.P,R18,1*%
%TO.N,Net-(R18-Pad1)*%
X185826400Y-48437800D03*
D11*
%TO.P,R18,2*%
%TO.N,AN_IN2*%
X185826400Y-38277800D03*
%TD*%
D14*
%TO.P,U6,1,RO*%
%TO.N,485_RX*%
X158927800Y-96520000D03*
D10*
%TO.P,U6,2,~{RE}*%
%TO.N,485_DE_RE*%
X158927800Y-99060000D03*
%TO.P,U6,3,DE*%
X158927800Y-101600000D03*
%TO.P,U6,4,DI*%
%TO.N,485_TX*%
X158927800Y-104140000D03*
%TO.P,U6,5,GND*%
%TO.N,GND*%
X166547800Y-104140000D03*
%TO.P,U6,6,A*%
%TO.N,485_A*%
X166547800Y-101600000D03*
%TO.P,U6,7,B*%
%TO.N,485_B*%
X166547800Y-99060000D03*
%TO.P,U6,8,VCC*%
%TO.N,3.3V*%
X166547800Y-96520000D03*
%TD*%
%TO.P,R13,1*%
%TO.N,DIP2*%
X127048000Y-65405000D03*
D11*
%TO.P,R13,2*%
%TO.N,GND*%
X127048000Y-75565000D03*
%TD*%
D34*
%TO.P,C3,1*%
%TO.N,Net-(U1-FB)*%
X146659600Y-37732980D03*
D10*
%TO.P,C3,2*%
%TO.N,GND*%
X146659600Y-35232980D03*
%TD*%
D24*
%TO.P,C11,1*%
%TO.N,Net-(U9-VCC2)*%
X104114600Y-57099200D03*
D25*
%TO.P,C11,2*%
%TO.N,GND*%
X106114600Y-57099200D03*
%TD*%
D10*
%TO.P,R16,1*%
%TO.N,DIP4*%
X121048000Y-65325000D03*
D11*
%TO.P,R16,2*%
%TO.N,GND*%
X121048000Y-75485000D03*
%TD*%
D10*
%TO.P,C16,1*%
%TO.N,X2*%
X130566800Y-97383600D03*
%TO.P,C16,2*%
%TO.N,GND*%
X125566800Y-97383600D03*
%TD*%
%TO.P,R23,1*%
%TO.N,OUT2*%
X105000000Y-106690000D03*
D11*
%TO.P,R23,2*%
%TO.N,Net-(Q2-G)*%
X105000000Y-116850000D03*
%TD*%
D15*
%TO.P,D4,1,K*%
%TO.N,GND*%
X169000000Y-141500000D03*
D16*
%TO.P,D4,2,A*%
%TO.N,Net-(D4-A)*%
X169000000Y-138960000D03*
%TD*%
D10*
%TO.P,R27,1*%
%TO.N,485_A*%
X169600000Y-101080000D03*
D11*
%TO.P,R27,2*%
%TO.N,3.3V*%
X169600000Y-90920000D03*
%TD*%
D10*
%TO.P,R4,1*%
%TO.N,12VDC*%
X93340000Y-122250000D03*
D11*
%TO.P,R4,2*%
%TO.N,12VDC_OUTs*%
X103500000Y-122250000D03*
%TD*%
D10*
%TO.P,R25,1*%
%TO.N,OUT4*%
X131775200Y-106730800D03*
D11*
%TO.P,R25,2*%
%TO.N,Net-(Q3-B)*%
X121615200Y-106730800D03*
%TD*%
D14*
%TO.P,U2,1*%
%TO.N,Net-(R6-Pad2)*%
X174020400Y-39060200D03*
D10*
%TO.P,U2,2*%
%TO.N,GND*%
X174020400Y-41600200D03*
%TO.P,U2,3*%
X181640400Y-41600200D03*
%TO.P,U2,4*%
%TO.N,IN1*%
X181640400Y-39060200D03*
%TD*%
%TO.P,R5,1*%
%TO.N,3.3V*%
X145008600Y-54533800D03*
D11*
%TO.P,R5,2*%
%TO.N,Net-(U1-FB)*%
X145008600Y-44373800D03*
%TD*%
D35*
%TO.P,J4,1,Pin_1*%
%TO.N,12VDC*%
X101780000Y-143500000D03*
D23*
%TO.P,J4,2,Pin_2*%
%TO.N,GND*%
X106860000Y-143500000D03*
%TO.P,J4,3,Pin_3*%
%TO.N,LOAD1*%
X111940000Y-143500000D03*
%TO.P,J4,4,Pin_4*%
%TO.N,LOAD2*%
X117020000Y-143500000D03*
%TO.P,J4,5,Pin_5*%
%TO.N,LOAD3_NA*%
X122100000Y-143500000D03*
%TO.P,J4,6,Pin_6*%
%TO.N,LOAD3_C*%
X127180000Y-143500000D03*
%TO.P,J4,7,Pin_7*%
%TO.N,LOAD3_NF*%
X132260000Y-143500000D03*
%TO.P,J4,8,Pin_8*%
%TO.N,LOAD4_NA*%
X137340000Y-143500000D03*
%TO.P,J4,9,Pin_9*%
%TO.N,LOAD4_C*%
X142420000Y-143500000D03*
%TO.P,J4,10,Pin_10*%
%TO.N,LOAD4_NF*%
X147500000Y-143500000D03*
%TD*%
D34*
%TO.P,C2,1*%
%TO.N,12VDC*%
X119303800Y-39486651D03*
D10*
%TO.P,C2,2*%
%TO.N,GND*%
X119303800Y-34486651D03*
%TD*%
%TO.P,R22,1*%
%TO.N,GND*%
X99000000Y-109420000D03*
D11*
%TO.P,R22,2*%
%TO.N,Net-(Q1-G)*%
X99000000Y-119580000D03*
%TD*%
D10*
%TO.P,C6,1*%
%TO.N,IN6*%
X169253400Y-69931400D03*
%TO.P,C6,2*%
%TO.N,GND*%
X174253400Y-69931400D03*
%TD*%
%TO.P,C19,1*%
%TO.N,3.3V*%
X129286000Y-82666200D03*
%TO.P,C19,2*%
%TO.N,GND*%
X129286000Y-87666200D03*
%TD*%
%TO.P,C23,1*%
%TO.N,3.3V*%
X159969200Y-80989800D03*
%TO.P,C23,2*%
%TO.N,GND*%
X159969200Y-85989800D03*
%TD*%
D36*
%TO.P,J2,1,Pin_1*%
%TO.N,12VDC*%
X188980000Y-30500000D03*
D23*
%TO.P,J2,2,Pin_2*%
%TO.N,GND*%
X183900000Y-30500000D03*
%TO.P,J2,3,Pin_3*%
%TO.N,AN_IN1*%
X178820000Y-30500000D03*
%TO.P,J2,4,Pin_4*%
%TO.N,AN_IN2*%
X173740000Y-30500000D03*
%TO.P,J2,5,Pin_5*%
%TO.N,DIG_IN1*%
X168660000Y-30500000D03*
%TO.P,J2,6,Pin_6*%
%TO.N,DIG_IN2*%
X163580000Y-30500000D03*
%TO.P,J2,7,Pin_7*%
%TO.N,DIG_IN3*%
X158500000Y-30500000D03*
%TO.P,J2,8,Pin_8*%
%TO.N,DIG_IN4*%
X153420000Y-30500000D03*
%TD*%
D10*
%TO.P,R17,1*%
%TO.N,DIP5*%
X118048000Y-65325000D03*
D11*
%TO.P,R17,2*%
%TO.N,GND*%
X118048000Y-75485000D03*
%TD*%
D10*
%TO.P,R2,1*%
%TO.N,Net-(D2-A)*%
X163576000Y-122047000D03*
D11*
%TO.P,R2,2*%
%TO.N,LED2*%
X163576000Y-111887000D03*
%TD*%
D37*
%TO.P,U8,1,GND*%
%TO.N,GND*%
X191008000Y-125730000D03*
D38*
%TO.P,U8,2,GND*%
X188468000Y-125730000D03*
%TO.P,U8,3,MOSI*%
%TO.N,MOSI*%
X185928000Y-125730000D03*
%TO.P,U8,4,SCLK*%
%TO.N,SCLK*%
X183388000Y-125730000D03*
%TO.P,U8,5,CS*%
%TO.N,CS_ETH*%
X180848000Y-125730000D03*
%TO.P,U8,6,INT*%
%TO.N,unconnected-(U8-INT-Pad6)*%
X178308000Y-125730000D03*
%TO.P,U8,7,GND*%
%TO.N,GND*%
X191008000Y-146050000D03*
%TO.P,U8,8,VIN*%
%TO.N,3.3V*%
X188468000Y-146050000D03*
%TO.P,U8,9,VIN*%
X185928000Y-146050000D03*
%TO.P,U8,10,NC*%
%TO.N,unconnected-(U8-NC-Pad10)*%
X183388000Y-146050000D03*
%TO.P,U8,11,RST*%
%TO.N,unconnected-(U8-RST-Pad11)*%
X180848000Y-146050000D03*
%TO.P,U8,12,MISO*%
%TO.N,MISO*%
X178308000Y-146050000D03*
%TD*%
D39*
%TO.P,Y2,1,1*%
%TO.N,X1*%
X134721600Y-92405200D03*
%TO.P,Y2,2,2*%
%TO.N,X2*%
X134721600Y-97305200D03*
%TD*%
D10*
%TO.P,U10,1,MCLR\u002A/VPP/RE3*%
%TO.N,MCLR*%
X139065000Y-60325000D03*
%TO.P,U10,2,RA0*%
%TO.N,unconnected-(U10-RA0-Pad2)*%
X139065000Y-62865000D03*
%TO.P,U10,3,RA1*%
%TO.N,DIP1*%
X139065000Y-65405000D03*
%TO.P,U10,4,RA2*%
%TO.N,DIP2*%
X139065000Y-67945000D03*
%TO.P,U10,5,RA3*%
%TO.N,DIP3*%
X139065000Y-70485000D03*
%TO.P,U10,6,RA4*%
%TO.N,DIP4*%
X139065000Y-73025000D03*
%TO.P,U10,7,RA5*%
%TO.N,DIP5*%
X139065000Y-75565000D03*
%TO.P,U10,8,RE0*%
%TO.N,RTC_CLK*%
X139065000Y-78105000D03*
%TO.P,U10,9,RE1*%
%TO.N,RTC_DAT*%
X139065000Y-80645000D03*
%TO.P,U10,10,RE2*%
%TO.N,RTC_CE*%
X139065000Y-83185000D03*
%TO.P,U10,11,VDD*%
%TO.N,3.3V*%
X139065000Y-85725000D03*
%TO.P,U10,12,VSS*%
%TO.N,GND*%
X139065000Y-88265000D03*
%TO.P,U10,13,RA7*%
%TO.N,X1*%
X139065000Y-90805000D03*
%TO.P,U10,14,RA6*%
%TO.N,X2*%
X139065000Y-93345000D03*
%TO.P,U10,15,RC0*%
%TO.N,unconnected-(U10-RC0-Pad15)*%
X139065000Y-95885000D03*
%TO.P,U10,16,RC1*%
%TO.N,OUT1*%
X139065000Y-98425000D03*
%TO.P,U10,17,RC2*%
%TO.N,OUT2*%
X139065000Y-100965000D03*
%TO.P,U10,18,RC3*%
%TO.N,Net-(U10-RC3)*%
X139065000Y-103505000D03*
%TO.P,U10,19,RD0*%
%TO.N,OUT3*%
X139065000Y-106045000D03*
%TO.P,U10,20,RD1*%
%TO.N,OUT4*%
X139065000Y-108585000D03*
%TO.P,U10,21,RD2*%
%TO.N,CS_ETH*%
X154305000Y-108585000D03*
%TO.P,U10,22,RD3*%
%TO.N,CS_MEM1*%
X154305000Y-106045000D03*
%TO.P,U10,23,RC4*%
%TO.N,MISO*%
X154305000Y-103505000D03*
%TO.P,U10,24,RC5*%
%TO.N,MOSI*%
X154305000Y-100965000D03*
%TO.P,U10,25,RC6*%
%TO.N,485_TX*%
X154305000Y-98425000D03*
%TO.P,U10,26,RC7*%
%TO.N,485_RX*%
X154305000Y-95885000D03*
%TO.P,U10,27,RD4*%
%TO.N,LED3*%
X154305000Y-93345000D03*
%TO.P,U10,28,RD5*%
%TO.N,LED2*%
X154305000Y-90805000D03*
%TO.P,U10,29,RD6*%
%TO.N,LED1*%
X154305000Y-88265000D03*
%TO.P,U10,30,RD7*%
%TO.N,485_DE_RE*%
X154305000Y-85725000D03*
%TO.P,U10,31,VSS*%
%TO.N,GND*%
X154305000Y-83185000D03*
%TO.P,U10,32,VDD*%
%TO.N,3.3V*%
X154305000Y-80645000D03*
%TO.P,U10,33,RB0*%
%TO.N,IN1*%
X154305000Y-78105000D03*
%TO.P,U10,34,RB1*%
%TO.N,IN2*%
X154305000Y-75565000D03*
%TO.P,U10,35,RB2*%
%TO.N,IN5*%
X154305000Y-73025000D03*
%TO.P,U10,36,RB3*%
%TO.N,IN6*%
X154305000Y-70485000D03*
%TO.P,U10,37,RB4*%
%TO.N,IN3*%
X154305000Y-67945000D03*
%TO.P,U10,38,RB5*%
%TO.N,IN4*%
X154305000Y-65405000D03*
%TO.P,U10,39,RB6*%
%TO.N,PGC*%
X154305000Y-62865000D03*
%TO.P,U10,40,RB7*%
%TO.N,PGD*%
X154305000Y-60325000D03*
%TD*%
D40*
%TO.P,J1,1,Pin_1*%
%TO.N,12VDC_IN*%
X108700000Y-33800000D03*
D41*
%TO.P,J1,2,Pin_2*%
%TO.N,GND*%
X102400000Y-33800000D03*
D42*
%TO.P,J1,3,Pin_3*%
%TO.N,unconnected-(J1-Pin_3-Pad3)*%
X105800000Y-38600000D03*
%TD*%
D24*
%TO.P,C24,1*%
%TO.N,3.3V*%
X170800000Y-81983801D03*
D25*
%TO.P,C24,2*%
%TO.N,GND*%
X170800000Y-83983801D03*
%TD*%
D10*
%TO.P,C13,1*%
%TO.N,RTC_BAT*%
X114500000Y-61500000D03*
%TO.P,C13,2*%
%TO.N,GND*%
X114500000Y-56500000D03*
%TD*%
D28*
%TO.P,Q3,1,C*%
%TO.N,Net-(D9-A)*%
X116840000Y-110090000D03*
D29*
%TO.P,Q3,2,B*%
%TO.N,Net-(Q3-B)*%
X115570000Y-112160000D03*
%TO.P,Q3,3,E*%
%TO.N,GND*%
X114300000Y-110090000D03*
%TD*%
D12*
%TO.P,Q1,1,G*%
%TO.N,Net-(Q1-G)*%
X98750000Y-128670000D03*
D13*
%TO.P,Q1,2,D*%
%TO.N,LOAD1*%
X98750000Y-131210000D03*
%TO.P,Q1,3,S*%
%TO.N,GND*%
X98750000Y-133750000D03*
%TD*%
D23*
%TO.P,L1,1,1*%
%TO.N,Net-(D6-K)*%
X135909400Y-39395400D03*
%TO.P,L1,2,2*%
%TO.N,Net-(U1-FB)*%
X141509400Y-39395400D03*
%TD*%
D10*
%TO.P,C18,1*%
%TO.N,3.3V*%
X132509000Y-82717000D03*
%TO.P,C18,2*%
%TO.N,GND*%
X132509000Y-87717000D03*
%TD*%
%TO.P,C14,1*%
%TO.N,X1*%
X130516000Y-92099000D03*
%TO.P,C14,2*%
%TO.N,GND*%
X125516000Y-92099000D03*
%TD*%
%TO.P,C21,1*%
%TO.N,3.3V*%
X167030400Y-80989800D03*
%TO.P,C21,2*%
%TO.N,GND*%
X167030400Y-85989800D03*
%TD*%
D43*
%TO.P,J6,1,Pin_1*%
%TO.N,RTC_BAT*%
X108788200Y-78448946D03*
D20*
%TO.P,J6,2,Pin_2*%
%TO.N,GND*%
X108788200Y-99248946D03*
%TD*%
D18*
%TO.P,D9,1,K*%
%TO.N,12VDC_OUTs*%
X144145000Y-113284000D03*
D19*
%TO.P,D9,2,A*%
%TO.N,Net-(D9-A)*%
X133985000Y-113284000D03*
%TD*%
D10*
%TO.P,R7,1*%
%TO.N,DIG_IN2*%
X160920000Y-40848000D03*
D11*
%TO.P,R7,2*%
%TO.N,Net-(R7-Pad2)*%
X171080000Y-40848000D03*
%TD*%
D10*
%TO.P,R21,1*%
%TO.N,OUT1*%
X102000000Y-106690000D03*
D11*
%TO.P,R21,2*%
%TO.N,Net-(Q1-G)*%
X102000000Y-116850000D03*
%TD*%
D32*
%TO.P,D11,1,A1*%
%TO.N,485_B*%
X181000000Y-95760000D03*
D33*
%TO.P,D11,2,A2*%
%TO.N,485_A*%
X181000000Y-100840000D03*
%TD*%
D10*
%TO.P,R14,1*%
%TO.N,IN5*%
X169443400Y-73431400D03*
D11*
%TO.P,R14,2*%
%TO.N,Net-(R11-Pad1)*%
X179603400Y-73431400D03*
%TD*%
D10*
%TO.P,C1,1*%
%TO.N,12VDC*%
X117210200Y-30861000D03*
%TO.P,C1,2*%
%TO.N,GND*%
X122210200Y-30861000D03*
%TD*%
D44*
%TO.P,J7,1,Pin_1*%
%TO.N,Net-(J7-Pin_1)*%
X174000000Y-103775000D03*
D38*
%TO.P,J7,2,Pin_2*%
%TO.N,485_A*%
X174000000Y-101235000D03*
%TD*%
D45*
%TO.N,12VDC*%
X117210200Y-37393051D02*
X117210200Y-30861000D01*
X111226600Y-43027600D02*
X107670600Y-46583600D01*
X112801400Y-35269800D02*
X117210200Y-30861000D01*
X119303800Y-39486651D02*
X117210200Y-37393051D01*
X112801400Y-39751000D02*
X112801400Y-41452800D01*
X107670600Y-46583600D02*
X99898200Y-46583600D01*
X100457000Y-24333200D02*
X98742500Y-26047700D01*
X93000000Y-114000000D02*
X93000000Y-134720000D01*
X119303800Y-39486651D02*
X122717749Y-39486651D01*
X94500000Y-51981800D02*
X94500000Y-112500000D01*
X99898200Y-46583600D02*
X98742500Y-47739300D01*
X112801400Y-39751000D02*
X112801400Y-35269800D01*
X94500000Y-112500000D02*
X93000000Y-114000000D01*
X112801400Y-41452800D02*
X111226600Y-43027600D01*
X182813200Y-24333200D02*
X100457000Y-24333200D01*
X98742500Y-47739300D02*
X94500000Y-51981800D01*
X93000000Y-134720000D02*
X101780000Y-143500000D01*
X125527200Y-35911800D02*
X125527200Y-36677200D01*
X188980000Y-30500000D02*
X182813200Y-24333200D01*
X125527200Y-36677200D02*
X122717749Y-39486651D01*
X98742500Y-26047700D02*
X98742500Y-47739300D01*
%TO.N,GND*%
X136057000Y-88265000D02*
X135509000Y-87717000D01*
X181849000Y-28449000D02*
X183900000Y-30500000D01*
X180000000Y-48828600D02*
X180000000Y-54543600D01*
X181635400Y-58618200D02*
X180000000Y-60253600D01*
X175571400Y-57062200D02*
X175571400Y-51352200D01*
X175571400Y-43151200D02*
X175571400Y-45637200D01*
X173482000Y-142889600D02*
X171931000Y-144440600D01*
X110449000Y-104949000D02*
X108527554Y-104949000D01*
X107619000Y-109701800D02*
X108407200Y-110490000D01*
X180000000Y-54543600D02*
X180000000Y-60253600D01*
D46*
X128927200Y-35911800D02*
X128927200Y-40922200D01*
D47*
X96499000Y-111921000D02*
X96499000Y-132122720D01*
D45*
X133600000Y-87717000D02*
X135509000Y-87717000D01*
X119786400Y-144703800D02*
X118939200Y-145551000D01*
X132509000Y-87717000D02*
X133600000Y-87717000D01*
X172890447Y-28449000D02*
X181849000Y-28449000D01*
X107619000Y-105857554D02*
X107619000Y-109701800D01*
X133549200Y-87666200D02*
X133600000Y-87717000D01*
D47*
X98750000Y-135390000D02*
X106860000Y-143500000D01*
D45*
X172839554Y-149440600D02*
X187617400Y-149440600D01*
X111505000Y-133690000D02*
X111505000Y-135084447D01*
X180000000Y-43240600D02*
X180000000Y-48828600D01*
D47*
X98126280Y-133750000D02*
X98750000Y-133750000D01*
D45*
X174020400Y-41600200D02*
X175571400Y-40049200D01*
X175571400Y-38088644D02*
X171689000Y-34206244D01*
D47*
X96499000Y-132122720D02*
X98126280Y-133750000D01*
D45*
X165414600Y-59664600D02*
X162915600Y-59664600D01*
D47*
X146659600Y-35232980D02*
X146659600Y-34101610D01*
X142937990Y-30380000D02*
X134459000Y-30380000D01*
D45*
X166037600Y-60287600D02*
X165414600Y-59664600D01*
X129286000Y-87666200D02*
X133549200Y-87666200D01*
X171689000Y-34206244D02*
X171689000Y-29650447D01*
D46*
X128927200Y-40922200D02*
X129229200Y-41224200D01*
D45*
X187617400Y-149440600D02*
X191008000Y-146050000D01*
X173344200Y-120015000D02*
X174144199Y-120814999D01*
X174144199Y-120814999D02*
X174144199Y-136355801D01*
X181640400Y-52903200D02*
X180000000Y-54543600D01*
X111505000Y-135084447D02*
X119786400Y-143365847D01*
X175571400Y-40049200D02*
X175571400Y-38088644D01*
X171689000Y-29650447D02*
X172890447Y-28449000D01*
X175571400Y-45637200D02*
X174020400Y-47188200D01*
X154305000Y-83185000D02*
X155429372Y-83185000D01*
X174144199Y-136355801D02*
X173482000Y-137018000D01*
X119786400Y-143365847D02*
X119786400Y-144703800D01*
X171931000Y-148532046D02*
X172839554Y-149440600D01*
X139065000Y-88265000D02*
X136057000Y-88265000D01*
X158234172Y-85989800D02*
X159969200Y-85989800D01*
D47*
X98750000Y-133750000D02*
X98750000Y-135390000D01*
D45*
X175571400Y-51352200D02*
X175571400Y-45637200D01*
X174020400Y-52903200D02*
X175571400Y-51352200D01*
X114300000Y-108800000D02*
X110449000Y-104949000D01*
X108911000Y-145551000D02*
X106860000Y-143500000D01*
X108527554Y-104949000D02*
X107619000Y-105857554D01*
X181640400Y-47188200D02*
X180000000Y-48828600D01*
X171931000Y-144440600D02*
X171931000Y-148532046D01*
X180000000Y-60287600D02*
X166037600Y-60287600D01*
X180000000Y-60253600D02*
X180000000Y-60287600D01*
X173482000Y-137018000D02*
X173482000Y-142889600D01*
X181640400Y-41600200D02*
X180000000Y-43240600D01*
D47*
X146659600Y-34101610D02*
X142937990Y-30380000D01*
D45*
X174020400Y-41600200D02*
X175571400Y-43151200D01*
X155429372Y-83185000D02*
X158234172Y-85989800D01*
D48*
X173741000Y-58425000D02*
X173609000Y-58557000D01*
D47*
X134459000Y-30380000D02*
X128927200Y-35911800D01*
D45*
X114300000Y-110490000D02*
X114300000Y-108800000D01*
X174015400Y-58618200D02*
X175571400Y-57062200D01*
X118939200Y-145551000D02*
X108911000Y-145551000D01*
D47*
X99000000Y-109420000D02*
X96499000Y-111921000D01*
D49*
%TO.N,3.3V*%
X167005000Y-105892600D02*
X166217600Y-105892600D01*
X163200000Y-89200000D02*
X161304554Y-91095446D01*
X125298200Y-84193601D02*
X135400001Y-84193601D01*
D48*
X115163600Y-52806600D02*
X117891600Y-52806600D01*
D49*
X184519000Y-147401000D02*
X185920000Y-146000000D01*
X188805000Y-114730000D02*
X182732182Y-108657182D01*
D45*
X181219000Y-119608182D02*
X181219000Y-117068182D01*
D49*
X159937608Y-113963608D02*
X157988000Y-112014000D01*
X154305000Y-80645000D02*
X156311600Y-82651600D01*
X182732182Y-108657182D02*
X169769582Y-108657182D01*
D48*
X136814600Y-61569600D02*
X129360000Y-54115000D01*
D49*
X185799000Y-145958182D02*
X188339000Y-145958182D01*
D48*
X149948900Y-80733900D02*
X149948900Y-79768700D01*
D47*
X142011400Y-84455000D02*
X142011400Y-101066600D01*
D48*
X158013400Y-79400400D02*
X158102300Y-79489300D01*
D49*
X170591801Y-81983801D02*
X169600000Y-80992000D01*
D47*
X145008600Y-71958200D02*
X151384000Y-78333600D01*
D48*
X156320565Y-85970035D02*
X154874529Y-84524000D01*
D49*
X174650400Y-116697500D02*
X175026700Y-116697500D01*
D48*
X154874529Y-84524000D02*
X153739000Y-84524000D01*
D49*
X184030400Y-147889600D02*
X184519000Y-147401000D01*
D47*
X145008600Y-54533800D02*
X147675600Y-54533800D01*
D48*
X140378600Y-84386000D02*
X137178000Y-84386000D01*
D49*
X149002000Y-112014000D02*
X149002000Y-109003000D01*
D47*
X149098000Y-80619600D02*
X149199600Y-80619600D01*
D49*
X178344200Y-120015000D02*
X180980000Y-120015000D01*
D47*
X163612200Y-93584400D02*
X166547800Y-96520000D01*
X149199600Y-80619600D02*
X150152100Y-81572100D01*
D48*
X137178000Y-84386000D02*
X135509000Y-82717000D01*
D49*
X161304554Y-91095446D02*
X160904554Y-90695446D01*
D48*
X140378600Y-84386000D02*
X141166000Y-84386000D01*
D47*
X148640800Y-81076800D02*
X145262600Y-84455000D01*
D48*
X153238200Y-79400400D02*
X151815800Y-77978000D01*
D47*
X164813201Y-90855800D02*
X164348800Y-90855800D01*
X149948900Y-79768700D02*
X148640800Y-81076800D01*
X151384000Y-78333600D02*
X149948900Y-79768700D01*
D49*
X157988000Y-112014000D02*
X149002000Y-112014000D01*
X169240200Y-82651600D02*
X169907999Y-81983801D01*
X161620200Y-91411092D02*
X161304554Y-91095446D01*
X169600000Y-90920000D02*
X167880000Y-89200000D01*
D48*
X117891600Y-52806600D02*
X119200000Y-54115000D01*
D49*
X154381500Y-118199500D02*
X174206500Y-118199500D01*
D47*
X164813201Y-93200000D02*
X164813201Y-94785401D01*
D49*
X173482000Y-147889600D02*
X184030400Y-147889600D01*
X174206500Y-118199500D02*
X175209200Y-119202200D01*
X135400001Y-84193601D02*
X136931400Y-85725000D01*
D47*
X145008600Y-54533800D02*
X145008600Y-71958200D01*
X145262600Y-84455000D02*
X142011400Y-84455000D01*
D48*
X153901929Y-79400400D02*
X158013400Y-79400400D01*
D49*
X181219000Y-119608182D02*
X181219000Y-120228182D01*
X175209200Y-119202200D02*
X175209200Y-146162400D01*
X161620200Y-93584400D02*
X161620200Y-91411092D01*
X149002000Y-109003000D02*
X141999000Y-102000000D01*
D48*
X153739000Y-84524000D02*
X149948900Y-80733900D01*
X150368000Y-61569600D02*
X136814600Y-61569600D01*
D49*
X159605000Y-80992000D02*
X158102300Y-79489300D01*
D48*
X141166000Y-84386000D02*
X141224000Y-84328000D01*
D49*
X169907999Y-81983801D02*
X170800000Y-81983801D01*
X135509000Y-82717000D02*
X126774801Y-82717000D01*
X149002000Y-112820000D02*
X154381500Y-118199500D01*
X175209200Y-146162400D02*
X173482000Y-147889600D01*
D47*
X142011400Y-101066600D02*
X142316200Y-101371400D01*
D49*
X169769582Y-108657182D02*
X167005000Y-105892600D01*
X156320565Y-86111457D02*
X156320565Y-85970035D01*
D47*
X164813201Y-90855800D02*
X164813201Y-93200000D01*
D49*
X170800000Y-81983801D02*
X170591801Y-81983801D01*
X149002000Y-112014000D02*
X149002000Y-112820000D01*
X164813201Y-104488201D02*
X164813201Y-94785401D01*
X160904554Y-90695446D02*
X156320565Y-86111457D01*
D47*
X164348800Y-90855800D02*
X161620200Y-93584400D01*
D49*
X156311600Y-82651600D02*
X169240200Y-82651600D01*
D48*
X153901929Y-79400400D02*
X153238200Y-79400400D01*
D49*
X119200000Y-54115000D02*
X119011400Y-54115000D01*
X174650400Y-116697500D02*
X159937608Y-116697500D01*
X166217600Y-105892600D02*
X164813201Y-104488201D01*
D47*
X148640800Y-81076800D02*
X149098000Y-80619600D01*
D49*
X126774801Y-82717000D02*
X125298200Y-84193601D01*
D47*
X147675600Y-54533800D02*
X147726400Y-54483000D01*
D49*
X169600000Y-80992000D02*
X159605000Y-80992000D01*
X164813201Y-94785401D02*
X166547800Y-96520000D01*
X167880000Y-89200000D02*
X163200000Y-89200000D01*
X136931400Y-85725000D02*
X139065000Y-85725000D01*
X175026700Y-116697500D02*
X178344200Y-120015000D01*
X119200000Y-54115000D02*
X129360000Y-54115000D01*
X180980000Y-120015000D02*
X181185000Y-119810000D01*
X159937608Y-116697500D02*
X159937608Y-113963608D01*
D47*
X161620200Y-93584400D02*
X163612200Y-93584400D01*
D48*
%TO.N,IN5*%
X169037000Y-73025000D02*
X169443400Y-73431400D01*
X154305000Y-73025000D02*
X169037000Y-73025000D01*
X169443400Y-76621400D02*
X169753400Y-76931400D01*
X169443400Y-73431400D02*
X169443400Y-76621400D01*
D49*
%TO.N,X1*%
X137464800Y-92405200D02*
X134721600Y-92405200D01*
X134721600Y-92405200D02*
X130822200Y-92405200D01*
X130822200Y-92405200D02*
X130516000Y-92099000D01*
X139065000Y-90805000D02*
X137464800Y-92405200D01*
%TO.N,X2*%
X136702800Y-95324000D02*
X136730400Y-95324000D01*
X134721600Y-97305200D02*
X130645200Y-97305200D01*
X134721600Y-97305200D02*
X136702800Y-95324000D01*
X136730400Y-95324000D02*
X138709400Y-93345000D01*
X130645200Y-97305200D02*
X130566800Y-97383600D01*
X138709400Y-93345000D02*
X139065000Y-93345000D01*
%TO.N,Net-(D2-A)*%
X163576000Y-122047000D02*
X163576000Y-138496000D01*
X163576000Y-138496000D02*
X164000000Y-138920000D01*
%TO.N,Net-(D4-A)*%
X166624000Y-136584000D02*
X169000000Y-138960000D01*
X166624000Y-122040000D02*
X166624000Y-136584000D01*
%TO.N,Net-(D1-A)*%
X160528000Y-137432000D02*
X159000000Y-138960000D01*
X160528000Y-122040000D02*
X160528000Y-137432000D01*
D45*
%TO.N,Net-(D6-K)*%
X127149000Y-38050000D02*
X127227200Y-37971800D01*
X131017617Y-44287183D02*
X135909400Y-39395400D01*
X129000000Y-44287183D02*
X131017617Y-44287183D01*
X127149000Y-42436183D02*
X127149000Y-38050000D01*
X129151490Y-43764200D02*
X129229200Y-43764200D01*
X129000000Y-44287183D02*
X127149000Y-42436183D01*
D49*
%TO.N,Net-(D9-A)*%
X131701000Y-111000000D02*
X131191000Y-110490000D01*
X133985000Y-116485000D02*
X136450000Y-118950000D01*
X131701000Y-111000000D02*
X133985000Y-113284000D01*
X131191000Y-110490000D02*
X116840000Y-110490000D01*
X133985000Y-113284000D02*
X133985000Y-116485000D01*
D45*
%TO.N,LOAD1*%
X100250000Y-131830000D02*
X100250000Y-131750000D01*
X99290000Y-131750000D02*
X98750000Y-131210000D01*
X104000000Y-135580000D02*
X100250000Y-131830000D01*
X104000000Y-135580000D02*
X104020000Y-135580000D01*
X100250000Y-131750000D02*
X99290000Y-131750000D01*
X104020000Y-135580000D02*
X111940000Y-143500000D01*
%TO.N,LOAD2*%
X107500000Y-135155000D02*
X107500000Y-135580000D01*
X117020000Y-143500000D02*
X114437000Y-143500000D01*
X114437000Y-143500000D02*
X114427000Y-143510000D01*
X114427000Y-142507000D02*
X107500000Y-135580000D01*
X111505000Y-131150000D02*
X107500000Y-135155000D01*
X114427000Y-143510000D02*
X114427000Y-142507000D01*
D49*
%TO.N,Net-(D10-A)*%
X111051400Y-110594200D02*
X110947200Y-110490000D01*
X118950000Y-118750000D02*
X118950000Y-114160000D01*
X111051400Y-112011400D02*
X111051400Y-110594200D01*
X111051400Y-112011400D02*
X117790000Y-118750000D01*
X118950000Y-114160000D02*
X119920000Y-113190000D01*
X117790000Y-118750000D02*
X118950000Y-118750000D01*
D45*
%TO.N,485_A*%
X189000000Y-101005000D02*
X181165000Y-101005000D01*
X169815000Y-101065000D02*
X169600000Y-101280000D01*
X169280000Y-101600000D02*
X169600000Y-101280000D01*
X176902000Y-101065000D02*
X169815000Y-101065000D01*
X181000000Y-100840000D02*
X177127000Y-100840000D01*
X177127000Y-100840000D02*
X176902000Y-101065000D01*
X166547800Y-101600000D02*
X169280000Y-101600000D01*
X181165000Y-101005000D02*
X181000000Y-100840000D01*
D49*
X166547800Y-101600000D02*
X167132000Y-101600000D01*
D45*
%TO.N,485_B*%
X166547800Y-99060000D02*
X169940000Y-99060000D01*
X176200000Y-95680000D02*
X174000000Y-95680000D01*
X179240000Y-95760000D02*
X177400000Y-93920000D01*
X181165000Y-95925000D02*
X181000000Y-95760000D01*
X179240000Y-95760000D02*
X178560000Y-95760000D01*
X177400000Y-93920000D02*
X177400000Y-94480000D01*
X178000000Y-95680000D02*
X176200000Y-95680000D01*
X177400000Y-95080000D02*
X178000000Y-95680000D01*
X189000000Y-95925000D02*
X181165000Y-95925000D01*
X178480000Y-95680000D02*
X178000000Y-95680000D01*
X178560000Y-95760000D02*
X178480000Y-95680000D01*
X177400000Y-94480000D02*
X176200000Y-95680000D01*
X181000000Y-95760000D02*
X179240000Y-95760000D01*
X169940000Y-99060000D02*
X173400000Y-95600000D01*
X177400000Y-93920000D02*
X177400000Y-95080000D01*
D49*
%TO.N,DIG_IN3*%
X158500000Y-30500000D02*
X158500000Y-40876000D01*
X158500000Y-40876000D02*
X161520000Y-43896000D01*
D48*
%TO.N,AN_IN2*%
X179749600Y-32201000D02*
X185826400Y-38277800D01*
X173740000Y-30500000D02*
X175441000Y-32201000D01*
X175441000Y-32201000D02*
X179749600Y-32201000D01*
%TO.N,AN_IN1*%
X181082400Y-30500000D02*
X188969000Y-38386600D01*
X178820000Y-30500000D02*
X181082400Y-30500000D01*
D49*
%TO.N,DIG_IN2*%
X159619000Y-37181000D02*
X163600000Y-33200000D01*
X163600000Y-33200000D02*
X163580000Y-33180000D01*
X159619000Y-38947000D02*
X159619000Y-37181000D01*
X161520000Y-40848000D02*
X159619000Y-38947000D01*
X163580000Y-33180000D02*
X163580000Y-30500000D01*
%TO.N,DIG_IN1*%
X168660000Y-30660000D02*
X168660000Y-30500000D01*
X161520000Y-37800000D02*
X168660000Y-30660000D01*
%TO.N,DIG_IN4*%
X157749000Y-34829000D02*
X157749000Y-43194000D01*
X153420000Y-30500000D02*
X157749000Y-34829000D01*
X157749000Y-43194000D02*
X161520000Y-46965000D01*
D45*
%TO.N,LOAD3_NA*%
X118950000Y-140350000D02*
X122100000Y-143500000D01*
X118950000Y-130950000D02*
X118950000Y-140350000D01*
%TO.N,LOAD3_C*%
X125000000Y-116800000D02*
X125000000Y-141320000D01*
X125000000Y-141320000D02*
X127180000Y-143500000D01*
%TO.N,LOAD4_NA*%
X136450000Y-142610000D02*
X137340000Y-143500000D01*
X136450000Y-131150000D02*
X136450000Y-142610000D01*
%TO.N,LOAD4_NF*%
X148500000Y-131200000D02*
X148500000Y-142500000D01*
X148500000Y-142500000D02*
X147500000Y-143500000D01*
%TO.N,LOAD3_NF*%
X131000000Y-132461000D02*
X132260000Y-133721000D01*
X131000000Y-131000000D02*
X131000000Y-132461000D01*
X132260000Y-133721000D02*
X132260000Y-143500000D01*
%TO.N,LOAD4_C*%
X142500000Y-143420000D02*
X142420000Y-143500000D01*
X142500000Y-117000000D02*
X142500000Y-143420000D01*
D49*
%TO.N,PGD*%
X154305000Y-60325000D02*
X158013400Y-60325000D01*
X160045400Y-62357000D02*
X161823400Y-62357000D01*
X158013400Y-60325000D02*
X160045400Y-62357000D01*
%TO.N,PGC*%
X154305000Y-62865000D02*
X158013400Y-62865000D01*
X160045400Y-64897000D02*
X161823400Y-64897000D01*
X158013400Y-62865000D02*
X160045400Y-64897000D01*
D48*
%TO.N,MCLR*%
X157886400Y-51079400D02*
X157886400Y-54483000D01*
X149825200Y-50038000D02*
X150089800Y-49773400D01*
X150089800Y-49773400D02*
X156589800Y-49773400D01*
X151283000Y-54483000D02*
X149000000Y-52200000D01*
X157886400Y-54483000D02*
X162814000Y-54483000D01*
X157886400Y-54483000D02*
X151283000Y-54483000D01*
X156589800Y-49773400D02*
X156589800Y-49782800D01*
X149000000Y-52200000D02*
X140700000Y-52200000D01*
X139065000Y-60325000D02*
X140701400Y-58688600D01*
X156589800Y-49782800D02*
X157886400Y-51079400D01*
X140701400Y-58688600D02*
X140700000Y-58687200D01*
X162814000Y-54483000D02*
X162915600Y-54584600D01*
X140700000Y-58687200D02*
X140700000Y-52200000D01*
%TO.N,RTC_BAT*%
X108788200Y-78448946D02*
X108788200Y-76885800D01*
X115250000Y-62250000D02*
X114500000Y-61500000D01*
X114500000Y-63203400D02*
X113492200Y-64211200D01*
X108788200Y-78448946D02*
X109688854Y-78448946D01*
X111861600Y-73812400D02*
X111861600Y-65888400D01*
X114500000Y-65500000D02*
X115250000Y-64750000D01*
X112250000Y-65500000D02*
X111861600Y-65888400D01*
X114500000Y-61500000D02*
X114500000Y-63203400D01*
X115250000Y-64750000D02*
X115250000Y-62250000D01*
X108788200Y-76885800D02*
X111861600Y-73812400D01*
X112250000Y-65500000D02*
X114500000Y-65500000D01*
D49*
%TO.N,Net-(Q1-G)*%
X98750000Y-119600000D02*
X98750000Y-128670000D01*
X101500000Y-116850000D02*
X98750000Y-119600000D01*
%TO.N,Net-(Q2-G)*%
X111450000Y-128555000D02*
X111505000Y-128610000D01*
X111450000Y-126695200D02*
X110947200Y-126192400D01*
X102199000Y-126721000D02*
X102199000Y-126699000D01*
X111505000Y-128610000D02*
X104088000Y-128610000D01*
X103250000Y-118000000D02*
X103850000Y-118000000D01*
X104088000Y-128610000D02*
X102199000Y-126721000D01*
X110947200Y-126192400D02*
X110947200Y-124815600D01*
X100250000Y-124750000D02*
X100250000Y-121000000D01*
X102199000Y-126699000D02*
X100250000Y-124750000D01*
X111450000Y-126695200D02*
X111450000Y-128555000D01*
X100250000Y-121000000D02*
X103250000Y-118000000D01*
X103850000Y-118000000D02*
X105000000Y-116850000D01*
%TO.N,Net-(Q3-B)*%
X116677000Y-107801000D02*
X115500000Y-108978000D01*
X116989000Y-107801000D02*
X120545000Y-107801000D01*
X116989000Y-107801000D02*
X116677000Y-107801000D01*
X121690000Y-106500000D02*
X120389000Y-107801000D01*
X120545000Y-107801000D02*
X121615200Y-106730800D01*
X115500000Y-111690000D02*
X115570000Y-111760000D01*
X120389000Y-107801000D02*
X116989000Y-107801000D01*
X115500000Y-108978000D02*
X115500000Y-111690000D01*
%TO.N,Net-(Q4-B)*%
X109500000Y-111582800D02*
X109500000Y-106830000D01*
X109677200Y-111760000D02*
X109500000Y-111582800D01*
X109500000Y-106830000D02*
X109170000Y-106500000D01*
D48*
%TO.N,LED1*%
X149653000Y-90250000D02*
X149653000Y-109474000D01*
X151259001Y-111080001D02*
X159728001Y-111080001D01*
X154305000Y-88265000D02*
X151638000Y-88265000D01*
X151638000Y-88265000D02*
X149653000Y-90250000D01*
X149653000Y-109474000D02*
X151259001Y-111080001D01*
X159728001Y-111080001D02*
X160528000Y-111880000D01*
%TO.N,LED2*%
X150204000Y-109220000D02*
X151347000Y-110363000D01*
X163576000Y-110998000D02*
X163576000Y-111887000D01*
X162941000Y-110363000D02*
X163576000Y-110998000D01*
X150204000Y-91821000D02*
X150204000Y-109220000D01*
X151347000Y-110363000D02*
X162941000Y-110363000D01*
X151220000Y-90805000D02*
X150204000Y-91821000D01*
X154305000Y-90805000D02*
X151220000Y-90805000D01*
%TO.N,LED3*%
X166624000Y-110253232D02*
X166624000Y-111880000D01*
X151511000Y-93345000D02*
X150755000Y-94101000D01*
X166156768Y-109786000D02*
X166624000Y-110253232D01*
X150755000Y-94101000D02*
X150755000Y-108839000D01*
X154305000Y-93345000D02*
X151511000Y-93345000D01*
X151702000Y-109786000D02*
X166156768Y-109786000D01*
X150755000Y-108839000D02*
X151702000Y-109786000D01*
%TO.N,DIP1*%
X129360000Y-64717000D02*
X130048000Y-65405000D01*
X130048000Y-65405000D02*
X139065000Y-65405000D01*
X129360000Y-61735000D02*
X129360000Y-64717000D01*
%TO.N,DIP2*%
X127048000Y-65405000D02*
X128318000Y-66675000D01*
X126820000Y-65177000D02*
X127048000Y-65405000D01*
X126820000Y-61735000D02*
X126820000Y-65177000D01*
X137795000Y-66675000D02*
X139065000Y-67945000D01*
X128318000Y-66675000D02*
X137795000Y-66675000D01*
%TO.N,DIP3*%
X139065000Y-70485000D02*
X136101000Y-67521000D01*
X124280000Y-61735000D02*
X124280000Y-65173000D01*
X126164000Y-67521000D02*
X124048000Y-65405000D01*
X136101000Y-67521000D02*
X126164000Y-67521000D01*
X124280000Y-65173000D02*
X124048000Y-65405000D01*
%TO.N,DIP4*%
X121048000Y-65325000D02*
X123795000Y-68072000D01*
X139065000Y-73025000D02*
X137922000Y-73025000D01*
D49*
X121685000Y-61735000D02*
X121740000Y-61735000D01*
D48*
X121740000Y-64633000D02*
X121048000Y-65325000D01*
X121740000Y-61735000D02*
X121740000Y-64633000D01*
X137922000Y-73025000D02*
X132969000Y-68072000D01*
X121000000Y-65015000D02*
X121000000Y-65500000D01*
X123795000Y-68072000D02*
X132969000Y-68072000D01*
D45*
%TO.N,DIP5*%
X119200000Y-61735000D02*
X119000000Y-61735000D01*
D48*
X118048000Y-63435000D02*
X118048000Y-65325000D01*
X118055000Y-65420000D02*
X118000000Y-65420000D01*
X119200000Y-61735000D02*
X119200000Y-62283000D01*
X139065000Y-75565000D02*
X132123000Y-68623000D01*
X119200000Y-62283000D02*
X118048000Y-63435000D01*
X118048000Y-65325000D02*
X121167000Y-68444000D01*
X132123000Y-68623000D02*
X121346000Y-68623000D01*
X121346000Y-68623000D02*
X121167000Y-68444000D01*
D49*
%TO.N,OUT3*%
X138020000Y-105000000D02*
X139065000Y-106045000D01*
X118810000Y-106500000D02*
X120310000Y-105000000D01*
X120310000Y-105000000D02*
X138020000Y-105000000D01*
%TO.N,OUT1*%
X139065000Y-98577400D02*
X139065000Y-98425000D01*
X105690000Y-102500000D02*
X135142400Y-102500000D01*
X135142400Y-102500000D02*
X139065000Y-98577400D01*
X101500000Y-106690000D02*
X105690000Y-102500000D01*
%TO.N,OUT2*%
X105000000Y-106690000D02*
X107891000Y-103799000D01*
X138887200Y-101142800D02*
X139065000Y-100965000D01*
X135316600Y-103799000D02*
X134112000Y-103799000D01*
X107891000Y-103799000D02*
X134112000Y-103799000D01*
X137972800Y-101142800D02*
X138887200Y-101142800D01*
X137972800Y-101142800D02*
X135316600Y-103799000D01*
%TO.N,OUT4*%
X133629400Y-108585000D02*
X139065000Y-108585000D01*
X131775200Y-106730800D02*
X133629400Y-108585000D01*
D48*
%TO.N,IN1*%
X171125600Y-78683400D02*
X172008800Y-77800200D01*
X176039232Y-64465200D02*
X179925432Y-64465200D01*
X154305000Y-78105000D02*
X154883400Y-78683400D01*
X172008800Y-77800200D02*
X172008800Y-68495632D01*
X154883400Y-78683400D02*
X171125600Y-78683400D01*
X184489400Y-59901232D02*
X184489400Y-41909200D01*
X179925432Y-64465200D02*
X184489400Y-59901232D01*
X184489400Y-41909200D02*
X181640400Y-39060200D01*
X172008800Y-68495632D02*
X176039232Y-64465200D01*
%TO.N,IN2*%
X181640400Y-44648200D02*
X183938400Y-46946200D01*
X183938400Y-46946200D02*
X183938400Y-59673000D01*
X170250871Y-78132400D02*
X171386500Y-76996771D01*
X171386500Y-76996771D02*
X171386500Y-68338700D01*
X175895000Y-63830200D02*
X171386500Y-68338700D01*
X154305000Y-75565000D02*
X156872400Y-78132400D01*
X156872400Y-78132400D02*
X170250871Y-78132400D01*
X179781200Y-63830200D02*
X175895000Y-63830200D01*
X183938400Y-59673000D02*
X179781200Y-63830200D01*
%TO.N,IN3*%
X183387400Y-59343903D02*
X183387400Y-52110200D01*
X163753800Y-67945000D02*
X169748200Y-61950600D01*
X169748200Y-61950600D02*
X180780703Y-61950600D01*
X180780703Y-61950600D02*
X183387400Y-59343903D01*
X183387400Y-52110200D02*
X181640400Y-50363200D01*
X154305000Y-67945000D02*
X163753800Y-67945000D01*
%TO.N,IN4*%
X181635400Y-56078200D02*
X182836400Y-57279200D01*
X182836400Y-59115671D02*
X180763471Y-61188600D01*
X164338000Y-66268600D02*
X155168600Y-66268600D01*
X169418000Y-61188600D02*
X164338000Y-66268600D01*
X155168600Y-66268600D02*
X154305000Y-65405000D01*
X180763471Y-61188600D02*
X169418000Y-61188600D01*
X182836400Y-57279200D02*
X182836400Y-59115671D01*
D49*
%TO.N,485_RX*%
X154305000Y-95885000D02*
X158292800Y-95885000D01*
X158292800Y-95885000D02*
X158927800Y-96520000D01*
%TO.N,485_TX*%
X154305000Y-98425000D02*
X154305000Y-98817092D01*
X154305000Y-98817092D02*
X158927800Y-103439892D01*
X158927800Y-103439892D02*
X158927800Y-104140000D01*
%TO.N,485_DE_RE*%
X156982002Y-92405200D02*
X156895800Y-92405200D01*
X158927800Y-101600000D02*
X158927800Y-99060000D01*
X156895800Y-92405200D02*
X156895800Y-88315800D01*
X160228800Y-97759000D02*
X160228800Y-95651998D01*
X156895800Y-88315800D02*
X154305000Y-85725000D01*
X158927800Y-99060000D02*
X160228800Y-97759000D01*
X160228800Y-95651998D02*
X156982002Y-92405200D01*
D48*
%TO.N,MISO*%
X181275280Y-109708182D02*
X169347382Y-109708182D01*
X169347382Y-109708182D02*
X166217600Y-106578400D01*
X187198000Y-125103818D02*
X187198000Y-136939182D01*
X166217600Y-106578400D02*
X158242000Y-106578400D01*
X190006000Y-118471000D02*
X190006000Y-122366529D01*
X155168600Y-103505000D02*
X154305000Y-103505000D01*
X187198000Y-136939182D02*
X178179000Y-145958182D01*
X190006000Y-122366529D02*
X189935289Y-122366529D01*
X188805000Y-117270000D02*
X188805000Y-117237902D01*
X158242000Y-106578400D02*
X155168600Y-103505000D01*
X188805000Y-117270000D02*
X190006000Y-118471000D01*
X188805000Y-117237902D02*
X181275280Y-109708182D01*
X189935289Y-122366529D02*
X187198000Y-125103818D01*
D49*
%TO.N,Net-(U10-RC3)*%
X141005000Y-103505000D02*
X147701000Y-110201000D01*
X147701000Y-110201000D02*
X147701000Y-113919000D01*
X139065000Y-103505000D02*
X141005000Y-103505000D01*
D48*
%TO.N,MOSI*%
X170254400Y-112190000D02*
X181185000Y-112190000D01*
X154305000Y-100965000D02*
X152146000Y-100965000D01*
X151306000Y-101805000D02*
X151306000Y-105205000D01*
X151306000Y-105205000D02*
X153416000Y-107315000D01*
X153416000Y-107315000D02*
X156845000Y-107315000D01*
X165811200Y-107746800D02*
X170254400Y-112190000D01*
X152146000Y-100965000D02*
X151306000Y-101805000D01*
X185920000Y-125680000D02*
X185920000Y-117625110D01*
X185920000Y-117625110D02*
X181185000Y-112890110D01*
X157276800Y-107746800D02*
X165811200Y-107746800D01*
X181185000Y-112890110D02*
X181185000Y-112190000D01*
X156845000Y-107315000D02*
X157276800Y-107746800D01*
%TO.N,CS_ETH*%
X182626000Y-123894000D02*
X180840000Y-125680000D01*
X165735000Y-108585000D02*
X166497000Y-109347000D01*
X181827260Y-116046500D02*
X182626000Y-116845240D01*
X154305000Y-108585000D02*
X165735000Y-108585000D01*
X173196500Y-116046500D02*
X181827260Y-116046500D01*
X182626000Y-116845240D02*
X182626000Y-123894000D01*
X166497000Y-109347000D02*
X173196500Y-116046500D01*
D49*
%TO.N,SCLK*%
X157861000Y-113919000D02*
X157861000Y-115825000D01*
X159484500Y-117448500D02*
X174715626Y-117448500D01*
D48*
X181185000Y-114730000D02*
X181360702Y-114730000D01*
D49*
X174715626Y-117448500D02*
X176131363Y-118864237D01*
X157861000Y-115825000D02*
X159484500Y-117448500D01*
X183380000Y-125680000D02*
X184404000Y-124656000D01*
X184404000Y-124656000D02*
X184404000Y-117475000D01*
X181659000Y-114730000D02*
X181185000Y-114730000D01*
X182499000Y-128016000D02*
X183380000Y-127135000D01*
X183380000Y-127135000D02*
X183380000Y-125680000D01*
X184404000Y-117475000D02*
X181659000Y-114730000D01*
X176131363Y-118864237D02*
X176131363Y-126562363D01*
X183259000Y-125638182D02*
X183259000Y-126068182D01*
X176131363Y-126562363D02*
X177585000Y-128016000D01*
X177585000Y-128016000D02*
X182499000Y-128016000D01*
D50*
%TO.N,CS_MEM1*%
X185801000Y-116006000D02*
X185801000Y-115189000D01*
D48*
X185801000Y-115013134D02*
X181776866Y-110989000D01*
X156540200Y-106045000D02*
X154305000Y-106045000D01*
X188805000Y-119010000D02*
X188805000Y-119810000D01*
X157683200Y-107188000D02*
X156540200Y-106045000D01*
X169832632Y-110989000D02*
X166031632Y-107188000D01*
X166031632Y-107188000D02*
X157683200Y-107188000D01*
X181776866Y-110989000D02*
X169832632Y-110989000D01*
X185801000Y-116006000D02*
X185801000Y-115013134D01*
X185801000Y-116006000D02*
X188805000Y-119010000D01*
%TO.N,RTC_CE*%
X139065000Y-83185000D02*
X135382000Y-79502000D01*
X135382000Y-74422000D02*
X133705600Y-72745600D01*
X114406600Y-72745600D02*
X113492200Y-71831200D01*
X133705600Y-72745600D02*
X114406600Y-72745600D01*
X135382000Y-79502000D02*
X135382000Y-74422000D01*
%TO.N,RTC_DAT*%
X136144000Y-77724000D02*
X136144000Y-74312232D01*
X132037368Y-70205600D02*
X114406600Y-70205600D01*
X114406600Y-70205600D02*
X113492200Y-69291200D01*
X139065000Y-80645000D02*
X136144000Y-77724000D01*
X136144000Y-74312232D02*
X132037368Y-70205600D01*
%TO.N,RTC_CLK*%
X116337000Y-69596000D02*
X113492200Y-66751200D01*
X139065000Y-78105000D02*
X136906000Y-75946000D01*
X136906000Y-75946000D02*
X136906000Y-74295000D01*
X132207000Y-69596000D02*
X116337000Y-69596000D01*
X136906000Y-74295000D02*
X132207000Y-69596000D01*
D49*
%TO.N,Net-(U9-X2)*%
X102692200Y-69418200D02*
X105745200Y-69418200D01*
X105745200Y-69418200D02*
X105872200Y-69291200D01*
D45*
%TO.N,12VDC_IN*%
X101066600Y-43027600D02*
X104948688Y-43027600D01*
X104948688Y-43027600D02*
X108915200Y-39061088D01*
X108915200Y-39061088D02*
X108915200Y-32105600D01*
D48*
%TO.N,IN6*%
X154305000Y-70485000D02*
X165389800Y-70485000D01*
X165389800Y-70485000D02*
X169443400Y-66431400D01*
X169443400Y-66431400D02*
X169443400Y-69741400D01*
X169443400Y-69741400D02*
X169253400Y-69931400D01*
D49*
%TO.N,Net-(U9-X1)*%
X105745200Y-66878200D02*
X105872200Y-66751200D01*
X102692200Y-66878200D02*
X105745200Y-66878200D01*
%TO.N,12VDC_OUTs*%
X125780158Y-113190000D02*
X130080000Y-113190000D01*
X133101000Y-120901000D02*
X130950000Y-118750000D01*
X138401000Y-118269158D02*
X143386158Y-113284000D01*
X107500000Y-125420000D02*
X104000000Y-125420000D01*
X104000000Y-125420000D02*
X104000000Y-122750000D01*
X138401000Y-119475288D02*
X136975288Y-120901000D01*
X130950000Y-114060000D02*
X130080000Y-113190000D01*
X107500000Y-125420000D02*
X109761000Y-123159000D01*
X104000000Y-122750000D02*
X103500000Y-122250000D01*
X138401000Y-118269158D02*
X138401000Y-119475288D01*
X117017288Y-123159000D02*
X122999000Y-117177288D01*
X122999000Y-115971158D02*
X125780158Y-113190000D01*
X136975288Y-120901000D02*
X133101000Y-120901000D01*
X144145000Y-114645000D02*
X148450000Y-118950000D01*
X144145000Y-113284000D02*
X144145000Y-114645000D01*
X143386158Y-113284000D02*
X144145000Y-113284000D01*
X122999000Y-117177288D02*
X122999000Y-115971158D01*
X130950000Y-118750000D02*
X130950000Y-114060000D01*
X109761000Y-123159000D02*
X117017288Y-123159000D01*
%TO.N,Net-(J7-Pin_1)*%
X177095000Y-103775000D02*
X177400000Y-104080000D01*
X174000000Y-103775000D02*
X177095000Y-103775000D01*
%TO.N,Net-(U9-VCC2)*%
X105003600Y-56210200D02*
X104114600Y-57099200D01*
X104114600Y-60847600D02*
X103926000Y-61036200D01*
X104114600Y-57099200D02*
X104114600Y-60847600D01*
X103926000Y-61036200D02*
X103926000Y-62265000D01*
X103926000Y-62265000D02*
X105872200Y-64211200D01*
X105003600Y-52806600D02*
X105003600Y-56210200D01*
D45*
X104140000Y-57073800D02*
X104114600Y-57099200D01*
%TO.N,Net-(U1-FB)*%
X146369400Y-38023180D02*
X146659600Y-37732980D01*
X130627200Y-37971800D02*
X132602067Y-37971800D01*
X134721600Y-35852267D02*
X134721600Y-32842200D01*
X134721600Y-32842200D02*
X135432800Y-32131000D01*
X146369400Y-43013000D02*
X145008600Y-44373800D01*
X146659600Y-37732980D02*
X143171820Y-37732980D01*
X132602067Y-37971800D02*
X134721600Y-35852267D01*
X143171820Y-37732980D02*
X141509400Y-39395400D01*
X146267800Y-38124780D02*
X146659600Y-37732980D01*
X135432800Y-32131000D02*
X141478000Y-32131000D01*
X146369400Y-41656000D02*
X146369400Y-38023180D01*
X146369400Y-41656000D02*
X146369400Y-43013000D01*
X141478000Y-32131000D02*
X141509400Y-32162400D01*
X141509400Y-32162400D02*
X141509400Y-39395400D01*
D48*
%TO.N,Net-(R11-Pad1)*%
X188750000Y-61920000D02*
X188750000Y-48765600D01*
X188750000Y-64284800D02*
X179603400Y-73431400D01*
X188750000Y-48765600D02*
X188969000Y-48546600D01*
X188750000Y-61920000D02*
X188750000Y-64284800D01*
%TO.N,Net-(R18-Pad1)*%
X185826400Y-61843600D02*
X185750000Y-61920000D01*
X185580000Y-61920000D02*
X181068600Y-66431400D01*
X181068600Y-66431400D02*
X179603400Y-66431400D01*
X185826400Y-48437800D02*
X185826400Y-61843600D01*
X179807400Y-65938400D02*
X179314400Y-66431400D01*
X185750000Y-61920000D02*
X185580000Y-61920000D01*
D49*
%TO.N,Net-(R6-Pad2)*%
X172760200Y-37800000D02*
X174020400Y-39060200D01*
X171080000Y-37800000D02*
X172760200Y-37800000D01*
D48*
X174015400Y-39065200D02*
X174020400Y-39060200D01*
D49*
%TO.N,Net-(R7-Pad2)*%
X174020400Y-43788400D02*
X174020400Y-44648200D01*
X171080000Y-40848000D02*
X174020400Y-43788400D01*
D48*
X174020400Y-44648200D02*
X174020400Y-44353400D01*
D49*
%TO.N,Net-(R8-Pad2)*%
X172381000Y-48723800D02*
X174020400Y-50363200D01*
X171080000Y-43896000D02*
X172381000Y-45197000D01*
X172381000Y-45197000D02*
X172381000Y-48723800D01*
%TO.N,Net-(R9-Pad2)*%
X171080000Y-50480000D02*
X171080000Y-46965000D01*
X172600000Y-54662800D02*
X172600000Y-52000000D01*
X172600000Y-52000000D02*
X171080000Y-50480000D01*
X174015400Y-56078200D02*
X172600000Y-54662800D01*
%TD*%
%TA.AperFunction,Conductor*%
%TO.N,GND*%
G36*
X98352595Y-115380586D02*
G01*
X98352594Y-115380586D01*
X98286291Y-118430526D01*
X98265154Y-118497122D01*
X98235205Y-118528149D01*
X98152781Y-118588034D01*
X98152779Y-118588036D01*
X98152778Y-118588036D01*
X98008028Y-118732786D01*
X97887715Y-118898386D01*
X97794781Y-119080776D01*
X97731522Y-119275465D01*
X97699500Y-119477648D01*
X97699500Y-119682351D01*
X97731522Y-119884534D01*
X97794781Y-120079223D01*
X97887713Y-120261610D01*
X97975819Y-120382877D01*
X97999298Y-120448681D01*
X97999500Y-120455761D01*
X97999500Y-127093000D01*
X97979815Y-127160039D01*
X97927011Y-127205794D01*
X97875501Y-127217000D01*
X97702130Y-127217000D01*
X97702123Y-127217001D01*
X97642516Y-127223408D01*
X97507671Y-127273702D01*
X97507664Y-127273706D01*
X97392455Y-127359952D01*
X97392452Y-127359955D01*
X97306206Y-127475164D01*
X97306202Y-127475171D01*
X97255908Y-127610017D01*
X97249501Y-127669616D01*
X97249500Y-127669635D01*
X97249500Y-129670370D01*
X97249501Y-129670376D01*
X97255908Y-129729983D01*
X97306202Y-129864828D01*
X97306206Y-129864835D01*
X97392452Y-129980044D01*
X97392455Y-129980047D01*
X97507664Y-130066293D01*
X97507669Y-130066296D01*
X97535539Y-130076690D01*
X97591473Y-130118561D01*
X97615891Y-130184024D01*
X97601040Y-130252298D01*
X97592525Y-130265759D01*
X97459783Y-130448461D01*
X97355950Y-130652244D01*
X97285278Y-130869750D01*
X97285278Y-130869753D01*
X97249500Y-131095646D01*
X97249500Y-131324353D01*
X97285278Y-131550246D01*
X97285278Y-131550249D01*
X97355950Y-131767755D01*
X97446015Y-131944517D01*
X97459783Y-131971538D01*
X97594214Y-132156566D01*
X97755934Y-132318286D01*
X97940962Y-132452717D01*
X98144742Y-132556548D01*
X98144744Y-132556549D01*
X98362251Y-132627221D01*
X98362252Y-132627221D01*
X98362255Y-132627222D01*
X98588146Y-132663000D01*
X98855079Y-132663000D01*
X98856492Y-132663215D01*
X98857211Y-132663018D01*
X98862765Y-132664172D01*
X98892055Y-132668641D01*
X98897377Y-132670303D01*
X98998164Y-132712051D01*
X99088579Y-132730035D01*
X99094873Y-132732002D01*
X99118660Y-132747874D01*
X99143998Y-132761128D01*
X99146191Y-132763299D01*
X102492534Y-136159587D01*
X102514690Y-136190319D01*
X102631132Y-136418848D01*
X102779201Y-136622649D01*
X102779205Y-136622654D01*
X102957345Y-136800794D01*
X102957350Y-136800798D01*
X103161153Y-136948869D01*
X103161155Y-136948870D01*
X103362238Y-137051326D01*
X103394269Y-137074780D01*
X110184113Y-143965965D01*
X110215560Y-144020900D01*
X110231394Y-144079993D01*
X110321714Y-144298045D01*
X110321719Y-144298056D01*
X110378633Y-144396632D01*
X110439727Y-144502450D01*
X110439729Y-144502453D01*
X110439730Y-144502454D01*
X110583406Y-144689697D01*
X110583412Y-144689704D01*
X110750295Y-144856587D01*
X110750302Y-144856593D01*
X110770510Y-144872099D01*
X110937550Y-145000273D01*
X111068918Y-145076118D01*
X111141943Y-145118280D01*
X111141948Y-145118282D01*
X111141951Y-145118284D01*
X111360007Y-145208606D01*
X111587986Y-145269693D01*
X111821989Y-145300500D01*
X111821996Y-145300500D01*
X112058004Y-145300500D01*
X112058011Y-145300500D01*
X112292014Y-145269693D01*
X112513485Y-145210349D01*
X112546220Y-145206129D01*
X116493885Y-145227240D01*
X116525303Y-145231461D01*
X116667986Y-145269693D01*
X116901989Y-145300500D01*
X116901996Y-145300500D01*
X117138004Y-145300500D01*
X117138011Y-145300500D01*
X117372014Y-145269693D01*
X117494081Y-145236985D01*
X117526825Y-145232763D01*
X121677333Y-145254959D01*
X121708752Y-145259180D01*
X121747986Y-145269693D01*
X121981989Y-145300500D01*
X121981996Y-145300500D01*
X122218004Y-145300500D01*
X122218011Y-145300500D01*
X122452014Y-145269693D01*
X122474677Y-145263620D01*
X122507424Y-145259397D01*
X126921626Y-145283003D01*
X126937113Y-145284059D01*
X127061989Y-145300500D01*
X127298004Y-145300500D01*
X127298011Y-145300500D01*
X127402656Y-145286723D01*
X127419482Y-145285665D01*
X148494562Y-145398366D01*
X148799998Y-145400000D01*
X148799998Y-145399999D01*
X148800000Y-145400000D01*
X158555549Y-140327114D01*
X158624105Y-140313651D01*
X158651073Y-140319200D01*
X158672041Y-140326013D01*
X158672044Y-140326013D01*
X158672049Y-140326015D01*
X158889778Y-140360500D01*
X158889779Y-140360500D01*
X159110221Y-140360500D01*
X159110222Y-140360500D01*
X159327951Y-140326015D01*
X159537606Y-140257895D01*
X159664822Y-140193074D01*
X159718352Y-140179592D01*
X163202675Y-140102162D01*
X163261723Y-140115647D01*
X163462388Y-140217893D01*
X163462396Y-140217896D01*
X163567221Y-140251955D01*
X163672049Y-140286015D01*
X163889778Y-140320500D01*
X163889779Y-140320500D01*
X164110221Y-140320500D01*
X164110222Y-140320500D01*
X164327951Y-140286015D01*
X164537606Y-140217895D01*
X164734022Y-140117815D01*
X164773195Y-140089354D01*
X164838999Y-140065874D01*
X164843273Y-140065705D01*
X167800000Y-140000000D01*
X167800000Y-139999998D01*
X167816349Y-139983440D01*
X167819953Y-139971582D01*
X167873185Y-139926326D01*
X167942434Y-139917035D01*
X168005714Y-139946657D01*
X168011313Y-139951920D01*
X168087636Y-140028243D01*
X168087641Y-140028247D01*
X168207938Y-140115647D01*
X168265978Y-140157815D01*
X168394375Y-140223237D01*
X168462393Y-140257895D01*
X168462396Y-140257896D01*
X168548937Y-140286014D01*
X168672049Y-140326015D01*
X168889778Y-140360500D01*
X168889779Y-140360500D01*
X169110221Y-140360500D01*
X169110222Y-140360500D01*
X169327951Y-140326015D01*
X169537606Y-140257895D01*
X169734022Y-140157815D01*
X169912365Y-140028242D01*
X170068242Y-139872365D01*
X170197815Y-139694022D01*
X170297895Y-139497606D01*
X170366015Y-139287951D01*
X170400500Y-139070222D01*
X170400500Y-138849778D01*
X170366015Y-138632049D01*
X170297895Y-138422394D01*
X170297895Y-138422393D01*
X170263237Y-138354375D01*
X170197815Y-138225978D01*
X170181260Y-138203192D01*
X170068247Y-138047641D01*
X170068243Y-138047636D01*
X169912363Y-137891756D01*
X169912358Y-137891752D01*
X169734025Y-137762187D01*
X169734024Y-137762186D01*
X169734022Y-137762185D01*
X169671096Y-137730122D01*
X169537606Y-137662104D01*
X169537603Y-137662103D01*
X169327952Y-137593985D01*
X169219086Y-137576742D01*
X169110222Y-137559500D01*
X168889778Y-137559500D01*
X168889773Y-137559500D01*
X168754569Y-137580914D01*
X168685275Y-137571959D01*
X168647490Y-137546122D01*
X167867657Y-136766289D01*
X167834172Y-136704966D01*
X167831344Y-136677446D01*
X167997426Y-119072829D01*
X168017742Y-119005979D01*
X168070975Y-118960725D01*
X168121420Y-118950000D01*
X173844270Y-118950000D01*
X173911309Y-118969685D01*
X173931951Y-118986319D01*
X174422381Y-119476749D01*
X174455866Y-119538072D01*
X174458700Y-119564430D01*
X174458700Y-145800170D01*
X174439015Y-145867209D01*
X174422381Y-145887851D01*
X173747105Y-146563126D01*
X173685782Y-146596611D01*
X173640026Y-146597918D01*
X173584352Y-146589100D01*
X173379648Y-146589100D01*
X173355329Y-146592951D01*
X173177465Y-146621122D01*
X172982776Y-146684381D01*
X172800386Y-146777315D01*
X172634786Y-146897628D01*
X172490028Y-147042386D01*
X172369715Y-147207986D01*
X172276781Y-147390376D01*
X172213522Y-147585065D01*
X172181500Y-147787248D01*
X172181500Y-147991951D01*
X172213522Y-148194134D01*
X172276781Y-148388823D01*
X172369715Y-148571213D01*
X172490028Y-148736813D01*
X172634786Y-148881571D01*
X172789749Y-148994156D01*
X172800390Y-149001887D01*
X172916607Y-149061103D01*
X172982776Y-149094818D01*
X172982778Y-149094818D01*
X172982781Y-149094820D01*
X173087137Y-149128727D01*
X173177465Y-149158077D01*
X173278557Y-149174088D01*
X173379648Y-149190100D01*
X173379649Y-149190100D01*
X173584351Y-149190100D01*
X173584352Y-149190100D01*
X173786534Y-149158077D01*
X173981219Y-149094820D01*
X174163610Y-149001887D01*
X174256590Y-148934332D01*
X174329213Y-148881571D01*
X174329215Y-148881568D01*
X174329219Y-148881566D01*
X174473966Y-148736819D01*
X174487572Y-148718092D01*
X174507100Y-148691215D01*
X174562429Y-148648549D01*
X174607418Y-148640100D01*
X184104320Y-148640100D01*
X184201862Y-148620696D01*
X184249313Y-148611258D01*
X184385895Y-148554684D01*
X184435129Y-148521786D01*
X184508816Y-148472552D01*
X185101952Y-147879416D01*
X185101952Y-147879415D01*
X185512971Y-147468395D01*
X185574290Y-147434913D01*
X185601030Y-147432080D01*
X196999992Y-147467929D01*
X196999990Y-148213224D01*
X196999988Y-148213231D01*
X196999987Y-149384696D01*
X196980302Y-149451736D01*
X196976270Y-149457629D01*
X196037140Y-150748933D01*
X195981790Y-150791573D01*
X195936857Y-150800000D01*
X168799975Y-150800000D01*
X154800668Y-150999990D01*
X154799461Y-151000002D01*
X110850796Y-151199769D01*
X110783667Y-151180389D01*
X110763640Y-151164527D01*
X108739852Y-149190100D01*
X103617907Y-144193080D01*
X103583667Y-144132175D01*
X103580499Y-144104329D01*
X103580499Y-142399992D01*
X103569999Y-142297203D01*
X103514814Y-142130666D01*
X103422712Y-141981344D01*
X103298656Y-141857288D01*
X103149334Y-141765186D01*
X102982797Y-141710001D01*
X102982795Y-141710000D01*
X102880016Y-141699500D01*
X102880009Y-141699500D01*
X101445782Y-141699500D01*
X101378743Y-141679815D01*
X101358101Y-141663181D01*
X94436319Y-134741399D01*
X94402834Y-134680076D01*
X94400000Y-134653718D01*
X94400000Y-123043866D01*
X94419685Y-122976827D01*
X94423667Y-122971001D01*
X94452287Y-122931610D01*
X94545220Y-122749219D01*
X94608477Y-122554534D01*
X94640500Y-122352352D01*
X94640500Y-122147648D01*
X94639661Y-122142352D01*
X94608477Y-121945465D01*
X94545218Y-121750776D01*
X94479938Y-121622658D01*
X94452287Y-121568390D01*
X94432228Y-121540781D01*
X94423681Y-121529016D01*
X94400202Y-121463209D01*
X94400000Y-121456132D01*
X94400000Y-114066282D01*
X94419685Y-113999243D01*
X94436319Y-113978601D01*
X94473834Y-113941087D01*
X95214921Y-113200000D01*
X98400000Y-113200000D01*
X98352595Y-115380586D01*
G37*
%TD.AperFunction*%
%TD*%
%TA.AperFunction,Conductor*%
%TO.N,3.3V*%
G36*
X148517525Y-52870185D02*
G01*
X148534427Y-52883231D01*
X148633664Y-52974500D01*
X151130000Y-55270400D01*
X156806134Y-55292791D01*
X156873092Y-55312739D01*
X156893323Y-55329108D01*
X157039186Y-55474971D01*
X157194149Y-55587556D01*
X157204790Y-55595287D01*
X157321007Y-55654503D01*
X157387176Y-55688218D01*
X157387178Y-55688218D01*
X157387181Y-55688220D01*
X157491537Y-55722127D01*
X157581865Y-55751477D01*
X157682957Y-55767488D01*
X157784048Y-55783500D01*
X157784049Y-55783500D01*
X157988751Y-55783500D01*
X157988752Y-55783500D01*
X158190934Y-55751477D01*
X158385619Y-55688220D01*
X158568010Y-55595287D01*
X158666224Y-55523931D01*
X158733613Y-55474971D01*
X158733615Y-55474968D01*
X158733619Y-55474966D01*
X158870983Y-55337602D01*
X158932306Y-55304117D01*
X158959150Y-55301284D01*
X161225921Y-55310226D01*
X161292879Y-55330174D01*
X161338426Y-55383158D01*
X161343130Y-55395208D01*
X161385786Y-55523934D01*
X161477888Y-55673256D01*
X161601944Y-55797312D01*
X161751266Y-55889414D01*
X161917803Y-55944599D01*
X162020591Y-55955100D01*
X163810608Y-55955099D01*
X163895478Y-55946429D01*
X163964169Y-55959198D01*
X164015053Y-56007079D01*
X164032012Y-56065757D01*
X164105165Y-58315179D01*
X164102130Y-58326910D01*
X164103652Y-58338934D01*
X164093544Y-58360108D01*
X164087670Y-58382822D01*
X164078774Y-58391051D01*
X164073554Y-58401988D01*
X164053602Y-58414337D01*
X164036381Y-58430269D01*
X164022976Y-58433294D01*
X164014145Y-58438761D01*
X163979130Y-58443191D01*
X163783430Y-58439874D01*
X163729236Y-58426377D01*
X163666691Y-58394509D01*
X163666690Y-58394508D01*
X163666689Y-58394508D01*
X163461526Y-58327846D01*
X163461524Y-58327845D01*
X163461522Y-58327845D01*
X163248466Y-58294100D01*
X163248461Y-58294100D01*
X162582739Y-58294100D01*
X162582734Y-58294100D01*
X162369677Y-58327845D01*
X162369676Y-58327845D01*
X162164515Y-58394506D01*
X162164506Y-58394509D01*
X162157963Y-58397843D01*
X162099580Y-58411334D01*
X161125364Y-58394823D01*
X161112200Y-58394600D01*
X161112199Y-58394600D01*
X161089320Y-61483418D01*
X161069139Y-61550310D01*
X161015998Y-61595673D01*
X160965323Y-61606500D01*
X160407630Y-61606500D01*
X160340591Y-61586815D01*
X160319949Y-61570181D01*
X158491821Y-59742052D01*
X158491814Y-59742046D01*
X158418129Y-59692812D01*
X158418129Y-59692813D01*
X158368891Y-59659913D01*
X158232317Y-59603343D01*
X158232307Y-59603340D01*
X158087320Y-59574500D01*
X158087318Y-59574500D01*
X155430418Y-59574500D01*
X155363379Y-59554815D01*
X155330100Y-59523385D01*
X155296971Y-59477787D01*
X155296967Y-59477782D01*
X155152213Y-59333028D01*
X154986613Y-59212715D01*
X154986612Y-59212714D01*
X154986610Y-59212713D01*
X154929653Y-59183691D01*
X154804223Y-59119781D01*
X154609534Y-59056522D01*
X154421987Y-59026818D01*
X154407352Y-59024500D01*
X154202648Y-59024500D01*
X154188013Y-59026818D01*
X154000465Y-59056522D01*
X153805776Y-59119781D01*
X153623386Y-59212715D01*
X153457786Y-59333028D01*
X153313028Y-59477786D01*
X153192715Y-59643386D01*
X153099781Y-59825776D01*
X153036522Y-60020465D01*
X153004500Y-60222648D01*
X153004500Y-60427351D01*
X153036522Y-60629534D01*
X153099781Y-60824223D01*
X153156022Y-60934600D01*
X153188762Y-60998856D01*
X153192715Y-61006613D01*
X153313028Y-61172213D01*
X153457786Y-61316971D01*
X153623385Y-61437284D01*
X153623387Y-61437285D01*
X153623390Y-61437287D01*
X153651546Y-61451633D01*
X153702342Y-61499606D01*
X153719138Y-61567427D01*
X153696602Y-61633562D01*
X153641887Y-61677014D01*
X153592977Y-61686097D01*
X152781000Y-61671199D01*
X152603589Y-85545560D01*
X152583406Y-85612452D01*
X152565304Y-85634247D01*
X147929600Y-90068400D01*
X148030372Y-106166779D01*
X148011107Y-106233940D01*
X147958591Y-106280025D01*
X147899198Y-106291347D01*
X144712364Y-106106602D01*
X144646576Y-106083071D01*
X144631859Y-106070491D01*
X143899670Y-105338302D01*
X143891831Y-105329690D01*
X140769991Y-101558340D01*
X140742406Y-101494146D01*
X140741511Y-101478976D01*
X140842868Y-60860101D01*
X140862720Y-60793114D01*
X140880787Y-60771161D01*
X142265400Y-59436000D01*
X142265400Y-52974500D01*
X142285085Y-52907461D01*
X142337889Y-52861706D01*
X142389400Y-52850500D01*
X148450486Y-52850500D01*
X148517525Y-52870185D01*
G37*
%TD.AperFunction*%
%TD*%
%TA.AperFunction,Conductor*%
%TO.N,GND*%
G36*
X182414457Y-25353385D02*
G01*
X182435099Y-25370019D01*
X187143181Y-30078101D01*
X187176666Y-30139424D01*
X187179500Y-30165782D01*
X187179500Y-31600001D01*
X187179501Y-31600018D01*
X187190000Y-31702796D01*
X187190001Y-31702799D01*
X187245185Y-31869331D01*
X187245187Y-31869336D01*
X187280069Y-31925888D01*
X187337288Y-32018656D01*
X187461344Y-32142712D01*
X187610666Y-32234814D01*
X187777203Y-32289999D01*
X187879991Y-32300500D01*
X190080008Y-32300499D01*
X190182797Y-32289999D01*
X190349334Y-32234814D01*
X190498656Y-32142712D01*
X190557063Y-32084305D01*
X190618386Y-32050820D01*
X190688078Y-32055804D01*
X190729958Y-32081905D01*
X197210995Y-38213100D01*
X197246168Y-38273471D01*
X197249778Y-38303691D01*
X197000059Y-98735552D01*
X197000002Y-148213187D01*
X197000002Y-148213197D01*
X196999998Y-148264564D01*
X196999990Y-148264564D01*
X196999992Y-147467929D01*
X190408458Y-147447199D01*
X189812124Y-146362954D01*
X189797066Y-146294727D01*
X189798300Y-146283822D01*
X189818500Y-146156287D01*
X189818500Y-145943713D01*
X189785246Y-145733757D01*
X189719557Y-145531588D01*
X189623051Y-145342184D01*
X189618857Y-145336412D01*
X189585436Y-145290410D01*
X189561956Y-145224604D01*
X189571345Y-145169707D01*
X189585600Y-145135600D01*
X187640162Y-143165220D01*
X187607068Y-143103685D01*
X187604400Y-143078099D01*
X187604400Y-137504090D01*
X187624085Y-137437051D01*
X187640714Y-137416413D01*
X187703277Y-137353851D01*
X187774465Y-137247309D01*
X187823501Y-137128926D01*
X187830420Y-137094138D01*
X187833928Y-137076507D01*
X187833928Y-137076505D01*
X187848500Y-137003252D01*
X187848500Y-125424624D01*
X187868185Y-125357585D01*
X187884814Y-125336948D01*
X190236327Y-122985434D01*
X190276551Y-122958557D01*
X190314127Y-122942994D01*
X190420669Y-122871805D01*
X190511276Y-122781198D01*
X190582465Y-122674656D01*
X190631501Y-122556273D01*
X190643905Y-122493916D01*
X190656500Y-122430600D01*
X190656500Y-118406928D01*
X190631502Y-118281261D01*
X190631501Y-118281260D01*
X190631501Y-118281256D01*
X190582465Y-118162873D01*
X190549678Y-118113803D01*
X190549678Y-118113802D01*
X190511279Y-118056334D01*
X190511273Y-118056326D01*
X190112137Y-117657191D01*
X190078652Y-117595868D01*
X190077345Y-117550112D01*
X190105500Y-117372352D01*
X190105500Y-117167648D01*
X190073477Y-116965466D01*
X190073476Y-116965464D01*
X190010218Y-116770776D01*
X189967429Y-116686799D01*
X189917287Y-116588390D01*
X189886101Y-116545466D01*
X189796971Y-116422786D01*
X189652213Y-116278028D01*
X189486614Y-116157715D01*
X189480006Y-116154348D01*
X189393917Y-116110483D01*
X189343123Y-116062511D01*
X189326328Y-115994690D01*
X189348865Y-115928555D01*
X189393917Y-115889516D01*
X189486610Y-115842287D01*
X189507770Y-115826913D01*
X189652213Y-115721971D01*
X189652215Y-115721968D01*
X189652219Y-115721966D01*
X189796966Y-115577219D01*
X189796968Y-115577215D01*
X189796971Y-115577213D01*
X189868944Y-115478149D01*
X189917287Y-115411610D01*
X190010220Y-115229219D01*
X190073477Y-115034534D01*
X190105500Y-114832352D01*
X190105500Y-114627648D01*
X190094834Y-114560309D01*
X190073477Y-114425465D01*
X190010218Y-114230776D01*
X189976503Y-114164607D01*
X189917287Y-114048390D01*
X189872018Y-113986082D01*
X189796971Y-113882786D01*
X189652213Y-113738028D01*
X189486613Y-113617715D01*
X189486612Y-113617714D01*
X189486610Y-113617713D01*
X189427367Y-113587527D01*
X189304223Y-113524781D01*
X189109534Y-113461522D01*
X188934995Y-113433878D01*
X188907352Y-113429500D01*
X188702648Y-113429500D01*
X188646971Y-113438318D01*
X188577678Y-113429363D01*
X188539893Y-113403526D01*
X183210603Y-108074234D01*
X183210600Y-108074231D01*
X183129304Y-108019912D01*
X183118356Y-108012597D01*
X183087677Y-107992098D01*
X183087674Y-107992096D01*
X183087673Y-107992096D01*
X182951099Y-107935525D01*
X182951089Y-107935522D01*
X182806102Y-107906682D01*
X182806100Y-107906682D01*
X170131811Y-107906682D01*
X170064772Y-107886997D01*
X170044130Y-107870363D01*
X167483421Y-105309652D01*
X167483414Y-105309646D01*
X167409729Y-105260412D01*
X167409729Y-105260413D01*
X167360491Y-105227513D01*
X167223917Y-105170943D01*
X167223907Y-105170940D01*
X167078920Y-105142100D01*
X167078918Y-105142100D01*
X166579829Y-105142100D01*
X166512790Y-105122415D01*
X166492148Y-105105781D01*
X165600020Y-104213652D01*
X165566535Y-104152329D01*
X165563701Y-104125971D01*
X165563701Y-102735880D01*
X165583386Y-102668841D01*
X165636190Y-102623086D01*
X165705348Y-102613142D01*
X165760586Y-102635562D01*
X165822082Y-102680241D01*
X165866190Y-102712287D01*
X165982407Y-102771503D01*
X166048576Y-102805218D01*
X166048578Y-102805218D01*
X166048581Y-102805220D01*
X166104503Y-102823390D01*
X166243265Y-102868477D01*
X166336588Y-102883258D01*
X166445448Y-102900500D01*
X166445449Y-102900500D01*
X166650151Y-102900500D01*
X166650152Y-102900500D01*
X166852334Y-102868477D01*
X167047019Y-102805220D01*
X167229410Y-102712287D01*
X167350677Y-102624181D01*
X167416483Y-102600702D01*
X167423562Y-102600500D01*
X169378542Y-102600500D01*
X169408665Y-102594507D01*
X169475188Y-102581275D01*
X169571836Y-102562051D01*
X169648844Y-102530153D01*
X169753914Y-102486632D01*
X169776637Y-102471448D01*
X169843313Y-102450570D01*
X169846965Y-102450559D01*
X172609108Y-102483441D01*
X172675906Y-102503922D01*
X172721030Y-102557267D01*
X172730149Y-102626539D01*
X172709910Y-102674589D01*
X172710454Y-102674886D01*
X172707529Y-102680241D01*
X172706898Y-102681741D01*
X172706205Y-102682665D01*
X172706202Y-102682671D01*
X172655908Y-102817517D01*
X172649501Y-102877116D01*
X172649500Y-102877135D01*
X172649500Y-104672870D01*
X172649501Y-104672876D01*
X172655908Y-104732483D01*
X172706202Y-104867328D01*
X172706206Y-104867335D01*
X172792452Y-104982544D01*
X172792455Y-104982547D01*
X172907664Y-105068793D01*
X172907671Y-105068797D01*
X173042517Y-105119091D01*
X173042516Y-105119091D01*
X173049444Y-105119835D01*
X173102127Y-105125500D01*
X174897872Y-105125499D01*
X174957483Y-105119091D01*
X175092331Y-105068796D01*
X175207546Y-104982546D01*
X175293796Y-104867331D01*
X175344091Y-104732483D01*
X175350500Y-104672873D01*
X175350500Y-104649500D01*
X175370185Y-104582461D01*
X175422989Y-104536706D01*
X175474500Y-104525500D01*
X176091421Y-104525500D01*
X176158460Y-104545185D01*
X176201906Y-104593205D01*
X176261528Y-104710220D01*
X176287715Y-104761613D01*
X176408028Y-104927213D01*
X176552786Y-105071971D01*
X176689008Y-105170940D01*
X176718390Y-105192287D01*
X176820161Y-105244142D01*
X176900776Y-105285218D01*
X176900778Y-105285218D01*
X176900781Y-105285220D01*
X176975963Y-105309648D01*
X177095465Y-105348477D01*
X177189596Y-105363386D01*
X177297648Y-105380500D01*
X177297649Y-105380500D01*
X177502351Y-105380500D01*
X177502352Y-105380500D01*
X177704534Y-105348477D01*
X177899219Y-105285220D01*
X178081610Y-105192287D01*
X178177781Y-105122415D01*
X178247213Y-105071971D01*
X178247215Y-105071968D01*
X178247219Y-105071966D01*
X178391966Y-104927219D01*
X178391968Y-104927215D01*
X178391971Y-104927213D01*
X178444732Y-104854590D01*
X178512287Y-104761610D01*
X178605220Y-104579219D01*
X178668477Y-104384534D01*
X178700500Y-104182352D01*
X178700500Y-103977648D01*
X178668477Y-103775466D01*
X178605220Y-103580781D01*
X178605218Y-103580778D01*
X178605218Y-103580776D01*
X178544790Y-103462181D01*
X178512287Y-103398390D01*
X178512285Y-103398388D01*
X178512282Y-103398381D01*
X178509741Y-103394234D01*
X178511361Y-103393240D01*
X178490590Y-103335060D01*
X178506401Y-103267003D01*
X178556497Y-103218298D01*
X178574501Y-103210546D01*
X180615328Y-102517435D01*
X180671382Y-102511910D01*
X180873790Y-102538557D01*
X180888527Y-102540498D01*
X180888543Y-102540500D01*
X180888550Y-102540500D01*
X181111450Y-102540500D01*
X181111457Y-102540500D01*
X181332463Y-102511404D01*
X181547781Y-102453710D01*
X181753726Y-102368405D01*
X181946774Y-102256948D01*
X182123624Y-102121247D01*
X182203053Y-102041817D01*
X182264374Y-102008334D01*
X182290733Y-102005500D01*
X187437081Y-102005500D01*
X187504120Y-102025185D01*
X187535456Y-102054013D01*
X187553314Y-102077286D01*
X187643406Y-102194697D01*
X187643412Y-102194704D01*
X187810295Y-102361587D01*
X187810302Y-102361593D01*
X187850859Y-102392713D01*
X187997550Y-102505273D01*
X188105251Y-102567454D01*
X188201943Y-102623280D01*
X188201948Y-102623282D01*
X188201951Y-102623284D01*
X188420007Y-102713606D01*
X188647986Y-102774693D01*
X188881989Y-102805500D01*
X188881996Y-102805500D01*
X189118004Y-102805500D01*
X189118011Y-102805500D01*
X189352014Y-102774693D01*
X189579993Y-102713606D01*
X189798049Y-102623284D01*
X190002450Y-102505273D01*
X190189699Y-102361592D01*
X190356592Y-102194699D01*
X190500273Y-102007450D01*
X190618284Y-101803049D01*
X190708606Y-101584993D01*
X190769693Y-101357014D01*
X190800500Y-101123011D01*
X190800500Y-100886989D01*
X190769693Y-100652986D01*
X190708606Y-100425007D01*
X190618284Y-100206951D01*
X190618282Y-100206948D01*
X190618280Y-100206943D01*
X190553452Y-100094659D01*
X190500273Y-100002550D01*
X190409690Y-99884500D01*
X190356593Y-99815302D01*
X190356587Y-99815295D01*
X190189704Y-99648412D01*
X190189697Y-99648406D01*
X190002454Y-99504730D01*
X190002453Y-99504729D01*
X190002450Y-99504727D01*
X189920957Y-99457677D01*
X189798056Y-99386719D01*
X189798044Y-99386714D01*
X189576547Y-99294966D01*
X189522144Y-99251125D01*
X189500079Y-99184831D01*
X189500000Y-99180405D01*
X189500000Y-97749593D01*
X189519685Y-97682554D01*
X189572489Y-97636799D01*
X189576548Y-97635032D01*
X189579986Y-97633607D01*
X189579993Y-97633606D01*
X189769397Y-97555152D01*
X189798040Y-97543288D01*
X189798043Y-97543286D01*
X189798049Y-97543284D01*
X190002450Y-97425273D01*
X190189699Y-97281592D01*
X190356592Y-97114699D01*
X190500273Y-96927450D01*
X190618284Y-96723049D01*
X190708606Y-96504993D01*
X190769693Y-96277014D01*
X190800500Y-96043011D01*
X190800500Y-95806989D01*
X190769693Y-95572986D01*
X190708606Y-95345007D01*
X190618284Y-95126951D01*
X190618282Y-95126948D01*
X190618280Y-95126943D01*
X190566805Y-95037787D01*
X190500273Y-94922550D01*
X190356592Y-94735301D01*
X190356587Y-94735295D01*
X190189704Y-94568412D01*
X190189697Y-94568406D01*
X190002454Y-94424730D01*
X190002453Y-94424729D01*
X190002450Y-94424727D01*
X189908433Y-94370446D01*
X189798056Y-94306719D01*
X189798045Y-94306714D01*
X189579993Y-94216394D01*
X189489771Y-94192219D01*
X189352014Y-94155307D01*
X189352013Y-94155306D01*
X189352010Y-94155306D01*
X189118020Y-94124501D01*
X189118017Y-94124500D01*
X189118011Y-94124500D01*
X188881989Y-94124500D01*
X188881983Y-94124500D01*
X188881979Y-94124501D01*
X188647989Y-94155306D01*
X188420006Y-94216394D01*
X188201954Y-94306714D01*
X188201943Y-94306719D01*
X187997545Y-94424730D01*
X187810302Y-94568406D01*
X187810295Y-94568412D01*
X187643412Y-94735295D01*
X187643406Y-94735302D01*
X187535457Y-94875986D01*
X187479029Y-94917189D01*
X187437081Y-94924500D01*
X183878272Y-94924500D01*
X183822818Y-94911409D01*
X183000000Y-94500000D01*
X182761888Y-94458588D01*
X182699213Y-94427708D01*
X182666953Y-94379755D01*
X182643797Y-94317671D01*
X182643793Y-94317664D01*
X182557547Y-94202455D01*
X182557544Y-94202452D01*
X182442335Y-94116206D01*
X182442328Y-94116202D01*
X182307482Y-94065908D01*
X182307483Y-94065908D01*
X182247883Y-94059501D01*
X182247881Y-94059500D01*
X182247873Y-94059500D01*
X182247865Y-94059500D01*
X180477829Y-94059500D01*
X180456583Y-94057666D01*
X178777205Y-93765600D01*
X178714529Y-93734720D01*
X178678499Y-93674857D01*
X178675983Y-93662862D01*
X178668477Y-93615466D01*
X178605220Y-93420781D01*
X178512287Y-93238390D01*
X178452210Y-93155700D01*
X178391971Y-93072786D01*
X178247213Y-92928028D01*
X178081613Y-92807715D01*
X178081612Y-92807714D01*
X178081610Y-92807713D01*
X177989344Y-92760701D01*
X177899223Y-92714781D01*
X177704534Y-92651522D01*
X177529995Y-92623878D01*
X177502352Y-92619500D01*
X177297648Y-92619500D01*
X177273329Y-92623351D01*
X177095465Y-92651522D01*
X176900776Y-92714781D01*
X176718386Y-92807715D01*
X176552786Y-92928028D01*
X176408028Y-93072786D01*
X176287715Y-93238386D01*
X176194780Y-93420780D01*
X176193674Y-93423451D01*
X176192981Y-93424310D01*
X176192568Y-93425122D01*
X176192397Y-93425035D01*
X176149834Y-93477855D01*
X176083540Y-93499921D01*
X176079112Y-93500000D01*
X166437701Y-93500000D01*
X166370662Y-93480315D01*
X166324907Y-93427511D01*
X166313701Y-93376000D01*
X166313701Y-90737702D01*
X166276754Y-90504431D01*
X166212208Y-90305781D01*
X166203769Y-90279808D01*
X166203767Y-90279805D01*
X166203767Y-90279803D01*
X166127843Y-90130795D01*
X166114947Y-90062126D01*
X166141223Y-89997385D01*
X166198330Y-89957128D01*
X166238328Y-89950500D01*
X167517770Y-89950500D01*
X167584809Y-89970185D01*
X167605451Y-89986819D01*
X168273526Y-90654893D01*
X168307011Y-90716216D01*
X168308318Y-90761971D01*
X168299500Y-90817647D01*
X168299500Y-91022351D01*
X168331522Y-91224534D01*
X168394781Y-91419223D01*
X168456397Y-91540149D01*
X168486781Y-91599781D01*
X168487715Y-91601613D01*
X168608028Y-91767213D01*
X168752786Y-91911971D01*
X168907749Y-92024556D01*
X168918390Y-92032287D01*
X169032533Y-92090446D01*
X169100776Y-92125218D01*
X169100778Y-92125218D01*
X169100781Y-92125220D01*
X169151834Y-92141808D01*
X169295465Y-92188477D01*
X169376754Y-92201352D01*
X169497648Y-92220500D01*
X169497649Y-92220500D01*
X169702351Y-92220500D01*
X169702352Y-92220500D01*
X169904534Y-92188477D01*
X170099219Y-92125220D01*
X170281610Y-92032287D01*
X170385555Y-91956767D01*
X170447213Y-91911971D01*
X170447215Y-91911968D01*
X170447219Y-91911966D01*
X170591966Y-91767219D01*
X170591968Y-91767215D01*
X170591971Y-91767213D01*
X170673715Y-91654700D01*
X170712287Y-91601610D01*
X170805220Y-91419219D01*
X170868477Y-91224534D01*
X170900500Y-91022352D01*
X170900500Y-90817648D01*
X170896967Y-90795340D01*
X170868477Y-90615465D01*
X170832400Y-90504432D01*
X170805220Y-90420781D01*
X170805218Y-90420778D01*
X170805218Y-90420776D01*
X170771503Y-90354607D01*
X170712287Y-90238390D01*
X170694896Y-90214453D01*
X170591971Y-90072786D01*
X170447213Y-89928028D01*
X170281613Y-89807715D01*
X170281612Y-89807714D01*
X170281610Y-89807713D01*
X170224653Y-89778691D01*
X170099223Y-89714781D01*
X169904534Y-89651522D01*
X169729995Y-89623878D01*
X169702352Y-89619500D01*
X169497648Y-89619500D01*
X169441971Y-89628318D01*
X169372678Y-89619363D01*
X169334893Y-89593526D01*
X168358421Y-88617052D01*
X168358414Y-88617046D01*
X168284729Y-88567812D01*
X168284729Y-88567813D01*
X168235491Y-88534913D01*
X168098917Y-88478343D01*
X168098907Y-88478340D01*
X167953920Y-88449500D01*
X167953918Y-88449500D01*
X163126082Y-88449500D01*
X163126080Y-88449500D01*
X162981092Y-88478340D01*
X162981082Y-88478343D01*
X162844511Y-88534912D01*
X162844498Y-88534919D01*
X162721584Y-88617048D01*
X162721580Y-88617051D01*
X161392234Y-89946397D01*
X161330911Y-89979882D01*
X161261219Y-89974898D01*
X161216872Y-89946397D01*
X157073166Y-85802690D01*
X157045418Y-85756392D01*
X157044554Y-85756750D01*
X156985652Y-85614546D01*
X156985645Y-85614533D01*
X156903516Y-85491619D01*
X156903513Y-85491615D01*
X156798984Y-85387086D01*
X156798980Y-85387083D01*
X156676066Y-85304954D01*
X156676053Y-85304947D01*
X156533851Y-85246046D01*
X156534208Y-85245184D01*
X156487909Y-85217433D01*
X155289202Y-84018726D01*
X155182659Y-83947537D01*
X155182658Y-83947536D01*
X155182656Y-83947535D01*
X155121540Y-83922220D01*
X155064273Y-83898499D01*
X155064267Y-83898497D01*
X154938600Y-83873500D01*
X154938598Y-83873500D01*
X154059808Y-83873500D01*
X153992769Y-83853815D01*
X153972127Y-83837181D01*
X153164771Y-83029825D01*
X153131286Y-82968502D01*
X153128455Y-82941229D01*
X153138303Y-81615922D01*
X153158486Y-81549034D01*
X153211628Y-81503673D01*
X153280859Y-81494244D01*
X153344197Y-81523740D01*
X153349981Y-81529166D01*
X153457786Y-81636971D01*
X153550343Y-81704216D01*
X153623390Y-81757287D01*
X153716080Y-81804515D01*
X153805776Y-81850218D01*
X153805778Y-81850218D01*
X153805781Y-81850220D01*
X153885130Y-81876002D01*
X154000465Y-81913477D01*
X154012512Y-81915385D01*
X154202648Y-81945500D01*
X154202649Y-81945500D01*
X154407350Y-81945500D01*
X154407352Y-81945500D01*
X154463026Y-81936681D01*
X154532318Y-81945635D01*
X154570105Y-81971473D01*
X155833178Y-83234547D01*
X155833185Y-83234553D01*
X155891756Y-83273688D01*
X155891758Y-83273689D01*
X155891761Y-83273691D01*
X155956105Y-83316684D01*
X155956106Y-83316684D01*
X155956107Y-83316685D01*
X156039591Y-83351265D01*
X156092687Y-83373258D01*
X156092691Y-83373258D01*
X156092692Y-83373259D01*
X156237679Y-83402100D01*
X156237682Y-83402100D01*
X169314120Y-83402100D01*
X169411662Y-83382696D01*
X169459113Y-83373258D01*
X169595695Y-83316684D01*
X169660039Y-83273691D01*
X169660042Y-83273688D01*
X169660044Y-83273688D01*
X169716365Y-83236056D01*
X169718616Y-83234552D01*
X169877941Y-83075225D01*
X169939262Y-83041741D01*
X170008953Y-83046725D01*
X170008954Y-83046725D01*
X170092517Y-83077892D01*
X170092516Y-83077892D01*
X170099444Y-83078636D01*
X170152127Y-83084301D01*
X171447872Y-83084300D01*
X171507483Y-83077892D01*
X171642331Y-83027597D01*
X171757546Y-82941347D01*
X171843796Y-82826132D01*
X171894091Y-82691284D01*
X171900500Y-82631674D01*
X171900499Y-81335929D01*
X171894091Y-81276318D01*
X171894091Y-81276317D01*
X171894090Y-81276313D01*
X171887313Y-81258145D01*
X171881901Y-81190493D01*
X172460401Y-78297992D01*
X172492849Y-78236119D01*
X172494137Y-78234808D01*
X172514076Y-78214870D01*
X172585265Y-78108327D01*
X172634301Y-77989944D01*
X172638483Y-77968921D01*
X172659300Y-77864269D01*
X172659300Y-68816440D01*
X172678985Y-68749401D01*
X172695619Y-68728759D01*
X173138059Y-68286319D01*
X173199382Y-68252834D01*
X173225740Y-68250000D01*
X178626000Y-68250000D01*
X178693039Y-68269685D01*
X178738794Y-68322489D01*
X178750000Y-68374000D01*
X178750000Y-72394253D01*
X178730315Y-72461292D01*
X178713681Y-72481934D01*
X178611432Y-72584182D01*
X178611428Y-72584186D01*
X178491115Y-72749786D01*
X178398181Y-72932176D01*
X178334922Y-73126865D01*
X178315281Y-73250877D01*
X178302900Y-73329048D01*
X178302900Y-73533752D01*
X178306840Y-73558630D01*
X178334922Y-73735934D01*
X178398181Y-73930623D01*
X178491115Y-74113013D01*
X178611428Y-74278613D01*
X178611434Y-74278619D01*
X178750000Y-74417185D01*
X178750000Y-74500000D01*
X178861660Y-74500000D01*
X178921790Y-74543687D01*
X178979375Y-74573028D01*
X179104176Y-74636618D01*
X179104178Y-74636618D01*
X179104181Y-74636620D01*
X179161140Y-74655127D01*
X179298865Y-74699877D01*
X179399957Y-74715888D01*
X179501048Y-74731900D01*
X179501049Y-74731900D01*
X179705751Y-74731900D01*
X179705752Y-74731900D01*
X179907934Y-74699877D01*
X180102619Y-74636620D01*
X180285010Y-74543687D01*
X180377990Y-74476132D01*
X180450613Y-74423371D01*
X180450615Y-74423368D01*
X180450619Y-74423366D01*
X180595366Y-74278619D01*
X180595368Y-74278615D01*
X180595371Y-74278613D01*
X180683335Y-74157539D01*
X180715687Y-74113010D01*
X180808620Y-73930619D01*
X180871877Y-73735934D01*
X180903900Y-73533752D01*
X180903900Y-73329048D01*
X180875745Y-73151286D01*
X180884700Y-73081993D01*
X180910534Y-73044210D01*
X189255277Y-64699469D01*
X189326465Y-64592927D01*
X189375501Y-64474544D01*
X189387085Y-64416310D01*
X189400500Y-64348871D01*
X189400500Y-63118070D01*
X189420185Y-63051031D01*
X189451613Y-63017753D01*
X189597219Y-62911966D01*
X189741966Y-62767219D01*
X189741968Y-62767215D01*
X189741971Y-62767213D01*
X189794732Y-62694590D01*
X189862287Y-62601610D01*
X189955220Y-62419219D01*
X190018477Y-62224534D01*
X190050500Y-62022352D01*
X190050500Y-61817648D01*
X190028462Y-61678508D01*
X190018477Y-61615465D01*
X189958367Y-61430466D01*
X189955220Y-61420781D01*
X189955218Y-61420778D01*
X189955218Y-61420776D01*
X189914434Y-61340734D01*
X189862287Y-61238390D01*
X189831101Y-61195466D01*
X189741971Y-61072786D01*
X189597217Y-60928032D01*
X189597212Y-60928028D01*
X189451615Y-60822246D01*
X189408949Y-60766916D01*
X189400500Y-60721928D01*
X189400500Y-49862312D01*
X189420185Y-49795273D01*
X189468205Y-49751827D01*
X189468219Y-49751820D01*
X189650610Y-49658887D01*
X189671770Y-49643513D01*
X189816213Y-49538571D01*
X189816215Y-49538568D01*
X189816219Y-49538566D01*
X189960966Y-49393819D01*
X189960968Y-49393815D01*
X189960971Y-49393813D01*
X190064792Y-49250913D01*
X190081287Y-49228210D01*
X190174220Y-49045819D01*
X190237477Y-48851134D01*
X190269500Y-48648952D01*
X190269500Y-48444248D01*
X190258861Y-48377079D01*
X190237477Y-48242065D01*
X190174218Y-48047376D01*
X190128151Y-47956966D01*
X190081287Y-47864990D01*
X190039206Y-47807070D01*
X189960971Y-47699386D01*
X189816213Y-47554628D01*
X189650613Y-47434315D01*
X189650612Y-47434314D01*
X189650610Y-47434313D01*
X189468219Y-47341380D01*
X189335682Y-47298316D01*
X189278006Y-47258878D01*
X189250808Y-47194520D01*
X189250000Y-47180385D01*
X189250000Y-39752814D01*
X189269685Y-39685775D01*
X189322489Y-39640020D01*
X189335668Y-39634888D01*
X189468219Y-39591820D01*
X189650610Y-39498887D01*
X189743590Y-39431332D01*
X189816213Y-39378571D01*
X189816215Y-39378568D01*
X189816219Y-39378566D01*
X189960966Y-39233819D01*
X189960968Y-39233815D01*
X189960971Y-39233813D01*
X190040013Y-39125019D01*
X190081287Y-39068210D01*
X190174220Y-38885819D01*
X190237477Y-38691134D01*
X190269500Y-38488952D01*
X190269500Y-38284248D01*
X190253963Y-38186151D01*
X190237477Y-38082065D01*
X190202125Y-37973265D01*
X190174220Y-37887381D01*
X190174218Y-37887378D01*
X190174218Y-37887376D01*
X190136610Y-37813567D01*
X190081287Y-37704990D01*
X190068067Y-37686794D01*
X189960971Y-37539386D01*
X189816213Y-37394628D01*
X189650613Y-37274315D01*
X189650612Y-37274314D01*
X189650610Y-37274313D01*
X189578906Y-37237778D01*
X189468223Y-37181381D01*
X189273534Y-37118122D01*
X189098995Y-37090478D01*
X189071352Y-37086100D01*
X188866648Y-37086100D01*
X188688886Y-37114254D01*
X188619593Y-37105299D01*
X188581808Y-37079462D01*
X181497074Y-29994727D01*
X181497073Y-29994726D01*
X181497069Y-29994723D01*
X181390527Y-29923535D01*
X181382007Y-29920006D01*
X181272144Y-29874499D01*
X181272138Y-29874497D01*
X181146471Y-29849500D01*
X181146469Y-29849500D01*
X180582255Y-29849500D01*
X180515216Y-29829815D01*
X180469461Y-29777011D01*
X180467694Y-29772952D01*
X180438288Y-29701959D01*
X180438280Y-29701943D01*
X180396118Y-29628918D01*
X180320273Y-29497550D01*
X180176592Y-29310301D01*
X180176587Y-29310295D01*
X180009704Y-29143412D01*
X180009697Y-29143406D01*
X179822454Y-28999730D01*
X179822453Y-28999729D01*
X179822450Y-28999727D01*
X179740957Y-28952677D01*
X179618056Y-28881719D01*
X179618045Y-28881714D01*
X179399993Y-28791394D01*
X179172010Y-28730306D01*
X178938020Y-28699501D01*
X178938017Y-28699500D01*
X178938011Y-28699500D01*
X178701989Y-28699500D01*
X178701983Y-28699500D01*
X178701979Y-28699501D01*
X178467989Y-28730306D01*
X178240006Y-28791394D01*
X178021954Y-28881714D01*
X178021943Y-28881719D01*
X177817545Y-28999730D01*
X177630302Y-29143406D01*
X177630295Y-29143412D01*
X177463412Y-29310295D01*
X177463406Y-29310302D01*
X177319730Y-29497545D01*
X177201719Y-29701943D01*
X177201714Y-29701954D01*
X177111394Y-29920006D01*
X177050306Y-30147989D01*
X177031323Y-30292185D01*
X177003057Y-30356082D01*
X176944732Y-30394553D01*
X176908384Y-30400000D01*
X175651616Y-30400000D01*
X175584577Y-30380315D01*
X175538822Y-30327511D01*
X175528677Y-30292185D01*
X175509693Y-30147989D01*
X175509693Y-30147986D01*
X175448606Y-29920007D01*
X175358284Y-29701951D01*
X175358282Y-29701948D01*
X175358280Y-29701943D01*
X175316118Y-29628918D01*
X175240273Y-29497550D01*
X175096592Y-29310301D01*
X175096587Y-29310295D01*
X174929704Y-29143412D01*
X174929697Y-29143406D01*
X174742454Y-28999730D01*
X174742453Y-28999729D01*
X174742450Y-28999727D01*
X174660957Y-28952677D01*
X174538056Y-28881719D01*
X174538045Y-28881714D01*
X174319993Y-28791394D01*
X174092010Y-28730306D01*
X173858020Y-28699501D01*
X173858017Y-28699500D01*
X173858011Y-28699500D01*
X173621989Y-28699500D01*
X173621983Y-28699500D01*
X173621979Y-28699501D01*
X173387989Y-28730306D01*
X173160006Y-28791394D01*
X172941954Y-28881714D01*
X172941943Y-28881719D01*
X172737545Y-28999730D01*
X172550302Y-29143406D01*
X172550295Y-29143412D01*
X172383412Y-29310295D01*
X172383406Y-29310302D01*
X172239730Y-29497545D01*
X172121719Y-29701943D01*
X172121714Y-29701954D01*
X172031394Y-29920006D01*
X171970306Y-30147989D01*
X171951323Y-30292185D01*
X171923057Y-30356082D01*
X171864732Y-30394553D01*
X171828384Y-30400000D01*
X170571616Y-30400000D01*
X170504577Y-30380315D01*
X170458822Y-30327511D01*
X170448677Y-30292185D01*
X170429693Y-30147989D01*
X170429693Y-30147986D01*
X170368606Y-29920007D01*
X170278284Y-29701951D01*
X170278282Y-29701948D01*
X170278280Y-29701943D01*
X170236118Y-29628918D01*
X170160273Y-29497550D01*
X170016592Y-29310301D01*
X170016587Y-29310295D01*
X169849704Y-29143412D01*
X169849697Y-29143406D01*
X169662454Y-28999730D01*
X169662453Y-28999729D01*
X169662450Y-28999727D01*
X169580957Y-28952677D01*
X169458056Y-28881719D01*
X169458045Y-28881714D01*
X169239993Y-28791394D01*
X169012010Y-28730306D01*
X168778020Y-28699501D01*
X168778017Y-28699500D01*
X168778011Y-28699500D01*
X168541989Y-28699500D01*
X168541983Y-28699500D01*
X168541979Y-28699501D01*
X168307989Y-28730306D01*
X168080006Y-28791394D01*
X167861954Y-28881714D01*
X167861943Y-28881719D01*
X167657545Y-28999730D01*
X167470302Y-29143406D01*
X167470295Y-29143412D01*
X167303412Y-29310295D01*
X167303406Y-29310302D01*
X167159730Y-29497545D01*
X167041719Y-29701943D01*
X167041714Y-29701954D01*
X166951394Y-29920006D01*
X166890306Y-30147989D01*
X166871323Y-30292185D01*
X166843057Y-30356082D01*
X166784732Y-30394553D01*
X166748384Y-30400000D01*
X165491616Y-30400000D01*
X165424577Y-30380315D01*
X165378822Y-30327511D01*
X165368677Y-30292185D01*
X165349693Y-30147989D01*
X165349693Y-30147986D01*
X165288606Y-29920007D01*
X165198284Y-29701951D01*
X165198282Y-29701948D01*
X165198280Y-29701943D01*
X165156118Y-29628918D01*
X165080273Y-29497550D01*
X164936592Y-29310301D01*
X164936587Y-29310295D01*
X164769704Y-29143412D01*
X164769697Y-29143406D01*
X164582454Y-28999730D01*
X164582453Y-28999729D01*
X164582450Y-28999727D01*
X164500957Y-28952677D01*
X164378056Y-28881719D01*
X164378045Y-28881714D01*
X164159993Y-28791394D01*
X163932010Y-28730306D01*
X163698020Y-28699501D01*
X163698017Y-28699500D01*
X163698011Y-28699500D01*
X163461989Y-28699500D01*
X163461983Y-28699500D01*
X163461979Y-28699501D01*
X163227989Y-28730306D01*
X163000006Y-28791394D01*
X162781954Y-28881714D01*
X162781943Y-28881719D01*
X162577545Y-28999730D01*
X162390302Y-29143406D01*
X162390295Y-29143412D01*
X162223412Y-29310295D01*
X162223406Y-29310302D01*
X162079730Y-29497545D01*
X161961719Y-29701943D01*
X161961714Y-29701954D01*
X161871394Y-29920006D01*
X161810306Y-30147989D01*
X161791323Y-30292185D01*
X161763057Y-30356082D01*
X161704732Y-30394553D01*
X161668384Y-30400000D01*
X160411616Y-30400000D01*
X160344577Y-30380315D01*
X160298822Y-30327511D01*
X160288677Y-30292185D01*
X160269693Y-30147989D01*
X160269693Y-30147986D01*
X160208606Y-29920007D01*
X160118284Y-29701951D01*
X160118282Y-29701948D01*
X160118280Y-29701943D01*
X160076118Y-29628918D01*
X160000273Y-29497550D01*
X159856592Y-29310301D01*
X159856587Y-29310295D01*
X159689704Y-29143412D01*
X159689697Y-29143406D01*
X159502454Y-28999730D01*
X159502453Y-28999729D01*
X159502450Y-28999727D01*
X159420957Y-28952677D01*
X159298056Y-28881719D01*
X159298045Y-28881714D01*
X159079993Y-28791394D01*
X158852010Y-28730306D01*
X158618020Y-28699501D01*
X158618017Y-28699500D01*
X158618011Y-28699500D01*
X158381989Y-28699500D01*
X158381983Y-28699500D01*
X158381979Y-28699501D01*
X158147989Y-28730306D01*
X157920006Y-28791394D01*
X157701954Y-28881714D01*
X157701943Y-28881719D01*
X157497545Y-28999730D01*
X157310302Y-29143406D01*
X157310295Y-29143412D01*
X157143412Y-29310295D01*
X157143406Y-29310302D01*
X156999730Y-29497545D01*
X156881719Y-29701943D01*
X156881714Y-29701954D01*
X156791394Y-29920006D01*
X156730306Y-30147989D01*
X156711323Y-30292185D01*
X156683057Y-30356082D01*
X156624732Y-30394553D01*
X156588384Y-30400000D01*
X155331616Y-30400000D01*
X155264577Y-30380315D01*
X155218822Y-30327511D01*
X155208677Y-30292185D01*
X155189693Y-30147989D01*
X155189693Y-30147986D01*
X155128606Y-29920007D01*
X155038284Y-29701951D01*
X155038282Y-29701948D01*
X155038280Y-29701943D01*
X154996118Y-29628918D01*
X154920273Y-29497550D01*
X154776592Y-29310301D01*
X154776587Y-29310295D01*
X154609704Y-29143412D01*
X154609697Y-29143406D01*
X154422454Y-28999730D01*
X154422453Y-28999729D01*
X154422450Y-28999727D01*
X154340957Y-28952677D01*
X154218056Y-28881719D01*
X154218045Y-28881714D01*
X153999993Y-28791394D01*
X153772010Y-28730306D01*
X153538020Y-28699501D01*
X153538017Y-28699500D01*
X153538011Y-28699500D01*
X153301989Y-28699500D01*
X153301983Y-28699500D01*
X153301979Y-28699501D01*
X153067989Y-28730306D01*
X152840006Y-28791394D01*
X152621954Y-28881714D01*
X152621943Y-28881719D01*
X152417545Y-28999730D01*
X152230302Y-29143406D01*
X152230295Y-29143412D01*
X152063412Y-29310295D01*
X152063406Y-29310302D01*
X151919730Y-29497545D01*
X151801719Y-29701943D01*
X151801714Y-29701954D01*
X151711394Y-29920006D01*
X151650306Y-30147989D01*
X151619501Y-30381979D01*
X151619500Y-30381995D01*
X151619500Y-30618004D01*
X151619501Y-30618020D01*
X151650306Y-30852010D01*
X151711394Y-31079993D01*
X151801714Y-31298045D01*
X151801719Y-31298056D01*
X151852068Y-31385261D01*
X151919727Y-31502450D01*
X151919729Y-31502453D01*
X151919730Y-31502454D01*
X152063406Y-31689697D01*
X152063412Y-31689704D01*
X152230295Y-31856587D01*
X152230302Y-31856593D01*
X152340306Y-31941001D01*
X152417550Y-32000273D01*
X152527684Y-32063859D01*
X152621943Y-32118280D01*
X152621948Y-32118282D01*
X152621951Y-32118284D01*
X152840007Y-32208606D01*
X153067986Y-32269693D01*
X153301989Y-32300500D01*
X153301996Y-32300500D01*
X153538004Y-32300500D01*
X153538011Y-32300500D01*
X153772014Y-32269693D01*
X153983877Y-32212924D01*
X154053725Y-32214587D01*
X154103650Y-32245018D01*
X156962181Y-35103548D01*
X156995666Y-35164871D01*
X156998500Y-35191229D01*
X156998500Y-43267918D01*
X156998500Y-43267920D01*
X156998499Y-43267920D01*
X157027340Y-43412907D01*
X157027343Y-43412917D01*
X157083913Y-43549490D01*
X157083914Y-43549491D01*
X157083916Y-43549495D01*
X157101484Y-43575787D01*
X157161345Y-43665378D01*
X157166051Y-43672420D01*
X157166052Y-43672421D01*
X159733648Y-46240016D01*
X159767133Y-46301339D01*
X159762149Y-46371031D01*
X159756453Y-46383990D01*
X159714778Y-46465783D01*
X159651523Y-46660461D01*
X159651523Y-46660464D01*
X159619500Y-46862648D01*
X159619500Y-47067351D01*
X159651522Y-47269534D01*
X159714781Y-47464223D01*
X159807715Y-47646613D01*
X159928028Y-47812213D01*
X160072786Y-47956971D01*
X160227749Y-48069556D01*
X160238390Y-48077287D01*
X160348255Y-48133266D01*
X160420776Y-48170218D01*
X160420778Y-48170218D01*
X160420781Y-48170220D01*
X160525137Y-48204127D01*
X160615465Y-48233477D01*
X160716557Y-48249488D01*
X160817648Y-48265500D01*
X160817649Y-48265500D01*
X161022351Y-48265500D01*
X161022352Y-48265500D01*
X161224534Y-48233477D01*
X161419219Y-48170220D01*
X161601610Y-48077287D01*
X161767219Y-47956966D01*
X161883632Y-47840552D01*
X161944951Y-47807070D01*
X162014643Y-47812054D01*
X162064289Y-47846194D01*
X162200000Y-48000000D01*
X162200001Y-48000000D01*
X170205500Y-48000000D01*
X170272539Y-48019685D01*
X170318294Y-48072489D01*
X170329500Y-48124000D01*
X170329500Y-50553918D01*
X170329500Y-50553920D01*
X170329499Y-50553920D01*
X170358340Y-50698907D01*
X170358343Y-50698917D01*
X170414913Y-50835490D01*
X170414916Y-50835495D01*
X170419006Y-50841617D01*
X170497049Y-50958418D01*
X170497052Y-50958421D01*
X171813181Y-52274548D01*
X171846666Y-52335871D01*
X171849500Y-52362229D01*
X171849500Y-54736718D01*
X171849500Y-54736720D01*
X171849499Y-54736720D01*
X171878340Y-54881707D01*
X171878343Y-54881717D01*
X171934914Y-55018291D01*
X171934916Y-55018295D01*
X171960801Y-55057035D01*
X171960800Y-55057035D01*
X172017046Y-55141214D01*
X172017052Y-55141221D01*
X172442797Y-55566966D01*
X172476282Y-55628289D01*
X172479052Y-55650649D01*
X172600000Y-59399999D01*
X172600000Y-59400000D01*
X173041664Y-59749999D01*
X173041667Y-59750000D01*
X180982763Y-59750000D01*
X181049802Y-59769685D01*
X181095557Y-59822489D01*
X181105501Y-59891647D01*
X181076476Y-59955203D01*
X181070444Y-59961681D01*
X180530344Y-60501781D01*
X180469021Y-60535266D01*
X180442663Y-60538100D01*
X169353929Y-60538100D01*
X169228261Y-60563097D01*
X169228255Y-60563099D01*
X169109874Y-60612134D01*
X169003326Y-60683326D01*
X164720152Y-64966500D01*
X164658829Y-64999985D01*
X164589137Y-64995001D01*
X164533204Y-64953129D01*
X164508787Y-64887665D01*
X164509998Y-64859416D01*
X164511100Y-64852460D01*
X164511100Y-64636733D01*
X164487009Y-64484634D01*
X164477354Y-64423674D01*
X164410692Y-64218511D01*
X164312757Y-64026301D01*
X164185959Y-63851779D01*
X164033421Y-63699241D01*
X163862304Y-63574917D01*
X163819640Y-63519588D01*
X163813661Y-63449974D01*
X163846267Y-63388180D01*
X163862302Y-63374284D01*
X164033421Y-63249959D01*
X164185959Y-63097421D01*
X164312757Y-62922899D01*
X164410692Y-62730689D01*
X164477354Y-62525526D01*
X164500020Y-62382419D01*
X164511100Y-62312466D01*
X164511100Y-62096733D01*
X164486570Y-61941864D01*
X164477354Y-61883674D01*
X164410692Y-61678511D01*
X164312757Y-61486301D01*
X164185959Y-61311779D01*
X164033421Y-61159241D01*
X163858899Y-61032443D01*
X163666689Y-60934508D01*
X163461526Y-60867846D01*
X163461524Y-60867845D01*
X163461522Y-60867845D01*
X163248466Y-60834100D01*
X163248461Y-60834100D01*
X162582739Y-60834100D01*
X162582734Y-60834100D01*
X162369677Y-60867845D01*
X162164508Y-60934509D01*
X161972297Y-61032445D01*
X161794850Y-61161368D01*
X161729044Y-61184848D01*
X161660990Y-61169023D01*
X161612295Y-61118917D01*
X161597968Y-61060132D01*
X161598408Y-61000776D01*
X161612976Y-59033857D01*
X161633157Y-58966968D01*
X161686298Y-58921605D01*
X161739072Y-58910796D01*
X162091014Y-58916761D01*
X162213391Y-58903855D01*
X162271774Y-58890364D01*
X162271787Y-58890359D01*
X162272687Y-58890092D01*
X162320538Y-58874725D01*
X162320715Y-58875268D01*
X162478931Y-58823859D01*
X162479179Y-58823780D01*
X162479331Y-58823776D01*
X162497676Y-58819371D01*
X162612884Y-58801125D01*
X162632270Y-58799600D01*
X163198929Y-58799600D01*
X163218314Y-58801125D01*
X163333524Y-58819372D01*
X163352416Y-58823908D01*
X163463368Y-58859958D01*
X163481337Y-58867402D01*
X163499745Y-58876782D01*
X163585081Y-58908675D01*
X163590756Y-58910796D01*
X163607073Y-58916894D01*
X163661267Y-58930391D01*
X163774863Y-58945301D01*
X163970563Y-58948618D01*
X163970564Y-58948618D01*
X163979565Y-58948127D01*
X164042579Y-58944693D01*
X164077594Y-58940263D01*
X164148356Y-58926119D01*
X164185330Y-58909981D01*
X164261222Y-58883013D01*
X164304888Y-58852898D01*
X164307671Y-58851575D01*
X164339571Y-58831832D01*
X164339613Y-58831805D01*
X164339613Y-58831804D01*
X164339619Y-58831801D01*
X164358940Y-58815622D01*
X164379667Y-58801329D01*
X164396888Y-58785397D01*
X164396080Y-58784524D01*
X164449934Y-58739432D01*
X164483485Y-58689115D01*
X164521589Y-58642137D01*
X164541933Y-58593455D01*
X164543544Y-58590836D01*
X164549728Y-58577880D01*
X164549730Y-58577881D01*
X164559838Y-58556707D01*
X164559859Y-58556662D01*
X164567369Y-58532596D01*
X164577070Y-58509384D01*
X164582944Y-58486670D01*
X164581793Y-58486372D01*
X164602720Y-58419314D01*
X164603467Y-58375034D01*
X164603643Y-58364662D01*
X164604378Y-58353106D01*
X164610398Y-58298748D01*
X164537245Y-56049326D01*
X164517636Y-55925403D01*
X164500677Y-55866725D01*
X164451152Y-55751447D01*
X164423151Y-55716320D01*
X164396756Y-55651628D01*
X164409526Y-55582935D01*
X164414566Y-55573945D01*
X164445414Y-55523934D01*
X164500599Y-55357397D01*
X164511100Y-55254609D01*
X164511099Y-53914592D01*
X164500599Y-53811803D01*
X164445414Y-53645266D01*
X164353312Y-53495944D01*
X164229256Y-53371888D01*
X164122147Y-53305823D01*
X164079936Y-53279787D01*
X164079931Y-53279785D01*
X164043705Y-53267781D01*
X163913397Y-53224601D01*
X163913395Y-53224600D01*
X163810610Y-53214100D01*
X162020598Y-53214100D01*
X162020581Y-53214101D01*
X161917803Y-53224600D01*
X161917800Y-53224601D01*
X161751268Y-53279785D01*
X161751263Y-53279787D01*
X161601942Y-53371889D01*
X161477889Y-53495942D01*
X161385787Y-53645263D01*
X161385785Y-53645268D01*
X161351908Y-53747504D01*
X161312135Y-53804949D01*
X161247619Y-53831772D01*
X161234202Y-53832500D01*
X159084471Y-53832500D01*
X159017432Y-53812815D01*
X158984154Y-53781386D01*
X158878366Y-53635781D01*
X158733619Y-53491034D01*
X158733617Y-53491032D01*
X158733612Y-53491028D01*
X158588015Y-53385246D01*
X158545349Y-53329916D01*
X158536900Y-53284928D01*
X158536900Y-51015328D01*
X158511902Y-50889661D01*
X158511901Y-50889660D01*
X158511901Y-50889656D01*
X158462865Y-50771273D01*
X158414515Y-50698912D01*
X158414512Y-50698907D01*
X158391678Y-50664732D01*
X158057634Y-50330688D01*
X158024149Y-50269365D01*
X158027383Y-50204691D01*
X158053353Y-50124768D01*
X158073505Y-49997526D01*
X158090300Y-49891497D01*
X158090300Y-49655302D01*
X158053353Y-49422031D01*
X157997753Y-49250913D01*
X157980368Y-49197408D01*
X157980366Y-49197405D01*
X157980366Y-49197403D01*
X157907907Y-49055195D01*
X157873143Y-48986967D01*
X157734317Y-48795890D01*
X157567310Y-48628883D01*
X157376233Y-48490057D01*
X157165796Y-48382833D01*
X156941168Y-48309846D01*
X156707897Y-48272900D01*
X156707892Y-48272900D01*
X156471708Y-48272900D01*
X156471703Y-48272900D01*
X156238431Y-48309846D01*
X156013803Y-48382833D01*
X155803366Y-48490057D01*
X155734417Y-48540152D01*
X155612290Y-48628883D01*
X155612288Y-48628885D01*
X155612287Y-48628885D01*
X155445285Y-48795887D01*
X155445285Y-48795888D01*
X155445283Y-48795890D01*
X155405146Y-48851134D01*
X155306457Y-48986966D01*
X155271693Y-49055195D01*
X155223718Y-49105991D01*
X155161208Y-49122900D01*
X151518392Y-49122900D01*
X151451353Y-49103215D01*
X151407907Y-49055195D01*
X151373142Y-48986966D01*
X151234317Y-48795890D01*
X151067310Y-48628883D01*
X150876233Y-48490057D01*
X150665796Y-48382833D01*
X150441168Y-48309846D01*
X150207897Y-48272900D01*
X150207892Y-48272900D01*
X149971708Y-48272900D01*
X149971703Y-48272900D01*
X149738431Y-48309846D01*
X149513803Y-48382833D01*
X149303366Y-48490057D01*
X149234417Y-48540152D01*
X149112290Y-48628883D01*
X149112288Y-48628885D01*
X149112287Y-48628885D01*
X148945285Y-48795887D01*
X148945285Y-48795888D01*
X148945283Y-48795890D01*
X148905146Y-48851134D01*
X148806457Y-48986966D01*
X148699233Y-49197403D01*
X148626246Y-49422031D01*
X148589300Y-49655302D01*
X148589300Y-49891497D01*
X148626246Y-50124768D01*
X148699233Y-50349396D01*
X148758418Y-50465552D01*
X148806457Y-50559833D01*
X148945283Y-50750910D01*
X149112290Y-50917917D01*
X149170868Y-50960477D01*
X149213533Y-51015806D01*
X149219512Y-51085420D01*
X149207919Y-51118152D01*
X149085506Y-51352780D01*
X149017638Y-51482859D01*
X148969178Y-51533189D01*
X148907703Y-51549500D01*
X141898071Y-51549500D01*
X141831032Y-51529815D01*
X141797754Y-51498386D01*
X141691966Y-51352781D01*
X141547219Y-51208034D01*
X141547213Y-51208028D01*
X141381613Y-51087715D01*
X141381612Y-51087714D01*
X141381610Y-51087713D01*
X141320826Y-51056742D01*
X141199223Y-50994781D01*
X141004534Y-50931522D01*
X140829995Y-50903878D01*
X140802352Y-50899500D01*
X140597648Y-50899500D01*
X140573329Y-50903351D01*
X140395465Y-50931522D01*
X140200776Y-50994781D01*
X140018386Y-51087715D01*
X139852786Y-51208028D01*
X139708028Y-51352786D01*
X139587715Y-51518386D01*
X139494781Y-51700776D01*
X139431522Y-51895465D01*
X139399500Y-52097648D01*
X139399500Y-52302351D01*
X139431522Y-52504534D01*
X139494781Y-52699223D01*
X139550136Y-52807862D01*
X139586987Y-52880186D01*
X139587715Y-52881613D01*
X139708028Y-53047213D01*
X139852784Y-53191969D01*
X139968006Y-53275681D01*
X140010673Y-53331011D01*
X140016652Y-53400624D01*
X139984047Y-53462419D01*
X139923209Y-53496777D01*
X139895122Y-53500000D01*
X130768633Y-53500000D01*
X130701594Y-53480315D01*
X130655839Y-53427511D01*
X130650927Y-53415004D01*
X130636640Y-53371888D01*
X130594814Y-53245666D01*
X130502712Y-53096344D01*
X130378656Y-52972288D01*
X130229334Y-52880186D01*
X130062797Y-52825001D01*
X130062795Y-52825000D01*
X129960010Y-52814500D01*
X128759998Y-52814500D01*
X128759981Y-52814501D01*
X128657203Y-52825000D01*
X128657200Y-52825001D01*
X128490668Y-52880185D01*
X128490663Y-52880187D01*
X128341342Y-52972289D01*
X128217289Y-53096342D01*
X128125187Y-53245663D01*
X128125184Y-53245671D01*
X128113972Y-53279506D01*
X128100102Y-53299537D01*
X128089980Y-53321703D01*
X128080567Y-53327751D01*
X128074199Y-53336950D01*
X128051700Y-53346303D01*
X128031202Y-53359477D01*
X128014098Y-53361936D01*
X128009683Y-53363772D01*
X127996267Y-53364500D01*
X127945418Y-53364500D01*
X127878379Y-53344815D01*
X127845100Y-53313385D01*
X127811971Y-53267787D01*
X127811967Y-53267782D01*
X127667213Y-53123028D01*
X127501613Y-53002715D01*
X127501612Y-53002714D01*
X127501610Y-53002713D01*
X127441898Y-52972288D01*
X127319223Y-52909781D01*
X127124534Y-52846522D01*
X126949995Y-52818878D01*
X126922352Y-52814500D01*
X126717648Y-52814500D01*
X126693329Y-52818351D01*
X126515465Y-52846522D01*
X126320776Y-52909781D01*
X126138386Y-53002715D01*
X125972786Y-53123028D01*
X125828032Y-53267782D01*
X125828028Y-53267787D01*
X125794900Y-53313385D01*
X125739571Y-53356051D01*
X125694582Y-53364500D01*
X125405418Y-53364500D01*
X125338379Y-53344815D01*
X125305100Y-53313385D01*
X125271971Y-53267787D01*
X125271967Y-53267782D01*
X125127213Y-53123028D01*
X124961613Y-53002715D01*
X124961612Y-53002714D01*
X124961610Y-53002713D01*
X124901898Y-52972288D01*
X124779223Y-52909781D01*
X124584534Y-52846522D01*
X124409995Y-52818878D01*
X124382352Y-52814500D01*
X124177648Y-52814500D01*
X124153329Y-52818351D01*
X123975465Y-52846522D01*
X123780776Y-52909781D01*
X123598386Y-53002715D01*
X123432786Y-53123028D01*
X123288032Y-53267782D01*
X123288028Y-53267787D01*
X123254900Y-53313385D01*
X123199571Y-53356051D01*
X123154582Y-53364500D01*
X122865418Y-53364500D01*
X122798379Y-53344815D01*
X122765100Y-53313385D01*
X122731971Y-53267787D01*
X122731967Y-53267782D01*
X122587213Y-53123028D01*
X122421613Y-53002715D01*
X122421612Y-53002714D01*
X122421610Y-53002713D01*
X122361898Y-52972288D01*
X122239223Y-52909781D01*
X122044534Y-52846522D01*
X121869995Y-52818878D01*
X121842352Y-52814500D01*
X121637648Y-52814500D01*
X121613329Y-52818351D01*
X121435465Y-52846522D01*
X121240776Y-52909781D01*
X121058386Y-53002715D01*
X120892786Y-53123028D01*
X120748032Y-53267782D01*
X120748028Y-53267787D01*
X120714900Y-53313385D01*
X120659571Y-53356051D01*
X120614582Y-53364500D01*
X120325418Y-53364500D01*
X120258379Y-53344815D01*
X120225100Y-53313385D01*
X120191971Y-53267787D01*
X120191967Y-53267782D01*
X120047213Y-53123028D01*
X119881613Y-53002715D01*
X119881612Y-53002714D01*
X119881610Y-53002713D01*
X119821898Y-52972288D01*
X119699223Y-52909781D01*
X119504534Y-52846522D01*
X119329995Y-52818878D01*
X119302352Y-52814500D01*
X119097648Y-52814500D01*
X118919886Y-52842654D01*
X118850593Y-52833699D01*
X118812808Y-52807862D01*
X118306274Y-52301327D01*
X118306273Y-52301326D01*
X118306269Y-52301323D01*
X118199727Y-52230135D01*
X118081344Y-52181099D01*
X118081338Y-52181097D01*
X117955671Y-52156100D01*
X117955669Y-52156100D01*
X116361671Y-52156100D01*
X116294632Y-52136415D01*
X116261354Y-52104986D01*
X116155566Y-51959381D01*
X116010819Y-51814634D01*
X116010813Y-51814628D01*
X115845213Y-51694315D01*
X115845212Y-51694314D01*
X115845210Y-51694313D01*
X115785127Y-51663699D01*
X115662823Y-51601381D01*
X115468134Y-51538122D01*
X115277228Y-51507886D01*
X115265952Y-51506100D01*
X115061248Y-51506100D01*
X115049972Y-51507886D01*
X114859065Y-51538122D01*
X114664376Y-51601381D01*
X114481986Y-51694315D01*
X114316386Y-51814628D01*
X114171628Y-51959386D01*
X114051315Y-52124986D01*
X113958381Y-52307376D01*
X113895122Y-52502065D01*
X113863100Y-52704248D01*
X113863100Y-52908951D01*
X113895122Y-53111134D01*
X113958381Y-53305823D01*
X114020385Y-53427511D01*
X114047290Y-53480315D01*
X114051315Y-53488213D01*
X114171628Y-53653813D01*
X114212278Y-53694463D01*
X114245763Y-53755786D01*
X114248597Y-53782471D01*
X114231874Y-60129929D01*
X114212012Y-60196916D01*
X114159088Y-60242532D01*
X114146192Y-60247533D01*
X114000778Y-60294781D01*
X113818386Y-60387715D01*
X113652786Y-60508028D01*
X113508028Y-60652786D01*
X113387715Y-60818386D01*
X113294781Y-61000776D01*
X113231522Y-61195465D01*
X113199500Y-61397648D01*
X113199500Y-61602351D01*
X113231522Y-61804534D01*
X113294781Y-61999223D01*
X113333328Y-62074874D01*
X113378188Y-62162917D01*
X113387715Y-62181613D01*
X113508028Y-62347213D01*
X113652784Y-62491969D01*
X113721863Y-62542157D01*
X113798385Y-62597753D01*
X113801725Y-62602083D01*
X113806703Y-62604357D01*
X113822833Y-62629456D01*
X113841051Y-62653081D01*
X113842304Y-62659754D01*
X113844477Y-62663135D01*
X113849500Y-62698070D01*
X113849500Y-62805895D01*
X113829815Y-62872934D01*
X113777011Y-62918689D01*
X113707853Y-62928633D01*
X113706102Y-62928368D01*
X113671572Y-62922899D01*
X113594552Y-62910700D01*
X113389848Y-62910700D01*
X113365529Y-62914551D01*
X113187665Y-62942722D01*
X112992976Y-63005981D01*
X112810586Y-63098915D01*
X112644986Y-63219228D01*
X112500228Y-63363986D01*
X112379915Y-63529586D01*
X112286981Y-63711976D01*
X112223722Y-63906665D01*
X112195454Y-64085147D01*
X112191700Y-64108848D01*
X112191700Y-64313552D01*
X112194786Y-64333034D01*
X112223723Y-64515735D01*
X112223723Y-64515738D01*
X112280170Y-64689464D01*
X112280527Y-64701962D01*
X112285411Y-64713474D01*
X112281505Y-64736229D01*
X112282165Y-64759305D01*
X112275708Y-64770012D01*
X112273593Y-64782337D01*
X112258005Y-64799368D01*
X112246084Y-64819138D01*
X112233725Y-64825897D01*
X112226421Y-64833879D01*
X112201327Y-64843618D01*
X112193930Y-64847664D01*
X112186985Y-64849500D01*
X112185931Y-64849500D01*
X112060256Y-64874499D01*
X112011221Y-64894810D01*
X112003520Y-64897999D01*
X112003515Y-64898001D01*
X111941881Y-64923530D01*
X111941863Y-64923540D01*
X111835332Y-64994721D01*
X111835325Y-64994727D01*
X111356326Y-65473726D01*
X111356323Y-65473731D01*
X111297288Y-65562084D01*
X111289167Y-65574238D01*
X111285134Y-65580274D01*
X111236099Y-65698655D01*
X111236097Y-65698661D01*
X111211100Y-65824328D01*
X111211100Y-73491591D01*
X111191415Y-73558630D01*
X111174781Y-73579272D01*
X108282927Y-76471125D01*
X108282926Y-76471126D01*
X108225572Y-76556965D01*
X108225570Y-76556968D01*
X108211736Y-76577670D01*
X108211733Y-76577675D01*
X108162699Y-76696055D01*
X108162697Y-76696061D01*
X108137700Y-76821728D01*
X108137700Y-76824446D01*
X108137297Y-76825817D01*
X108137103Y-76827791D01*
X108136728Y-76827754D01*
X108118015Y-76891485D01*
X108065211Y-76937240D01*
X108013700Y-76948446D01*
X107740330Y-76948446D01*
X107740323Y-76948447D01*
X107680716Y-76954854D01*
X107545871Y-77005148D01*
X107545864Y-77005152D01*
X107430655Y-77091398D01*
X107430652Y-77091401D01*
X107344406Y-77206610D01*
X107344402Y-77206617D01*
X107294108Y-77341463D01*
X107287701Y-77401062D01*
X107287701Y-77401069D01*
X107287700Y-77401081D01*
X107287700Y-79496816D01*
X107287701Y-79496822D01*
X107294108Y-79556429D01*
X107344402Y-79691274D01*
X107344406Y-79691281D01*
X107430652Y-79806490D01*
X107430655Y-79806493D01*
X107545864Y-79892739D01*
X107545871Y-79892743D01*
X107680717Y-79943037D01*
X107680716Y-79943037D01*
X107687644Y-79943781D01*
X107740327Y-79949446D01*
X109836072Y-79949445D01*
X109895683Y-79943037D01*
X110030531Y-79892742D01*
X110145746Y-79806492D01*
X110231996Y-79691277D01*
X110282291Y-79556429D01*
X110288700Y-79496819D01*
X110288699Y-78725292D01*
X110298139Y-78677839D01*
X110314353Y-78638696D01*
X110314356Y-78638685D01*
X110339354Y-78513017D01*
X110339354Y-78384874D01*
X110314356Y-78259207D01*
X110314355Y-78259203D01*
X110304793Y-78236119D01*
X110298138Y-78220051D01*
X110288699Y-78172598D01*
X110288699Y-77401075D01*
X110288698Y-77401069D01*
X110288697Y-77401062D01*
X110282291Y-77341463D01*
X110277732Y-77329241D01*
X110272747Y-77259553D01*
X110306230Y-77198229D01*
X110309766Y-77194831D01*
X113497723Y-74252101D01*
X113502401Y-74247999D01*
X114490191Y-73424841D01*
X114554294Y-73397045D01*
X114569574Y-73396100D01*
X133384792Y-73396100D01*
X133451831Y-73415785D01*
X133472473Y-73432419D01*
X134695181Y-74655127D01*
X134728666Y-74716450D01*
X134731500Y-74742808D01*
X134731500Y-79566070D01*
X134748799Y-79653033D01*
X134748799Y-79653035D01*
X134756497Y-79691736D01*
X134756499Y-79691744D01*
X134804028Y-79806490D01*
X134805535Y-79810127D01*
X134876723Y-79916669D01*
X134876726Y-79916673D01*
X136444755Y-81484702D01*
X136478240Y-81546025D01*
X136473256Y-81615717D01*
X136431384Y-81671650D01*
X136365920Y-81696067D01*
X136297647Y-81681215D01*
X136284189Y-81672701D01*
X136190613Y-81604715D01*
X136190612Y-81604714D01*
X136190610Y-81604713D01*
X136101512Y-81559315D01*
X136008223Y-81511781D01*
X135813534Y-81448522D01*
X135638995Y-81420878D01*
X135611352Y-81416500D01*
X135406648Y-81416500D01*
X135382329Y-81420351D01*
X135204465Y-81448522D01*
X135009776Y-81511781D01*
X134827386Y-81604715D01*
X134661786Y-81725028D01*
X134517032Y-81869782D01*
X134517028Y-81869787D01*
X134483900Y-81915385D01*
X134428571Y-81958051D01*
X134383582Y-81966500D01*
X133634418Y-81966500D01*
X133567379Y-81946815D01*
X133534100Y-81915385D01*
X133500971Y-81869787D01*
X133500967Y-81869782D01*
X133356213Y-81725028D01*
X133190613Y-81604715D01*
X133190612Y-81604714D01*
X133190610Y-81604713D01*
X133101512Y-81559315D01*
X133008223Y-81511781D01*
X132813534Y-81448522D01*
X132638995Y-81420878D01*
X132611352Y-81416500D01*
X132406648Y-81416500D01*
X132382329Y-81420351D01*
X132204465Y-81448522D01*
X132009776Y-81511781D01*
X131827386Y-81604715D01*
X131661786Y-81725028D01*
X131517032Y-81869782D01*
X131517028Y-81869787D01*
X131483900Y-81915385D01*
X131428571Y-81958051D01*
X131383582Y-81966500D01*
X130448325Y-81966500D01*
X130381286Y-81946815D01*
X130348006Y-81915384D01*
X130277969Y-81818984D01*
X130133213Y-81674228D01*
X129967613Y-81553915D01*
X129967612Y-81553914D01*
X129967610Y-81553913D01*
X129908392Y-81523740D01*
X129785223Y-81460981D01*
X129590534Y-81397722D01*
X129415995Y-81370078D01*
X129388352Y-81365700D01*
X129183648Y-81365700D01*
X129159329Y-81369551D01*
X128981465Y-81397722D01*
X128786776Y-81460981D01*
X128604386Y-81553915D01*
X128438786Y-81674228D01*
X128294030Y-81818984D01*
X128223994Y-81915384D01*
X128168664Y-81958051D01*
X128123675Y-81966500D01*
X126700881Y-81966500D01*
X126555893Y-81995340D01*
X126555883Y-81995343D01*
X126419312Y-82051912D01*
X126419299Y-82051919D01*
X126296385Y-82134048D01*
X126296381Y-82134051D01*
X125373649Y-83056782D01*
X125312326Y-83090267D01*
X125285968Y-83093101D01*
X124650329Y-83093101D01*
X124650323Y-83093102D01*
X124590716Y-83099509D01*
X124455871Y-83149803D01*
X124455864Y-83149807D01*
X124340655Y-83236053D01*
X124340652Y-83236056D01*
X124254406Y-83351265D01*
X124254402Y-83351272D01*
X124204108Y-83486118D01*
X124197701Y-83545717D01*
X124197700Y-83545736D01*
X124197700Y-84841471D01*
X124197701Y-84841477D01*
X124204108Y-84901084D01*
X124254402Y-85035929D01*
X124254406Y-85035936D01*
X124340652Y-85151145D01*
X124340655Y-85151148D01*
X124455864Y-85237394D01*
X124455871Y-85237398D01*
X124590717Y-85287692D01*
X124590716Y-85287692D01*
X124597644Y-85288436D01*
X124650327Y-85294101D01*
X125946072Y-85294100D01*
X126005683Y-85287692D01*
X126140531Y-85237397D01*
X126255746Y-85151147D01*
X126341996Y-85035932D01*
X126346160Y-85024766D01*
X126388029Y-84968835D01*
X126453493Y-84944417D01*
X126462341Y-84944101D01*
X135037771Y-84944101D01*
X135104810Y-84963786D01*
X135125452Y-84980420D01*
X136348449Y-86203416D01*
X136452984Y-86307951D01*
X136452985Y-86307952D01*
X136575898Y-86390080D01*
X136575911Y-86390087D01*
X136712482Y-86446656D01*
X136712487Y-86446658D01*
X136712491Y-86446658D01*
X136712492Y-86446659D01*
X136857479Y-86475500D01*
X136857482Y-86475500D01*
X137939582Y-86475500D01*
X138006621Y-86495185D01*
X138039900Y-86526615D01*
X138073028Y-86572212D01*
X138073032Y-86572217D01*
X138217786Y-86716971D01*
X138372749Y-86829556D01*
X138383390Y-86837287D01*
X138476080Y-86884515D01*
X138565776Y-86930218D01*
X138565778Y-86930218D01*
X138565781Y-86930220D01*
X138670137Y-86964127D01*
X138760465Y-86993477D01*
X138779697Y-86996523D01*
X138962648Y-87025500D01*
X138962649Y-87025500D01*
X139167351Y-87025500D01*
X139167352Y-87025500D01*
X139369534Y-86993477D01*
X139564219Y-86930220D01*
X139746610Y-86837287D01*
X139839590Y-86769732D01*
X139912213Y-86716971D01*
X139912215Y-86716968D01*
X139912219Y-86716966D01*
X140056966Y-86572219D01*
X140056966Y-86572218D01*
X140060411Y-86568774D01*
X140061852Y-86570215D01*
X140113148Y-86536689D01*
X140183015Y-86536150D01*
X140242083Y-86573471D01*
X140271596Y-86636801D01*
X140272998Y-86655702D01*
X140264985Y-89866747D01*
X140245133Y-89933738D01*
X140192215Y-89979361D01*
X140123032Y-89989131D01*
X140059549Y-89959948D01*
X140053304Y-89954119D01*
X139912213Y-89813028D01*
X139746613Y-89692715D01*
X139746612Y-89692714D01*
X139746610Y-89692713D01*
X139689653Y-89663691D01*
X139564223Y-89599781D01*
X139369534Y-89536522D01*
X139194995Y-89508878D01*
X139167352Y-89504500D01*
X138962648Y-89504500D01*
X138962645Y-89504500D01*
X138942859Y-89507633D01*
X138897840Y-89506482D01*
X136500002Y-89000000D01*
X127025400Y-88849199D01*
X127025400Y-88849200D01*
X127003174Y-100206943D01*
X127000397Y-101625743D01*
X126980581Y-101692743D01*
X126927688Y-101738395D01*
X126876397Y-101749500D01*
X105616080Y-101749500D01*
X105471092Y-101778340D01*
X105471082Y-101778343D01*
X105334508Y-101834914D01*
X105334505Y-101834915D01*
X105334505Y-101834916D01*
X105297154Y-101859873D01*
X105297153Y-101859872D01*
X105211585Y-101917046D01*
X105211578Y-101917052D01*
X101733762Y-105394868D01*
X101684400Y-105425118D01*
X101500776Y-105484781D01*
X101318386Y-105577715D01*
X101152786Y-105698028D01*
X101008028Y-105842786D01*
X100887715Y-106008386D01*
X100794781Y-106190776D01*
X100731522Y-106385465D01*
X100706378Y-106544223D01*
X100699500Y-106587648D01*
X100699500Y-106792352D01*
X100702355Y-106810379D01*
X100731522Y-106994534D01*
X100794781Y-107189223D01*
X100887715Y-107371613D01*
X101008028Y-107537213D01*
X101152786Y-107681971D01*
X101292373Y-107783385D01*
X101318390Y-107802287D01*
X101434607Y-107861503D01*
X101500776Y-107895218D01*
X101500778Y-107895218D01*
X101500781Y-107895220D01*
X101584925Y-107922560D01*
X101695465Y-107958477D01*
X101796557Y-107974488D01*
X101897648Y-107990500D01*
X101897649Y-107990500D01*
X102102351Y-107990500D01*
X102102352Y-107990500D01*
X102304534Y-107958477D01*
X102499219Y-107895220D01*
X102681610Y-107802287D01*
X102791062Y-107722766D01*
X102847213Y-107681971D01*
X102847215Y-107681968D01*
X102847219Y-107681966D01*
X102991966Y-107537219D01*
X102991968Y-107537215D01*
X102991971Y-107537213D01*
X103044732Y-107464590D01*
X103112287Y-107371610D01*
X103205220Y-107189219D01*
X103238861Y-107085681D01*
X103278299Y-107028006D01*
X103342657Y-107000808D01*
X103356792Y-107000000D01*
X103643208Y-107000000D01*
X103710247Y-107019685D01*
X103756002Y-107072489D01*
X103761137Y-107085678D01*
X103794780Y-107189219D01*
X103875285Y-107347219D01*
X103887715Y-107371613D01*
X104008028Y-107537213D01*
X104152786Y-107681971D01*
X104292373Y-107783385D01*
X104318390Y-107802287D01*
X104434607Y-107861503D01*
X104500776Y-107895218D01*
X104500778Y-107895218D01*
X104500781Y-107895220D01*
X104584925Y-107922560D01*
X104695465Y-107958477D01*
X104796557Y-107974488D01*
X104897648Y-107990500D01*
X104897649Y-107990500D01*
X105102351Y-107990500D01*
X105102352Y-107990500D01*
X105304534Y-107958477D01*
X105499219Y-107895220D01*
X105681610Y-107802287D01*
X105791062Y-107722766D01*
X105847213Y-107681971D01*
X105847215Y-107681968D01*
X105847219Y-107681966D01*
X105991966Y-107537219D01*
X105991968Y-107537215D01*
X105991971Y-107537213D01*
X106044732Y-107464590D01*
X106112287Y-107371610D01*
X106205220Y-107189219D01*
X106238861Y-107085681D01*
X106278299Y-107028006D01*
X106342657Y-107000808D01*
X106356792Y-107000000D01*
X107889191Y-107000000D01*
X107956230Y-107019685D01*
X107999674Y-107067703D01*
X108034431Y-107135916D01*
X108057715Y-107181614D01*
X108178028Y-107347213D01*
X108322786Y-107491971D01*
X108461882Y-107593028D01*
X108488390Y-107612287D01*
X108670781Y-107705220D01*
X108670785Y-107705221D01*
X108672937Y-107706113D01*
X108673631Y-107706672D01*
X108675122Y-107707432D01*
X108674962Y-107707744D01*
X108727347Y-107749946D01*
X108749420Y-107816238D01*
X108749500Y-107820680D01*
X108749500Y-111080424D01*
X108730494Y-111146394D01*
X108724995Y-111155147D01*
X108699077Y-111196395D01*
X108641359Y-111361341D01*
X108641357Y-111361351D01*
X108626700Y-111491441D01*
X108626700Y-112828558D01*
X108641357Y-112958648D01*
X108641359Y-112958658D01*
X108695496Y-113113369D01*
X108699078Y-113123606D01*
X108792053Y-113271576D01*
X108915624Y-113395147D01*
X109063594Y-113488122D01*
X109228543Y-113545841D01*
X109228549Y-113545841D01*
X109228551Y-113545842D01*
X109269950Y-113550506D01*
X109358642Y-113560499D01*
X109358645Y-113560500D01*
X109358648Y-113560500D01*
X109995755Y-113560500D01*
X109995756Y-113560499D01*
X110125857Y-113545841D01*
X110290806Y-113488122D01*
X110438776Y-113395147D01*
X110562347Y-113271576D01*
X110655322Y-113123606D01*
X110705992Y-112978800D01*
X110746711Y-112922029D01*
X110811664Y-112896282D01*
X110880225Y-112909738D01*
X110910712Y-112932079D01*
X111504837Y-113526204D01*
X111538322Y-113587527D01*
X111541155Y-113613343D01*
X111551889Y-116071058D01*
X111532497Y-116138183D01*
X111479894Y-116184168D01*
X111427890Y-116195600D01*
X106195237Y-116195600D01*
X106128198Y-116175915D01*
X106094918Y-116144484D01*
X106090340Y-116138183D01*
X106021850Y-116043913D01*
X105991969Y-116002784D01*
X105847213Y-115858028D01*
X105681613Y-115737715D01*
X105681612Y-115737714D01*
X105681610Y-115737713D01*
X105614151Y-115703341D01*
X105499223Y-115644781D01*
X105304534Y-115581522D01*
X105129995Y-115553878D01*
X105102352Y-115549500D01*
X104897648Y-115549500D01*
X104873329Y-115553351D01*
X104695465Y-115581522D01*
X104500776Y-115644781D01*
X104318386Y-115737715D01*
X104152786Y-115858028D01*
X104008028Y-116002786D01*
X103887715Y-116168386D01*
X103794781Y-116350776D01*
X103731522Y-116545465D01*
X103699500Y-116747648D01*
X103699500Y-116952352D01*
X103701576Y-116965461D01*
X103708318Y-117008026D01*
X103707616Y-117013450D01*
X103709529Y-117018577D01*
X103703186Y-117047731D01*
X103699363Y-117077320D01*
X103695530Y-117082924D01*
X103694677Y-117086850D01*
X103673527Y-117115105D01*
X103575449Y-117213182D01*
X103514129Y-117246666D01*
X103487770Y-117249500D01*
X103398621Y-117249500D01*
X103331582Y-117229815D01*
X103285827Y-117177011D01*
X103275883Y-117107853D01*
X103276148Y-117106102D01*
X103298424Y-116965461D01*
X103300500Y-116952352D01*
X103300500Y-116747648D01*
X103295596Y-116716685D01*
X103268477Y-116545465D01*
X103224099Y-116408884D01*
X103205220Y-116350781D01*
X103205218Y-116350778D01*
X103205218Y-116350776D01*
X103168150Y-116278028D01*
X103112287Y-116168390D01*
X103102981Y-116155581D01*
X102991971Y-116002786D01*
X102847213Y-115858028D01*
X102681613Y-115737715D01*
X102681612Y-115737714D01*
X102681610Y-115737713D01*
X102614151Y-115703341D01*
X102499223Y-115644781D01*
X102304534Y-115581522D01*
X102129995Y-115553878D01*
X102102352Y-115549500D01*
X101897648Y-115549500D01*
X101873329Y-115553351D01*
X101695465Y-115581522D01*
X101500776Y-115644781D01*
X101318386Y-115737715D01*
X101152786Y-115858028D01*
X101008028Y-116002786D01*
X100887715Y-116168386D01*
X100794781Y-116350776D01*
X100735118Y-116534401D01*
X100728130Y-116545803D01*
X100726019Y-116555509D01*
X100704868Y-116583763D01*
X100601832Y-116686799D01*
X100540509Y-116720284D01*
X100470817Y-116715300D01*
X100447936Y-116703959D01*
X99337745Y-116002786D01*
X98352595Y-115380586D01*
X98400000Y-113200000D01*
X95214921Y-113200000D01*
X95277139Y-113137782D01*
X95293452Y-113113368D01*
X95386632Y-112973914D01*
X95408791Y-112920417D01*
X95430811Y-112867256D01*
X95430811Y-112867255D01*
X95433559Y-112860621D01*
X95462051Y-112791836D01*
X95500500Y-112598541D01*
X95500500Y-112401460D01*
X95500500Y-86159699D01*
X95520185Y-86092660D01*
X95520667Y-86091914D01*
X104794848Y-71912545D01*
X104848017Y-71867218D01*
X104897584Y-71856426D01*
X107250724Y-71836816D01*
X107924600Y-71000000D01*
X107915096Y-67965764D01*
X107899200Y-62890400D01*
X105497844Y-57733805D01*
X105486254Y-57681217D01*
X105487926Y-56838352D01*
X105494778Y-56815185D01*
X105497359Y-56791162D01*
X105505480Y-56779006D01*
X105507743Y-56771357D01*
X105515365Y-56760807D01*
X105519528Y-56755639D01*
X105586552Y-56688616D01*
X105646757Y-56598511D01*
X105668684Y-56565695D01*
X105725258Y-56429113D01*
X105754100Y-56284118D01*
X105754100Y-53932016D01*
X105773785Y-53864977D01*
X105805213Y-53831699D01*
X105850819Y-53798566D01*
X105995566Y-53653819D01*
X105995568Y-53653815D01*
X105995571Y-53653813D01*
X106060595Y-53564314D01*
X106115887Y-53488210D01*
X106208820Y-53305819D01*
X106272077Y-53111134D01*
X106304100Y-52908952D01*
X106304100Y-52704248D01*
X106281460Y-52561304D01*
X106272077Y-52502065D01*
X106238914Y-52400000D01*
X106208820Y-52307381D01*
X106208818Y-52307378D01*
X106208818Y-52307376D01*
X106144476Y-52181099D01*
X106115887Y-52124990D01*
X106096022Y-52097648D01*
X105995571Y-51959386D01*
X105850813Y-51814628D01*
X105685214Y-51694315D01*
X105676675Y-51689964D01*
X105566169Y-51633658D01*
X105515375Y-51585686D01*
X105498467Y-51522933D01*
X105499887Y-50806870D01*
X105519705Y-50739871D01*
X105543172Y-50712984D01*
X107972828Y-48629801D01*
X108036532Y-48601111D01*
X108053364Y-48599939D01*
X143472695Y-48553292D01*
X145562936Y-45567232D01*
X145608221Y-45527862D01*
X145690210Y-45486087D01*
X145855819Y-45365766D01*
X146000566Y-45221019D01*
X146000568Y-45221015D01*
X146000571Y-45221013D01*
X146087604Y-45101220D01*
X146120887Y-45055410D01*
X146213820Y-44873019D01*
X146277077Y-44678334D01*
X146299477Y-44536902D01*
X146304098Y-44525461D01*
X146304445Y-44516693D01*
X146320362Y-44485196D01*
X146333368Y-44466615D01*
X146347255Y-44450063D01*
X147007178Y-43790141D01*
X147007182Y-43790139D01*
X147146539Y-43650782D01*
X147256032Y-43486914D01*
X147299557Y-43381834D01*
X147309361Y-43358166D01*
X147309361Y-43358165D01*
X147313696Y-43347700D01*
X147331451Y-43304836D01*
X147369900Y-43111540D01*
X147369900Y-43024943D01*
X147389585Y-42957904D01*
X147392289Y-42953871D01*
X148200000Y-41800000D01*
X148310600Y-36220400D01*
X148560482Y-28378155D01*
X150887010Y-26133722D01*
X151680268Y-25368458D01*
X151742183Y-25336080D01*
X151766361Y-25333700D01*
X182347418Y-25333700D01*
X182414457Y-25353385D01*
G37*
%TD.AperFunction*%
%TD*%
%TA.AperFunction,Conductor*%
%TO.N,GND*%
G36*
X145406927Y-25394274D02*
G01*
X145425567Y-25408932D01*
X147066000Y-26974800D01*
X148560482Y-28378155D01*
X148310600Y-36220400D01*
X148310538Y-36223513D01*
X148310537Y-36223514D01*
X142634375Y-36245262D01*
X142567261Y-36225835D01*
X142521304Y-36173206D01*
X142509900Y-36121263D01*
X142509900Y-32063856D01*
X142489710Y-31962362D01*
X142488359Y-31955568D01*
X142471451Y-31870564D01*
X142426275Y-31761500D01*
X142396032Y-31688486D01*
X142286539Y-31524618D01*
X142147182Y-31385261D01*
X142147181Y-31385260D01*
X142115785Y-31353863D01*
X142115781Y-31353860D01*
X141951920Y-31244371D01*
X141951911Y-31244366D01*
X141873547Y-31211907D01*
X141823165Y-31191038D01*
X141769836Y-31168949D01*
X141636637Y-31142454D01*
X141632809Y-31141692D01*
X141632807Y-31141692D01*
X141576543Y-31130500D01*
X141576541Y-31130500D01*
X135334259Y-31130500D01*
X135334254Y-31130500D01*
X135302191Y-31136876D01*
X135302192Y-31136877D01*
X135140970Y-31168946D01*
X135140964Y-31168948D01*
X134958888Y-31244366D01*
X134958879Y-31244371D01*
X134795019Y-31353859D01*
X134795015Y-31353862D01*
X134193311Y-31955568D01*
X134083820Y-32065059D01*
X134083818Y-32065061D01*
X134014138Y-32134740D01*
X133944459Y-32204419D01*
X133834971Y-32368279D01*
X133834964Y-32368292D01*
X133759550Y-32550360D01*
X133759547Y-32550370D01*
X133721100Y-32743656D01*
X133721100Y-35386484D01*
X133701415Y-35453523D01*
X133684781Y-35474165D01*
X132223966Y-36934981D01*
X132162643Y-36968466D01*
X132136285Y-36971300D01*
X131658669Y-36971300D01*
X131591630Y-36951615D01*
X131570988Y-36934981D01*
X131539563Y-36903556D01*
X131539558Y-36903552D01*
X131361225Y-36773987D01*
X131361224Y-36773986D01*
X131361222Y-36773985D01*
X131279765Y-36732480D01*
X131164806Y-36673904D01*
X131164803Y-36673903D01*
X130955152Y-36605785D01*
X130846286Y-36588542D01*
X130737422Y-36571300D01*
X130516978Y-36571300D01*
X130474310Y-36578058D01*
X130299247Y-36605785D01*
X130089596Y-36673903D01*
X130089593Y-36673904D01*
X129893174Y-36773987D01*
X129714841Y-36903552D01*
X129714836Y-36903556D01*
X129558956Y-37059436D01*
X129558952Y-37059441D01*
X129429387Y-37237774D01*
X129329304Y-37434193D01*
X129329303Y-37434196D01*
X129261185Y-37643847D01*
X129239677Y-37779643D01*
X129226700Y-37861578D01*
X129226700Y-38082022D01*
X129240665Y-38170191D01*
X129261185Y-38299752D01*
X129329303Y-38509403D01*
X129329304Y-38509406D01*
X129429387Y-38705825D01*
X129558952Y-38884158D01*
X129558956Y-38884163D01*
X129714836Y-39040043D01*
X129714841Y-39040047D01*
X129870392Y-39153060D01*
X129893178Y-39169615D01*
X130021575Y-39235037D01*
X130089593Y-39269695D01*
X130089596Y-39269696D01*
X130194421Y-39303755D01*
X130299249Y-39337815D01*
X130516978Y-39372300D01*
X130516979Y-39372300D01*
X130520922Y-39372300D01*
X130587961Y-39391985D01*
X130633716Y-39444789D01*
X130644917Y-39495140D01*
X130664252Y-41561835D01*
X130645195Y-41629056D01*
X130643443Y-41631760D01*
X130410356Y-41981522D01*
X130356799Y-42026392D01*
X130304874Y-42036736D01*
X128271204Y-41999075D01*
X128204541Y-41978152D01*
X128159771Y-41924510D01*
X128149500Y-41875096D01*
X128149500Y-39081469D01*
X128169185Y-39014430D01*
X128185819Y-38993788D01*
X128228239Y-38951368D01*
X128295442Y-38884165D01*
X128425015Y-38705822D01*
X128525095Y-38509406D01*
X128593215Y-38299751D01*
X128627700Y-38082022D01*
X128627700Y-37861578D01*
X128593215Y-37643849D01*
X128525095Y-37434194D01*
X128525095Y-37434193D01*
X128453922Y-37294511D01*
X128425015Y-37237778D01*
X128324551Y-37099500D01*
X128295447Y-37059441D01*
X128295443Y-37059436D01*
X128139563Y-36903556D01*
X128139558Y-36903552D01*
X127961225Y-36773987D01*
X127961224Y-36773986D01*
X127961222Y-36773985D01*
X127879765Y-36732480D01*
X127764806Y-36673904D01*
X127764803Y-36673903D01*
X127555152Y-36605785D01*
X127446286Y-36588542D01*
X127337422Y-36571300D01*
X127116978Y-36571300D01*
X127074306Y-36578058D01*
X127069037Y-36577377D01*
X127064065Y-36579246D01*
X127034752Y-36572945D01*
X127005013Y-36569102D01*
X126999556Y-36565381D01*
X126995755Y-36564564D01*
X126967448Y-36543484D01*
X126964237Y-36540289D01*
X126930599Y-36479050D01*
X126927699Y-36452389D01*
X126927699Y-34963929D01*
X126927698Y-34963923D01*
X126927697Y-34963916D01*
X126921291Y-34904317D01*
X126870996Y-34769469D01*
X126870995Y-34769468D01*
X126870993Y-34769464D01*
X126784747Y-34654255D01*
X126784744Y-34654252D01*
X126669535Y-34568006D01*
X126669528Y-34568002D01*
X126534682Y-34517708D01*
X126534683Y-34517708D01*
X126475083Y-34511301D01*
X126475081Y-34511300D01*
X126475073Y-34511300D01*
X126475064Y-34511300D01*
X124579329Y-34511300D01*
X124579323Y-34511301D01*
X124519716Y-34517708D01*
X124384871Y-34568002D01*
X124384864Y-34568006D01*
X124269655Y-34654252D01*
X124269652Y-34654255D01*
X124183406Y-34769464D01*
X124183402Y-34769471D01*
X124133108Y-34904317D01*
X124126701Y-34963916D01*
X124126701Y-34963923D01*
X124126700Y-34963935D01*
X124126700Y-36426600D01*
X124107015Y-36493639D01*
X124054211Y-36539394D01*
X124002700Y-36550600D01*
X118488000Y-36550600D01*
X118420961Y-36530915D01*
X118375206Y-36478111D01*
X118364000Y-36426600D01*
X118364000Y-31490906D01*
X118377515Y-31434611D01*
X118415418Y-31360223D01*
X118415418Y-31360222D01*
X118415420Y-31360219D01*
X118478677Y-31165534D01*
X118510700Y-30963352D01*
X118510700Y-30758648D01*
X118478677Y-30556466D01*
X118478676Y-30556462D01*
X118478676Y-30556461D01*
X118415420Y-30361781D01*
X118415420Y-30361780D01*
X118377515Y-30287386D01*
X118364000Y-30231092D01*
X118364000Y-29286200D01*
X107365800Y-29286200D01*
X107339668Y-31106665D01*
X107319023Y-31173415D01*
X107314948Y-31179195D01*
X107256206Y-31257664D01*
X107256202Y-31257671D01*
X107205908Y-31392517D01*
X107199501Y-31452116D01*
X107199500Y-31452135D01*
X107199500Y-36147870D01*
X107199501Y-36147876D01*
X107205908Y-36207483D01*
X107221853Y-36250232D01*
X107226837Y-36319924D01*
X107193352Y-36381247D01*
X107132028Y-36414731D01*
X107106159Y-36417564D01*
X100957824Y-36441769D01*
X100890708Y-36422349D01*
X100844745Y-36369725D01*
X100833336Y-36317433D01*
X100859364Y-26843543D01*
X100879233Y-26776560D01*
X100887230Y-26765565D01*
X101962814Y-25445632D01*
X102020422Y-25406099D01*
X102058862Y-25399965D01*
X145339876Y-25374629D01*
X145406927Y-25394274D01*
G37*
%TD.AperFunction*%
%TD*%
M02*
